<?xml version="1.0" encoding="UTF-8" standalone="no"?>
<svg width="301px" height="295px" viewBox="0 0 301 295" version="1.1" xmlns="http://www.w3.org/2000/svg" xmlns:xlink="http://www.w3.org/1999/xlink">
    <!-- Generator: Sketch 46.2 (44496) - http://www.bohemiancoding.com/sketch -->
    <title>Path 2 Copy</title>
    <desc>Created with Sketch.</desc>
    <defs></defs>
    <g id="Hiring-Vendor-Logos" stroke="none" stroke-width="1" fill="none" fill-rule="evenodd">
        <g id="Artboard-34" fill="#FFFFFF">
            <path d="M37,230 L56,197 C38,194.333333 34.3333333,184 45,166 C61,139 94.7488748,80.1914608 112.748875,54 C130.748875,27.8085392 158,28.8085392 174,54 C183.502927,68.9620378 209.246662,109.899589 251.231205,176.812654 L251.231205,176.812654 C261.472396,193.1346 263.966934,213.151441 258.044915,231.487679 L257.963807,231.73881 L257.963807,231.73881 C252.347302,249.12909 236.157465,260.913554 217.882702,260.913554 L92.1075742,260.913554 L92.1075742,260.913554 C83.1080442,260.913554 75.8124836,253.617993 75.8124836,244.618463 C75.8124836,241.75468 76.5672074,238.941472 78.0006234,236.462244 L137.850524,132.946195 L137.850524,132.946195 C139.352042,130.349177 142.674563,129.461099 145.271581,130.962618 C146.066554,131.422247 146.732022,132.075921 147.205793,132.862549 L180.942326,188.877125 L180.942326,188.877125 C182.490041,191.446879 181.661515,194.784748 179.09176,196.332463 C178.243258,196.8435 177.271167,197.112791 176.280656,197.111201 L107,197 L89,230 L218.501047,229.751105 L218.501047,229.751105 L218.501047,229.751105 C229.740939,224.12525 234.292015,210.452861 228.66616,199.212969 C228.444283,198.76968 228.207982,198.333759 227.957634,197.905903 L151.694987,67.5692187 L151.694987,67.5692187 C148.665017,62.3908482 142.010842,60.6492254 136.832472,63.6791954 C135.131606,64.6744064 133.733484,66.1135289 132.787836,67.8424411 L43,232 L41.9466244,234.262807 L41.9466244,234.262807 C31.9681337,255.698083 41.2556935,281.163973 62.69097,291.142464 C67.286255,293.281648 72.2249172,294.587772 77.276929,295 L77.276929,295 L232.246205,295 L232.246205,295 L232.246205,295 C279.41359,284.625417 309.240049,237.978437 298.865466,190.811053 C296.636228,180.675964 292.620769,171.018583 287.006968,162.290768 L209.289913,41.4635297 L209.289913,41.4635297 C199.311019,25.9492755 185.048205,13.6608661 168.228646,6.08638231 L168.183964,6.06626051 L168.183964,6.06626051 C151.825557,-1.30054854 133.092328,-1.29322127 116.739689,6.08638231 L116.739689,6.08638231 L116.739689,6.08638231 C100.008087,13.6370043 86.0328387,26.1951484 76.7430395,42.0273324 L4,166 L4,166 L4,166 C-5.95262946,188.527336 4.03215854,214.871658 26.4159051,225.143152 L37,230 Z" id="Path-2-Copy"></path>
        </g>
    </g>
</svg>