<?xml version="1.0" encoding="UTF-8" standalone="no"?>
<svg width="297px" height="283px" viewBox="0 0 297 283" version="1.1" xmlns="http://www.w3.org/2000/svg" xmlns:xlink="http://www.w3.org/1999/xlink">
    <!-- Generator: Sketch 46.2 (44496) - http://www.bohemiancoding.com/sketch -->
    <title>Group</title>
    <desc>Created with Sketch.</desc>
    <defs>
        <linearGradient x1="12.9171776%" y1="56.7749414%" x2="99.6841138%" y2="20.1786715%" id="linearGradient-1">
            <stop stop-color="#2B7A77" offset="0%"></stop>
            <stop stop-color="#4EBAA9" offset="51.048726%"></stop>
            <stop stop-color="#5CC2B1" offset="100%"></stop>
        </linearGradient>
        <linearGradient x1="73.5628048%" y1="10.3816293%" x2="18.5781462%" y2="100.102528%" id="linearGradient-2">
            <stop stop-color="#236736" offset="0%"></stop>
            <stop stop-color="#6BA443" offset="49.279997%"></stop>
            <stop stop-color="#86C146" offset="100%"></stop>
        </linearGradient>
        <linearGradient x1="28.0890158%" y1="0.30973165%" x2="81.5840713%" y2="99.6597275%" id="linearGradient-3">
            <stop stop-color="#29A5E3" offset="0%"></stop>
            <stop stop-color="#356EB9" offset="51.549304%"></stop>
            <stop stop-color="#394DA5" offset="100%"></stop>
        </linearGradient>
    </defs>
    <g id="Hiring-Vendor-Logos" stroke="none" stroke-width="1" fill="none" fill-rule="evenodd">
        <g id="Artboard-6">
            <g id="Group" transform="translate(148.580947, 141.697846) scale(1, -1) translate(-148.580947, -141.697846) translate(0.080947, 0.197846)">
                <path d="M55.6895349,88.5145101 C47.6788428,88.5145101 43.5159902,85.4928221 39.5198162,78.4736117 L3.01703037,10.8072377 C0.501530043,5.95799036 0.461433842,4.3428945 0.461433842,0.848966019 L57.8303752,3.37795666 L70.9607082,16.5082896 L186.035536,16.5082896 L90.4879593,75.6979478 C85.8307305,78.4523081 68.1177432,88.5145101 55.6895349,88.5145101 Z" id="path4460" fill="url(#linearGradient-1)" fill-rule="nonzero" transform="translate(93.248485, 44.681738) scale(-1, 1) rotate(-180.000000) translate(-93.248485, -44.681738) "></path>
                <path d="M71.0133977,282.005268 L21.3900131,282.005268 C6.4020361,282.005268 0.461433842,274.165975 0.461433842,266.345944 C0.461433842,261.397641 2.05370948,258.699154 4.25524437,253.199678 L76.57222,80.5611753 L77.3493646,79.0462565 L78.3504743,77.4919025 L80.4317265,75.4633398 L83.4877421,73.82995 L87.913697,72.8551865 L95.5273929,73.0527759 L145.780414,91.731359 L128.787919,145.317027 L71.0133977,282.005268 Z" id="path4458" fill="url(#linearGradient-2)" fill-rule="nonzero" transform="translate(73.120924, 177.430227) scale(-1, 1) rotate(-180.000000) translate(-73.120924, -177.430227) "></path>
                <path d="M216.722157,282.350386 L102.574673,12.124756 C100.608563,7.52349487 97.4562948,1.58676975 89.2968079,1.58676975 C82.006434,1.58676975 78.5334728,5.11680812 76.57222,8.91075438 C77.5863479,6.17473822 80.6551929,0.859647323 89.5497188,0.859647323 L168.331716,0.859647323 C175.591905,0.859647323 179.074748,5.13450899 180.661955,9.04846354 L296.094282,282.350386 L216.722157,282.350386 Z" id="path4456" fill="url(#linearGradient-3)" transform="translate(186.333251, 141.605017) scale(-1, 1) rotate(-180.000000) translate(-186.333251, -141.605017) "></path>
            </g>
        </g>
    </g>
</svg>