<?xml version="1.0" encoding="UTF-8" standalone="no"?>
<svg width="212px" height="252px" viewBox="0 0 212 252" version="1.1" xmlns="http://www.w3.org/2000/svg" xmlns:xlink="http://www.w3.org/1999/xlink">
    <!-- Generator: Sketch 46.2 (44496) - http://www.bohemiancoding.com/sketch -->
    <title>bluebottle</title>
    <desc>Created with Sketch.</desc>
    <defs></defs>
    <g id="Page-1" stroke="none" stroke-width="1" fill="none" fill-rule="evenodd">
        <g id="Artboard-34" transform="translate(-136.000000, -151.000000)" fill-rule="nonzero">
            <g id="bluebottle" transform="translate(136.000000, 151.000000)">
                <path d="M100,8.5 C94.4,7.7 92.9,8.3 92.9,2.8 C93,1.5 94.4,-1.4 97,2.9 C98.2,4.3 99.7,5 100.9,5.4 C99.8,5 108.2,6.9 113.8,5.8 C115.2,6.8 113.8,8.5 113.3,9 C113.2,9.1 107.8,10.5 102.7,10.1 C102.7,10 102.1,8.6 102.2,8.6 C102.1,8.7 100.1,8.6 100,8.5 M139.1,80 C138.8,77.8 138.5,75.7 138.1,73.8 C135.4,64.4 131.9,54.5 122.5,50.2 C118.5,48.7 111,49 109.9,39.7 C109.9,37.2 109.9,11.4 109.9,11.4 L97.9,13.8 C97.9,13.8 97.9,15.6 97.9,15.6 C97.9,15.6 97.7,21 97.7,21 C97.7,21 97.7,23.5 97.8,26.7 C98,41.1 98.8,50.3 83.1,56.2 C73.4,59.9 72.8,64.2 71.7,75.4 C71.6,76.2 71.5,77 71.5,77.8 C71.5,77.5 68.3,109 78.9,159.2 C78.9,159.2 80.5,167.4 80.7,168.5 C80.8,169.1 81.4,169.9 83.1,171.1 C101.1,175.4 105,172.3 114.4,173.5 C124,174.8 132.5,168.6 132.7,168.5 C133.6,168.2 136.8,161.8 137.2,153.6 C141.1,131.7 140.1,96.7 139.1,80" id="Shape" fill="#00A8D9"></path>
                <path d="M14,205.9 C15.6,206.5 16.7,208.2 16.7,210.1 C16.7,213 14.9,216.6 9,216.6 L0.8,216.6 L0.8,195.2 L9,195.2 C14.9,195.2 16.7,198.8 16.7,201.7 C16.7,203.3 15.6,205.3 14,205.9 L14,205.9 Z M11.8,201.8 C11.8,201.3 11.5,199.8 9.3,199.8 L5.7,199.8 L5.7,204 L9.4,204 C11.5,204 11.8,202.4 11.8,201.8 L11.8,201.8 Z M11.8,210.2 C11.8,209.6 11.5,208.2 9.4,208.2 L5.7,208.2 L5.7,212.2 L9.3,212.2 C11.4,212.1 11.8,210.6 11.8,210.2 L11.8,210.2 Z M27.3,195.3 L22.4,195.3 L22.4,216.7 L35,216.7 L35,212.2 L27.3,212.2 L27.3,195.3 Z M51.3,208.3 C51.3,209.4 50.6,212.4 47.7,212.4 C44.8,212.4 44,209.4 44,208.3 L44,195.3 L39.1,195.3 L39.1,208.3 C39.1,211.9 41.3,216.9 47.6,216.9 C53.9,216.9 56.1,211.9 56.1,208.3 L56.1,195.3 L51.2,195.3 L51.2,208.3 L51.3,208.3 Z M75.4,208.4 L75.4,203.9 L67.7,203.9 L67.7,199.9 L77.6,199.9 L77.6,195.4 L62.8,195.4 L62.8,216.8 L77.6,216.8 L77.6,212.2 L67.7,212.2 L67.7,208.5 L75.4,208.5 L75.4,208.4 Z M106.3,205.9 C107.9,206.5 109,208.2 109,210.1 C109,213 107.2,216.6 101.3,216.6 L93.1,216.6 L93.1,195.2 L101.3,195.2 C107.2,195.2 109,198.8 109,201.7 C109,203.3 107.9,205.3 106.3,205.9 L106.3,205.9 Z M104.1,201.8 C104.1,201.3 103.8,199.8 101.6,199.8 L98,199.8 L98,204 L101.7,204 C103.8,204 104.1,202.4 104.1,201.8 L104.1,201.8 Z M104.1,210.2 C104.1,209.6 103.8,208.2 101.7,208.2 L98,208.2 L98,212.2 L101.6,212.2 C103.8,212.1 104.1,210.6 104.1,210.2 L104.1,210.2 Z M134.7,205.9 C134.7,210.5 132.2,217 124.1,217 C116,217 113.5,210.5 113.5,205.9 C113.5,201.4 116,194.9 124.1,194.9 C132.2,194.9 134.7,201.5 134.7,205.9 L134.7,205.9 Z M129.7,205.9 C129.7,204.3 129,199.5 124.1,199.5 C119.2,199.5 118.5,204.3 118.5,205.9 C118.5,207.5 119.2,212.4 124.1,212.4 C129,212.4 129.7,207.5 129.7,205.9 L129.7,205.9 Z M142.7,216.7 L147.6,216.7 L147.6,199.9 L153.2,199.9 L153.2,195.4 L137,195.4 L137,199.9 L142.6,199.9 L142.6,216.7 L142.7,216.7 Z M162.4,216.7 L167.3,216.7 L167.3,199.9 L172.9,199.9 L172.9,195.4 L156.7,195.4 L156.7,199.9 L162.3,199.9 L162.3,216.7 L162.4,216.7 Z M183,195.3 L178.1,195.3 L178.1,216.7 L190.7,216.7 L190.7,212.2 L183,212.2 L183,195.3 Z M209,208.4 L209,203.9 L201.3,203.9 L201.3,199.9 L211.2,199.9 L211.2,195.4 L196.4,195.4 L196.4,216.8 L211.2,216.8 L211.2,212.2 L201.3,212.2 L201.3,208.5 L209,208.5 L209,208.4 Z M61.5,233.6 C59.2,231 56.6,229.3 52.9,229.3 C44.8,229.3 42.3,235.8 42.3,240.3 C42.3,244.9 44.8,251.3 52.9,251.3 C56.3,251.3 59,249.8 61.3,247.5 L58.5,244.1 C57,245.4 54.8,246.6 52.9,246.6 C47.9,246.6 47.2,241.9 47.2,240.3 C47.2,238.7 47.9,233.9 52.9,233.9 C54.7,233.9 57,235.2 58.2,236.7 L61.5,233.6 Z M86.8,240.3 C86.8,244.9 84.3,251.4 76.2,251.4 C68.1,251.4 65.6,244.9 65.6,240.3 C65.6,235.8 68.1,229.3 76.2,229.3 C84.3,229.3 86.8,235.8 86.8,240.3 L86.8,240.3 Z M81.9,240.3 C81.9,238.7 81.2,233.9 76.3,233.9 C71.4,233.9 70.7,238.7 70.7,240.3 C70.7,241.9 71.4,246.8 76.3,246.8 C81.2,246.8 81.9,241.9 81.9,240.3 L81.9,240.3 Z M105.1,242.7 L105.1,238.2 L97.3,238.2 L97.3,234.2 L107.2,234.2 L107.2,229.6 L92.5,229.6 L92.5,251 L97.4,251 L97.4,242.7 L105.1,242.7 Z M125.5,242.7 L125.5,238.2 L117.7,238.2 L117.7,234.2 L127.6,234.2 L127.6,229.6 L112.9,229.6 L112.9,251 L117.8,251 L117.8,242.7 L125.5,242.7 Z M145.9,242.7 L145.9,238.2 L138.2,238.2 L138.2,234.2 L148.1,234.2 L148.1,229.6 L133.3,229.6 L133.3,251 L148.1,251 L148.1,246.4 L138.2,246.4 L138.2,242.7 L145.9,242.7 L145.9,242.7 Z M166.3,242.7 L166.3,238.2 L158.6,238.2 L158.6,234.2 L168.5,234.2 L168.5,229.6 L153.7,229.6 L153.7,251 L168.5,251 L168.5,246.4 L158.6,246.4 L158.6,242.7 L166.3,242.7 L166.3,242.7 Z" id="Shape" fill="#FFFFFF"></path>
            </g>
        </g>
    </g>
</svg>