<?xml version="1.0" encoding="UTF-8" standalone="no"?>
<svg width="200px" height="248px" viewBox="0 0 200 248" version="1.1" xmlns="http://www.w3.org/2000/svg" xmlns:xlink="http://www.w3.org/1999/xlink">
    <title>Civic Owl Full Opacity</title>
    <desc></desc>
    <defs>
        <polygon id="path-1" points="99.6463984 247.457627 0.0508474576 247.457627 0.0508474576 0.63559322 99.6463984 0.63559322 199.241949 0.63559322 199.241949 247.457627"></polygon>
    </defs>
    <g id="Hiring-Vendor-Logos" stroke="none" stroke-width="1" fill="none" fill-rule="evenodd">
        <g id="Civic-Owl" transform="translate(-51.000000, -24.000000)">
            <g id="civic_owl" transform="translate(51.000000, 24.000000)">
                <g id="Fill-1-Clipped">
                    <mask id="mask-2" fill="white">
                        <use xlink:href="#path-1"></use>
                    </mask>
                    <g id="path-1"></g>
                    <path d="M85.937288,210.169492 C86.7567796,210.055932 88.7762712,210.155085 91.99661,210.466102 C98.2118644,211.200848 102.576271,211.977119 105.08983,212.79661 C107.632203,213.587288 108.945763,214.011017 109.030508,214.067797 C108.945763,214.067797 108.861864,214.081356 108.776271,214.109322 C105.414407,215.155085 102.222881,215.776271 99.2,215.974576 C93.8898304,216.257627 90.259322,216.454237 88.3101696,216.567797 C86.3330508,216.651695 85.231356,216.694915 85.0050848,216.694915 C84.7796612,216.694915 84.4822032,216.722881 84.1152544,216.779661 C83.7483052,216.863559 83.522034,216.90678 83.437288,216.90678 L83.1830508,216.90678 C82.9855932,216.90678 82.731356,216.949152 82.4203388,217.033898 L82.377966,217.033898 C81.5025424,217.14661 80.4288136,217.513559 79.1576272,218.134746 L79.0305084,218.220339 C78.0415256,218.7 77.1805084,219.35 76.4457628,220.169492 L76.40339,220.211864 L76.3610168,220.211864 C74.6381356,221.85 73.6635592,223.813559 73.437288,226.101695 L73.437288,226.228814 C73.3525424,226.595763 73.3101696,227.019492 73.3101696,227.5 C73.3101696,230.324576 74.3415256,232.767797 76.40339,234.830508 L76.6152544,235.042373 L78.0559324,236.186441 C79.3271188,237.090678 81.2194916,237.584746 83.7338984,237.669492 C86.1915256,237.782203 88.3525424,237.076271 90.2169492,235.550848 L90.259322,235.550848 L90.259322,235.507627 C91.3889832,234.434746 92.1237288,233.686441 92.462712,233.262712 L92.462712,235.847458 C92.6601696,238.644068 90.75339,240.818644 86.7423728,242.372881 C82.9288136,243.728814 79.5677968,243.8 76.6576272,242.584746 L76.6152544,242.584746 C73.7059324,241.341526 71.6008476,239.886441 70.3016948,238.220339 C67.787288,235.141526 66.5305084,231.567797 66.5305084,227.5 C66.5305084,226.680508 66.6008476,225.917797 66.7423728,225.211864 L66.7,225.254237 C67.1237288,221.468644 68.7483052,218.177966 71.5728812,215.380508 C71.7703388,215.127119 71.99661,214.915254 72.2508476,214.744915 C73.7762712,213.248305 75.5838984,212.161017 77.6745764,211.483051 L77.6322032,211.483051 C79.3838984,210.805085 81.2338984,210.437288 83.1830508,210.381356 L83.2254236,210.381356 C83.3949152,210.381356 83.6771188,210.366949 84.0728812,210.338983 C84.468644,210.31017 85.0898304,210.254237 85.937288,210.169492 L85.937288,210.169492 Z M33.3525424,116.61017 L33.0559322,117.076271 C29.1008474,123.375424 26.2762712,129.633051 24.5813559,135.847458 L24.5813559,135.88983 C23.9601695,137.697458 23.5076271,139.618644 23.2254237,141.651695 L23.2254237,141.694915 L23.1830508,141.779661 C22.9008474,142.881356 22.7169492,143.982203 22.6322034,145.084746 L22.6322034,145.169492 C21.361017,154.03983 22.0533898,162.669492 24.7084746,171.059322 L24.7508474,171.228814 L24.7508474,171.355932 C29.779661,186.072881 35.6830508,196.666102 42.462712,203.135593 C49.2423728,209.576271 55.1042372,213.771186 60.0474576,215.720339 L59.5389832,216.779661 L56.6152544,215.974576 C45.8245764,213.291526 36.5161017,206.905932 28.6915254,196.822034 L28.6915254,196.779661 C22.9855932,189.209322 18.9457627,181.822034 16.5728814,174.618644 C13.55,164.872881 12.9008474,154.872881 14.6237288,144.617797 L14.5813559,144.70339 C14.6661017,143.770339 14.7932203,142.922881 14.9627119,142.161017 C15.0194915,141.709322 15.1177966,141.299152 15.259322,140.932203 C15.2881356,140.622034 15.3440678,140.31017 15.4288136,140 C15.5415254,139.180508 15.7533898,138.361864 16.0644068,137.542373 C16.2618644,136.55339 16.559322,135.565254 16.9542373,134.576271 C19.5533898,125.451695 23.6491526,117.14661 29.2423729,109.661017 L30.4711864,108.008474 L33.3525424,116.61017 L33.3525424,116.61017 Z M162.463559,244.491526 C162.491526,244.519492 162.533898,244.547458 162.58983,244.576271 L165.429661,245.847458 L164.794068,247.457627 L161.827966,246.524576 C140.471186,239.744915 119.228814,234.985593 98.0983052,232.245763 C93.3805084,231.623729 88.6491524,231.144068 83.90339,230.805085 C82.9144068,230.720339 82.1237288,230.282203 81.5305084,229.491526 L81.5728812,229.533898 C81.0076272,228.855932 80.7398304,228.050848 80.7677968,227.118644 L80.7677968,227.076271 C80.8525424,226.087288 81.262712,225.324576 81.99661,224.788136 L81.9542372,224.872881 C82.6610168,224.194915 83.5084744,223.898305 84.49661,223.983051 C89.2703388,224.378814 94.1016948,224.886441 98.9881356,225.508474 C120.033051,228.192373 141.191526,234.519492 162.463559,244.491526 L162.463559,244.491526 Z M76.7847456,95.2542372 C76.1347456,94.4915256 75.4711864,93.7288136 74.7932204,92.9661016 L68.0983052,100.508474 L72.8016948,106.101695 C73.4516948,106.864407 74.1152544,107.627119 74.7932204,108.38983 L81.5305084,100.805085 L76.7847456,95.2542372 L76.7847456,95.2542372 Z M60.8101696,100.677966 L62.1661016,99.1949152 L62.1237288,99.1949152 L74.7932204,84.8728812 L85.8949152,97.4576272 C86.1491524,97.768644 86.40339,98.0644068 86.6576272,98.3474576 L88.7338984,100.677966 L88.7762712,100.677966 L87.4203388,102.161017 L87.462712,102.161017 L74.7932204,116.483051 L63.6915256,103.898305 C63.437288,103.587288 63.1830508,103.290678 62.9288136,103.008474 L60.8525424,100.677966 L60.8101696,100.677966 L60.8101696,100.677966 Z M122.547458,107.330508 C138.621186,105.127119 153.027966,109.576271 165.767797,120.677966 C178.705932,131.920339 187.222034,147.725424 191.318644,168.09322 L192.166102,172.16017 C193.324576,177.668644 194.722881,183.714407 196.361864,190.29661 C196.755932,191.877966 197.237288,193.44661 197.801695,195 C199.722034,199.661017 199.722034,202.400848 197.801695,203.220339 C180.202542,208.361017 162.58983,206.072881 144.962712,196.355932 C154.736441,203.616102 163.127119,211.214407 170.132203,219.152542 L170.302542,219.194068 L170.767797,220.169492 L170.598305,219.576271 C172.151695,221.864407 172.64661,223.841526 172.081356,225.508474 C171.742373,227.372881 170.288136,228.771186 167.716949,229.70339 C164.835593,230.748305 159.651695,230.917797 152.166102,230.211017 C145.782203,229.618644 141.10678,228.587288 138.140678,227.118644 C133.112712,225.31017 129.652542,223.474576 127.759322,221.61017 L125.555932,219.617797 L125.725424,219.279661 L128.691526,219.829661 C138.49322,221.666102 146.516102,222.866949 152.759322,223.431356 L152.801695,223.431356 C158.536441,223.968644 162.604237,223.955085 165.005932,223.38983 C161.784746,219.801695 157.449152,215.578814 151.99661,210.719492 C145.414407,205.013559 140.372034,200.607627 136.869492,197.5 C130.711864,192.019492 125.555932,187.979661 121.40339,185.381356 C116.431356,182.584746 112.05339,179.745763 108.267797,176.864407 C107.900848,176.581356 107.547458,176.313559 107.208474,176.059322 C96.1067796,165.042373 90.6974576,153.445763 90.9796612,141.271186 C91.2059324,132.20339 94.2703388,124.166949 100.175424,117.161017 C101.672034,115.578814 103.323729,114.152542 105.132203,112.881356 C109.030508,110.423729 113.988136,108.700848 120.005085,107.711864 L122.547458,107.330508 L122.547458,107.330508 Z M50.0050848,11.1440678 C50.0338984,11.1440678 50.0618644,11.1584746 50.0898304,11.1864407 L56.318644,14.7457627 C61.262712,17.8245763 65.9652544,21.4127119 70.4288136,25.5084746 L70.4711864,25.5508474 C70.9228812,26.0025424 71.4457628,26.4686441 72.0389832,26.9491526 C72.0389832,26.9771186 72.05339,27.0059322 72.081356,27.0338983 C73.437288,28.3898305 74.8355932,29.8305085 76.2762712,31.3559322 C76.3898304,31.4686441 76.5025424,31.5822034 76.6152544,31.6949152 C76.7,31.5822034 76.7991524,31.4686441 76.9118644,31.3559322 L76.9542372,31.3559322 C78.3669492,29.8025424 79.7932204,28.3474576 81.2338984,26.9915254 C81.7703388,26.4830508 82.322034,25.988983 82.8864408,25.5084746 L82.8440676,25.5084746 C87.3355932,21.3279661 92.1381356,17.6974576 97.2508476,14.6186441 L97.2932204,14.6186441 L103.60678,11.0169492 C103.60678,10.9881356 103.621186,10.9745763 103.649152,10.9745763 C105.598305,9.92881356 107.604237,8.98305084 109.666102,8.13559324 C120.994068,3.41779661 133.451695,0.960169492 147.038983,0.762711864 L152.166102,0.63559322 C152.448305,0.63559322 152.70339,0.734745764 152.929661,0.932203388 C153.127119,1.10169492 153.23983,1.32711864 153.267797,1.61016949 C153.295763,1.89237288 153.211864,2.14661017 153.013559,2.37288136 L127.674576,32.0338983 L127.038983,31.8644068 L140.047458,8.60169492 C129.369492,9.44915256 119.525424,11.9347458 110.513559,16.059322 C104.186441,18.940678 98.2822032,22.6271186 92.8016948,27.1186441 L92.8016948,27.0762712 C92.2364408,27.5567797 91.6440676,28.0652542 91.022034,28.6016949 L91.022034,28.559322 C89.440678,29.8872881 87.9144068,31.3135593 86.4457628,32.838983 C84.7508476,34.4491526 83.1262712,36.1584746 81.5728812,37.9661017 C80.9796612,38.6152542 80.4008476,39.279661 79.8355932,39.9576271 L79.8355932,40 L77.4203388,42.7118644 C77.2788136,42.8525424 77.109322,42.9516948 76.9118644,43.0084744 C76.7144068,43.0644068 76.5169492,43.0644068 76.318644,43.0084744 C76.1211864,42.9516948 75.9516948,42.8525424 75.8101696,42.7118644 L73.437288,40 C72.8440676,39.3220339 72.2508476,38.6440678 71.6576272,37.9661017 C70.1042372,36.1584746 68.522034,34.4491526 66.9118644,32.838983 C65.3584744,31.3415254 63.8050848,29.9288136 62.2508476,28.6016949 L62.2508476,28.559322 C61.6296612,28.0508474 61.0364408,27.570339 60.4711864,27.1186441 C55.612712,23.1635593 50.4144068,19.8305085 44.877966,17.1186441 C35.2449152,12.3728814 24.7228814,9.53389832 13.3101695,8.60169492 L26.8694915,31.6525424 L26.1491526,31.9491526 L0.259322034,2.37288136 C0.0618644068,2.14661017 -0.0228813559,1.90677966 0.00508474576,1.65254237 C0.0338983051,1.34152542 0.14661017,1.10169492 0.344067797,0.932203388 C0.54237288,0.734745764 0.795762712,0.63559322 1.10677966,0.63559322 L6.23389832,0.762711864 C20.6694915,0.960169492 33.861017,3.74322034 45.8101696,9.11016948 L45.8101696,9.15254236 C47.1661016,9.74576272 48.5644068,10.409322 50.0050848,11.1440678 L50.0050848,11.1440678 Z M42.8864408,35.8050848 C43.9881356,35.6635593 45.1610168,35.5932203 46.40339,35.5932203 C50.0754236,35.5932203 53.5508476,36.1440678 56.8271188,37.2457627 C58.8050848,37.9237288 60.6974576,38.7991526 62.5050848,39.8728814 L63.1830508,40.2118644 L59.2423728,46.059322 L58.7338984,45.7203388 C54.8076272,43.3754236 50.4576272,42.20339 45.6830508,42.20339 C43.818644,42.20339 42.0110168,42.4152544 40.259322,42.8389832 L40.2169492,42.8389832 C35.4152542,43.7711864 31.1915254,46.059322 27.5474576,49.70339 C22.5474576,54.731356 20.0474576,60.7762712 20.0474576,67.8389832 C20.0474576,72.9237288 21.3466102,77.4711864 23.9457627,81.4830508 C24.8779661,83.1211864 26.0788136,84.64661 27.5474576,86.059322 C27.7169492,86.2288136 27.9432203,86.468644 28.2254237,86.7796612 C28.8474576,87.3161016 29.511017,87.85339 30.2169492,88.3898304 C33.1830508,90.7338984 36.5161017,92.3161016 40.2169492,93.1355932 C41.99661,93.4745764 43.818644,93.6440676 45.6830508,93.6440676 C49.8923728,93.6440676 53.7483052,92.7542372 57.2508476,90.9745764 L57.8016948,90.7203388 L61.1067796,96.5677968 L60.5135592,96.8644068 C59.9203388,97.14661 59.312712,97.4152544 58.6915256,97.6694916 C55.3016948,99.05339 51.6432204,99.8305084 47.7169492,100 L47.6745764,100 L46.40339,100 C44.6237288,100 42.9288136,99.887288 41.318644,99.6610168 C39.0305085,99.2940676 36.8838983,98.7288136 34.8779661,97.9661016 C34.7084746,97.881356 34.5813559,97.8245764 34.4966102,97.79661 C29.3838983,95.027966 25.8669492,92.7118644 23.9457627,90.8474576 C23.861017,90.762712 23.7762712,90.7059324 23.6915254,90.677966 L23.5644068,90.5932204 L23.479661,90.4661016 C23.3669492,90.29661 23.2398305,90.1415256 23.0983051,90 L19.8355932,86.059322 L19.7508474,86.0169492 C17.6601695,82.9940676 16.2059322,79.7457628 15.3864407,76.2711864 C15.1042373,75.4237288 14.8923729,74.5762712 14.7508474,73.7288136 C13.5644068,64.1245764 15.3864407,55.8754236 20.2169492,48.9830508 L20.2169492,48.8983052 C21.2059322,47.5423728 22.3211864,46.2423728 23.5644068,45 C24.9483051,43.6152544 26.3898305,42.387288 27.8864407,41.3135592 C30.3440678,39.5338983 32.9855932,38.1779661 35.8101695,37.2457627 C38.070339,36.511017 40.4288136,36.0313559 42.8864408,35.8050848 L42.8864408,35.8050848 Z M108.31017,35.2542373 C112.405932,35.2542373 116.233898,35.9177966 119.79322,37.2457627 C123.634746,38.6864407 127.152542,40.8898304 130.344068,43.8559324 C130.711864,44.1669492 131.05,44.4771188 131.361017,44.7881356 C134.694915,48.0644068 137.180508,51.7508476 138.818644,55.8474576 C139.835593,58.587288 140.5,61.49661 140.81017,64.5762712 L140.81017,64.618644 C140.866949,65.6355932 140.894915,66.6805084 140.894915,67.7542372 C140.894915,72.1610168 140.16017,76.2423728 138.691526,80 L137.971186,81.822034 L137.801695,81.737288 C136.248305,85.0135592 134.101695,88.0364408 131.361017,90.8050848 L130.216949,91.9915256 L130.216949,91.9067796 C124.086441,97.5 116.784746,100.29661 108.31017,100.29661 C101.870339,100.29661 96.1211864,98.672034 91.0644068,95.4237288 C87.9008476,93.44661 85.231356,91.0728812 83.0559324,88.3050848 C78.2254236,82.4576272 75.8101696,75.6067796 75.8101696,67.7542372 C75.8101696,58.7423728 78.9881356,51.087288 85.3440676,44.7881356 C88.7618644,41.3415256 92.5898304,38.8271186 96.8271188,37.2457627 C100.357627,35.9177966 104.186441,35.2542373 108.31017,35.2542373 L108.31017,35.2542373 Z M133.098305,58.0508476 C131.771186,54.7169492 129.765254,51.7228812 127.082203,49.0677968 C121.911864,43.8703388 115.655085,41.2711864 108.31017,41.2711864 C100.99322,41.2711864 94.7652544,43.8703388 89.6237288,49.0677968 C84.4262712,54.2084744 81.8271188,60.437288 81.8271188,67.7542372 C81.8271188,75.0703388 84.4262712,81.3271188 89.6237288,86.5254236 C94.7652544,91.7228812 100.99322,94.322034 108.31017,94.322034 C115.655085,94.322034 121.911864,91.7228812 127.082203,86.5254236 C132.250848,81.3271188 134.835593,75.0703388 134.835593,67.7542372 C134.835593,66.8788136 134.807627,66.0169492 134.750848,65.1694916 C134.497458,62.6271188 133.945763,60.2542372 133.098305,58.0508476 L133.098305,58.0508476 Z" id="Fill-1" fill="#FFFFFF" fill-rule="nonzero" mask="url(#mask-2)"></path>
                </g>
            </g>
        </g>
    </g>
</svg>
