<?xml version="1.0" encoding="UTF-8" standalone="no"?>
<svg width="300px" height="242px" viewBox="0 0 300 242" version="1.1" xmlns="http://www.w3.org/2000/svg" xmlns:xlink="http://www.w3.org/1999/xlink">
    <!-- Generator: Sketch 46.2 (44496) - http://www.bohemiancoding.com/sketch -->
    <title>ck</title>
    <desc>Created with Sketch.</desc>
    <defs></defs>
    <g id="Hiring-Vendor-Logos" stroke="none" stroke-width="1" fill="none" fill-rule="evenodd">
        <g id="Artboard-3" transform="translate(0.000000, -1.000000)" fill-rule="nonzero" fill="#FFFFFF">
            <g id="ck" transform="translate(0.000000, 1.000000)">
                <path d="M32.6190476,154 C32.6190476,114.952381 52.8571429,94.7142857 83.8095238,94.7142857 C107.142857,94.7142857 122.380952,103.52381 127.380952,106.619048 C131.190476,103.047619 134.285714,96.6190476 134.285714,89.952381 C134.285714,78.7619048 121.190476,66.8571429 82.6190476,66.8571429 C37.6190476,66.8571429 0,97.0952381 0,154.47619 C0,210.428571 34.047619,241.619048 79.047619,241.619048 C105.952381,241.619048 127.619048,233.047619 133.809524,229.714286 L133.809524,198.52381 C126.904762,203.285714 104.761905,213.52381 84.2857143,213.52381 C54.7619048,213.52381 32.6190476,193.52381 32.6190476,154 Z M247.857143,152.571429 C268.095238,129.714286 286.190476,102.571429 299.047619,69.2380952 L270,58.5238095 C251.666667,106.857143 224.047619,139.47619 190.714286,166.380952 L190.714286,0.904761905 L159.52381,0.904761905 L159.52381,238.047619 L190.714286,238.047619 L190.714286,203.047619 C202.857143,194.47619 213.571429,185.666667 225.238095,174.952381 L253.809524,223.285714 C260.952381,235.190476 270.47619,241.619048 284.761905,241.619048 C292.857143,241.619048 297.380952,239 299.285714,238.047619 L247.857143,152.571429 Z" id="Shape"></path>
            </g>
        </g>
    </g>
</svg>