<?xml version="1.0" encoding="UTF-8" standalone="no"?>
<svg width="302px" height="298px" viewBox="0 0 302 298" version="1.1" xmlns="http://www.w3.org/2000/svg" xmlns:xlink="http://www.w3.org/1999/xlink">
    <title>Cleary Logo</title>
    <defs></defs>
    <g id="Page-1" stroke="none" stroke-width="1" fill="none" fill-rule="evenodd">
        <g id="Artboard-34" transform="translate(-427.000000, -131.000000)">
            <g id="Cleary-Logo" transform="translate(428.000000, 131.000000)">
                <path d="M158.157014,118.262296 C155.384773,124.061137 149.470848,128.066116 142.622951,128.066116 C133.11641,128.066116 125.409836,120.347653 125.409836,110.826446 C125.409836,101.30524 133.11641,93.5867769 142.622951,93.5867769 C149.517043,93.5867769 155.464519,97.6459722 158.212689,103.508196 L280.430294,103.508197 C291.311673,103.508197 300.132773,112.31571 300.132773,123.180328 L300.132773,174.819672 C300.132773,185.68429 291.311673,194.491803 280.430294,194.491803 L201.620377,194.491803 L201.620377,179.737705 L280.430294,179.737705 C283.150639,179.737705 285.355914,177.535827 285.355914,174.819672 L285.355914,123.180328 C285.355914,120.464173 283.150639,118.262295 280.430294,118.262295 L158.15702,118.262295 Z M142.622951,123.140496 C149.413337,123.140496 154.918033,117.627308 154.918033,110.826446 C154.918033,104.025584 149.413337,98.5123967 142.622951,98.5123967 C135.832565,98.5123967 130.327869,104.025584 130.327869,110.826446 C130.327869,117.627308 135.832565,123.140496 142.622951,123.140496 Z" id="Connect-Right" fill="#00A9DF"></path>
                <path d="M144.246323,194.491803 L19.569706,194.491803 C8.68832713,194.491803 -0.132773337,185.68429 -0.132773337,174.819672 L-0.132773337,123.180328 C-0.132773337,112.31571 8.68832713,103.508197 19.569706,103.508197 L98.3796234,103.508197 L98.3796234,118.262295 L19.569706,118.262295 C16.8493613,118.262295 14.6440862,120.464173 14.6440862,123.180328 L14.6440862,174.819672 C14.6440862,177.535827 16.8493613,179.737705 19.569706,179.737705 L144.301997,179.737705 C147.074244,173.938863 152.988169,169.933884 159.836066,169.933884 C169.342606,169.933884 177.04918,177.652347 177.04918,187.173554 C177.04918,196.69476 169.342606,204.413223 159.836066,204.413223 C152.941973,204.413223 146.994497,200.354028 144.246328,194.491804 Z M159.836066,199.487603 C166.626452,199.487603 172.131148,193.974416 172.131148,187.173554 C172.131148,180.372692 166.626452,174.859504 159.836066,174.859504 C153.045679,174.859504 147.540984,180.372692 147.540984,187.173554 C147.540984,193.974416 153.045679,199.487603 159.836066,199.487603 Z" id="Connect-Left" fill="#C66156"></path>
                <path d="M196.721311,155.960814 L196.721311,278.297521 C196.721311,289.1789 187.913798,298 177.04918,298 L125.409836,298 C114.545218,298 105.737705,289.1789 105.737705,278.297521 L105.737705,199.487603 L120.491803,199.487603 L120.491803,278.297521 C120.491803,281.017865 122.693682,283.22314 125.409836,283.22314 L177.04918,283.22314 C179.765335,283.22314 181.967213,281.017865 181.967213,278.297521 L181.967213,155.960809 C176.151769,153.193931 172.131148,147.257306 172.131148,140.380165 C172.131148,130.858959 179.837722,123.140496 189.344262,123.140496 C198.850803,123.140496 206.557377,130.858959 206.557377,140.380165 C206.557377,147.257305 202.536756,153.19393 196.721312,155.960809 Z M189.344262,152.694215 C196.134649,152.694215 201.639344,147.181027 201.639344,140.380165 C201.639344,133.579303 196.134649,128.066116 189.344262,128.066116 C182.553876,128.066116 177.04918,133.579303 177.04918,140.380165 C177.04918,147.181027 182.553876,152.694215 189.344262,152.694215 Z" id="Connect-Bottom" fill="#FFB026"></path>
                <path d="M120.491803,142.039191 C126.307248,144.806069 130.327869,150.742694 130.327869,157.619835 C130.327869,167.141041 122.621295,174.859504 113.114754,174.859504 C103.608213,174.859504 95.9016393,167.141041 95.9016393,157.619835 C95.9016393,150.742695 99.9222602,144.80607 105.737704,142.039191 L105.737705,19.7024793 C105.737705,8.82110047 114.545218,0 125.409836,0 L177.04918,0 C187.913798,0 196.721311,8.82110047 196.721311,19.7024793 L196.721311,98.5123967 L181.967213,98.5123967 L181.967213,19.7024793 C181.967213,16.9821346 179.765335,14.7768595 177.04918,14.7768595 L125.409836,14.7768595 C122.693682,14.7768595 120.491803,16.9821346 120.491803,19.7024793 L120.491803,142.039191 Z M113.114754,169.933884 C119.90514,169.933884 125.409836,164.420697 125.409836,157.619835 C125.409836,150.818973 119.90514,145.305785 113.114754,145.305785 C106.324368,145.305785 100.819672,150.818973 100.819672,157.619835 C100.819672,164.420697 106.324368,169.933884 113.114754,169.933884 Z" id="Connect-Top" fill="#6AAD2C"></path>
            </g>
        </g>
    </g>
</svg>
