<?xml version="1.0" encoding="UTF-8" standalone="no"?>
<svg width="393px" height="393px" viewBox="0 0 393 393" version="1.1" xmlns="http://www.w3.org/2000/svg" xmlns:xlink="http://www.w3.org/1999/xlink">
    <!-- Generator: Sketch 46.2 (44496) - http://www.bohemiancoding.com/sketch -->
    <title>creative_market</title>
    <desc>Created with Sketch.</desc>
    <defs></defs>
    <g id="Hiring-Vendor-Logos" stroke="none" stroke-width="1" fill="none" fill-rule="evenodd">
        <g id="Artboard-2" transform="translate(-3.000000, -3.000000)" fill-rule="nonzero" fill="#8BA651">
            <g id="creative_market" transform="translate(3.000000, 2.000000)">
                <path d="M393,153 C393,138 387,49 387,49 C387,35 382,25 375,19 C369,12 359,7 345,7 C345,7 256,1 241,1 C219,1 205,-4.82947016e-14 178,27 C164,40 19,186 12,192 C6,198 -15,222 21,258 L77,314 L80,317 L136,373 C171,408 196,388 202,381 L367,216 C394,189 393,175 393,153 Z M237,201 L287,225 L269,258 L223,228 C222,227 221,227 219,227 C218,227 217,227 216,228 C214,229 213,231 213,234 L217,288 L180,288 L183,233 C183,231 182,228 180,227 C178,226 175,226 173,227 L128,258 L108,226 L158,201 C160,200 162,198 162,195 C162,193 161,190 158,189 L108,165 L126,132 L172,162 C174,163 177,163 179,162 C181,161 182,159 182,156 L178,101 L215,101 L213,158 C213,160 214,163 216,164 C218,165 221,165 223,164 L268,133 L288,165 L238,190 C236,191 234,193 234,196 C234,198 235,200 237,201 L237,201 Z M323,96 C310,96 299,85 299,72 C299,59 310,48 323,48 C336,48 347,59 347,72 C346,86 336,96 323,96 Z" id="Shape"></path>
            </g>
        </g>
    </g>
</svg>