<?xml version="1.0" encoding="UTF-8" standalone="no"?>
<svg width="295px" height="295px" viewBox="0 0 295 295" version="1.1" xmlns="http://www.w3.org/2000/svg" xmlns:xlink="http://www.w3.org/1999/xlink">
    <!-- Generator: Sketch 46.2 (44496) - http://www.bohemiancoding.com/sketch -->
    <title>creative_market</title>
    <desc>Created with Sketch.</desc>
    <defs></defs>
    <g id="Hiring-Vendor-Logos" stroke="none" stroke-width="1" fill="none" fill-rule="evenodd">
        <g id="Artboard-2" transform="translate(-2.000000, -2.000000)" fill-rule="nonzero" fill="#FFFFFF">
            <g id="creative_market" transform="translate(2.250000, 1.500000)">
                <path d="M294.75,114.75 C294.75,103.5 290.25,36.75 290.25,36.75 C290.25,26.25 286.5,18.75 281.25,14.25 C276.75,9 269.25,5.25 258.75,5.25 C258.75,5.25 192,0.75 180.75,0.75 C164.25,0.75 153.75,-3.61932706e-14 133.5,20.25 C123,30 14.25,139.5 9,144 C4.5,148.5 -11.25,166.5 15.75,193.5 L57.75,235.5 L60,237.75 L102,279.75 C128.25,306 147,291 151.5,285.75 L275.25,162 C295.5,141.75 294.75,131.25 294.75,114.75 Z M177.75,150.75 L215.25,168.75 L201.75,193.5 L167.25,171 C166.5,170.25 165.75,170.25 164.25,170.25 C163.5,170.25 162.75,170.25 162,171 C160.5,171.75 159.75,173.25 159.75,175.5 L162.75,216 L135,216 L137.25,174.75 C137.25,173.25 136.5,171 135,170.25 C133.5,169.5 131.25,169.5 129.75,170.25 L96,193.5 L81,169.5 L118.5,150.75 C120,150 121.5,148.5 121.5,146.25 C121.5,144.75 120.75,142.5 118.5,141.75 L81,123.75 L94.5,99 L129,121.5 C130.5,122.25 132.75,122.25 134.25,121.5 C135.75,120.75 136.5,119.25 136.5,117 L133.5,75.75 L161.25,75.75 L159.75,118.5 C159.75,120 160.5,122.25 162,123 C163.5,123.75 165.75,123.75 167.25,123 L201,99.75 L216,123.75 L178.5,142.5 C177,143.25 175.5,144.75 175.5,147 C175.5,148.5 176.25,150 177.75,150.75 L177.75,150.75 Z M242.25,72 C232.5,72 224.25,63.75 224.25,54 C224.25,44.25 232.5,36 242.25,36 C252,36 260.25,44.25 260.25,54 C259.5,64.5 252,72 242.25,72 Z" id="Shape"></path>
            </g>
        </g>
    </g>
</svg>