<?xml version="1.0" encoding="UTF-8" standalone="no"?>
<svg width="1306px" height="294px" viewBox="0 0 1306 294" version="1.1" xmlns="http://www.w3.org/2000/svg" xmlns:xlink="http://www.w3.org/1999/xlink">
    <desc>Crafted in Sketch, created with care by Julian</desc>
    <defs>
        <polygon id="path-1" points="0 0 184.411765 0 184.411765 56.7647059 74.1176471 56.7647059 74.1176471 116.176471 148.235294 116.176471 148.235294 172.941176 74.1176471 172.941176 74.1176471 233.823529 184.411765 233.823529 184.411765 293.235294 0 293.235294"></polygon>
        <polygon id="path-2" points="205 0 271.764706 0 271.764706 293.235294 205 293.235294"></polygon>
        <polygon id="path-3" points="298 0 364.764706 0 364.764706 293.235294 298 293.235294"></polygon>
        <path d="M390,0 L456.764706,0 L456.764706,59.4117647 L390,59.4117647 L390,0 Z M390,86.4705882 L456.764706,86.4705882 L456.764706,293.235294 L390,293.235294 L390,86.4705882 Z" id="path-4"></path>
        <path d="M539.470588,199.235294 C539.470588,217.470588 543.294118,248.352941 569.470588,248.352941 C585.647059,248.352941 599.176471,236.882353 603.294118,219.823529 L648.294118,236.294118 C645.352941,245.705882 624.764706,292.764706 565.647059,292.764706 C501.823529,292.764706 473,241.294118 473,183.941176 C473,125.411765 503.588235,76 564.764706,76 C628.882353,76 651.235294,131.294118 651.235294,185.117647 L651.235294,199.235294 L539.470588,199.235294 L539.470588,199.235294 Z M589.470588,159.529412 C589.176471,140.117647 587.411765,118.058824 564.470588,118.058824 C545.647059,118.058824 539.764706,140.411765 539.764706,159.529412 L589.470588,159.529412 Z" id="path-5"></path>
    </defs>
    <g id="Hiring-Vendor-Logos" stroke="none" stroke-width="1" fill="none" fill-rule="evenodd">
        <g id="Artboard-5" fill-rule="nonzero">
            <g id="Group">
                <g id="Shape">
                    <use fill-opacity="0" fill="#0067AC" fill-rule="evenodd" xlink:href="#path-1"></use>
                    <path stroke="#FFFFFF" stroke-width="6" d="M3,3 L3,290.235294 L181.411765,290.235294 L181.411765,236.823529 L71.1176471,236.823529 L71.1176471,169.941176 L145.235294,169.941176 L145.235294,119.176471 L71.1176471,119.176471 L71.1176471,53.7647059 L181.411765,53.7647059 L181.411765,3 L3,3 Z"></path>
                </g>
                <g id="Shape">
                    <use fill-opacity="0" fill="#0067AC" fill-rule="evenodd" xlink:href="#path-2"></use>
                    <path stroke="#FFFFFF" stroke-width="6" d="M208,3 L208,290.235294 L268.764706,290.235294 L268.764706,3 L208,3 Z"></path>
                </g>
                <g id="Shape">
                    <use fill-opacity="0" fill="#0067AC" fill-rule="evenodd" xlink:href="#path-3"></use>
                    <path stroke="#FFFFFF" stroke-width="6" d="M301,3 L301,290.235294 L361.764706,290.235294 L361.764706,3 L301,3 Z"></path>
                </g>
                <g id="Shape">
                    <use fill-opacity="0" fill="#0067AC" fill-rule="evenodd" xlink:href="#path-4"></use>
                    <path stroke="#FFFFFF" stroke-width="6" d="M393,3 L393,56.4117647 L453.764706,56.4117647 L453.764706,3 L393,3 Z M393,89.4705882 L393,290.235294 L453.764706,290.235294 L453.764706,89.4705882 L393,89.4705882 Z"></path>
                </g>
                <g id="Shape">
                    <use fill-opacity="0" fill="#0067AC" fill-rule="evenodd" xlink:href="#path-5"></use>
                    <path stroke="#FFFFFF" stroke-width="6" d="M648.235294,196.235294 L648.235294,185.117647 C648.235294,156.614953 641.965033,130.798969 629.542472,112.03083 C615.407326,90.6752977 593.873482,79 564.764706,79 C536.399384,79 513.816689,89.9203979 498.309471,109.863574 C483.757582,128.578143 476,154.676067 476,183.941176 C476,213.051944 483.508256,239.214251 497.780726,258.048383 C513.309198,278.53995 536.218519,289.764706 565.647059,289.764706 C591.068265,289.764706 610.931377,280.964256 625.912429,265.940523 C634.91219,256.915122 641.353758,246.299428 644.49043,238.096553 L605.307365,223.755039 C600.003995,240.35967 586.003346,251.352941 569.470588,251.352941 C556.222971,251.352941 547.131891,244.195913 541.89123,231.80061 C538.054458,222.725812 536.470588,211.45852 536.470588,199.235294 L536.470588,196.235294 L539.470588,196.235294 L648.235294,196.235294 Z M592.516387,162.529412 L536.764706,162.529412 L536.764706,159.529412 C536.764706,148.53424 538.597385,138.165657 542.353477,130.328428 C547.00185,120.629417 554.443565,115.058824 564.470588,115.058824 C576.315993,115.058824 584.065421,120.469791 588.2279,130.349963 C591.279057,137.592268 592.265398,145.964139 592.470244,159.483962 L592.516387,162.529412 Z"></path>
                </g>
                <g id="Group-2" transform="translate(670.000000, 0.000000)" fill="#FFFFFF">
                    <polygon id="Shape" points="8.3593263e-14 0 103.823529 0 135.588235 164.411765 136.470588 164.411765 173.823529 0 274.705882 0 274.705882 293.235294 200.588235 293.235294 200.588235 76.4705882 199.705882 76.4705882 149.117647 292.941176 104.117647 292.941176 57.6470588 68.8235294 56.7647059 68.8235294 56.7647059 292.941176 0 292.941176 0 0"></polygon>
                    <path d="M395.647059,143.764706 C395.647059,131.411765 390.352941,119.352941 378.294118,119.352941 C363,119.352941 357.705882,134.941176 356.529412,146.411765 L298.588235,134.352941 C305.941176,93.4705882 343,77 380.941176,77 C420.941176,77 462.411765,94.3529412 462.411765,139.941176 L462.411765,255.235294 C462.411765,278.764706 466.235294,285.823529 468.588235,288.470588 L399.764706,288.470588 C398.588235,282.588235 398.588235,275.823529 397.705882,269.647059 C385.647059,283.764706 368,293.470588 347.411765,293.470588 C311.529412,293.470588 288,270.529412 288,229.941176 C288,174.352941 350.647059,158.176471 395.352941,157 L395.352941,143.764706 L395.647059,143.764706 Z M395.647059,189.647059 C370.058824,192 354.764706,196.705882 354.764706,227 C354.764706,241.411765 362.117647,249.352941 374.176471,249.352941 C380.058824,249.352941 387.411765,245.529412 395.647059,236.117647 L395.647059,189.647059 L395.647059,189.647059 Z" id="Shape"></path>
                    <path d="M523.470588,199.235294 C523.470588,217.470588 527.294118,248.352941 553.470588,248.352941 C569.647059,248.352941 583.176471,236.882353 587.294118,219.823529 L632.294118,236.294118 C629.352941,245.705882 608.764706,292.764706 549.647059,292.764706 C485.823529,292.764706 457,241.294118 457,183.941176 C457,125.411765 487.588235,76 548.764706,76 C612.882353,76 635.235294,131.294118 635.235294,185.117647 L635.235294,199.235294 L523.470588,199.235294 L523.470588,199.235294 Z M573.176471,159.529412 C572.882353,140.117647 571.117647,118.058824 548.176471,118.058824 C529.352941,118.058824 523.470588,140.411765 523.470588,159.529412 L573.176471,159.529412 Z" id="Shape"></path>
                </g>
            </g>
        </g>
    </g>
</svg>
