<?xml version="1.0" encoding="UTF-8" standalone="no"?>
<svg width="300px" height="41px" viewBox="0 0 300 41" version="1.1" xmlns="http://www.w3.org/2000/svg" xmlns:xlink="http://www.w3.org/1999/xlink">
    <title>flexport</title>
    <defs></defs>
    <g id="360s" stroke="none" stroke-width="1" fill="none" fill-rule="evenodd">
        <g id="Artboard" transform="translate(-52.000000, -81.000000)" fill-rule="nonzero" fill="#FFFFFF">
            <g id="flex" transform="translate(52.000000, 81.000000)">
                <path d="M101.769231,1.4 L116.307692,1.4 L121.615385,10.9666667 L127.384615,20.3 L121.384615,29.6333333 L115.153846,39.9 L101.076923,39.9 L114.461538,20.3 L101.769231,1.4 Z M0,1.63333333 L29.7692308,1.63333333 L29.7692308,10.0333333 L12.9230769,10.0333333 L12.9230769,17.7333333 L26.5384615,17.7333333 L26.5384615,27.0666667 L12.9230769,27.0666667 L12.9230769,39.6666667 L0,39.6666667 L0,1.63333333 Z M33.9230769,1.16666667 L46.3846154,1.16666667 L46.3846154,30.5666667 L63.6923077,30.5666667 L63.6923077,39.6666667 L33.9230769,39.6666667 L33.9230769,1.16666667 Z M67.8461538,1.63333333 L99,1.63333333 L99,10.7333333 L80.7692308,10.7333333 L80.7692308,15.8666667 L96,15.8666667 L96,24.9666667 L80.7692308,24.9666667 L80.7692308,30.5666667 L99.6923077,30.5666667 L99.6923077,39.6666667 L67.8461538,39.6666667 L67.8461538,1.63333333 Z M122.538462,9.56666667 L128.307692,1.4 L142.846154,1.4 L128.769231,19.6 L122.538462,9.56666667 Z M128.538462,20.7666667 L141.461538,39.6666667 L126.923077,39.6666667 L121.846154,30.8 L128.538462,20.7666667 Z M164.769231,1.16666667 C169.846154,1.16666667 173.769231,2.56666667 176.538462,5.36666667 C179.307692,8.16666667 180.692308,11.2 180.692308,14.4666667 L180.692308,14.9333333 C180.692308,18.2 179.307692,21.2333333 176.769231,23.8 C174.230769,26.6 170.307692,28 165.230769,28 L158.307692,28 L158.307692,39.4333333 L145.384615,39.4333333 L145.384615,1.16666667 L164.769231,1.16666667 Z M158.076923,10.2666667 L158.076923,18.2 L164.307692,18.2 C165.461538,18.2 166.384615,17.9666667 167.076923,17.2666667 C167.769231,16.5666667 168,15.6333333 168,14.9333333 L168,14.2333333 L168,14 C167.769231,13.0666667 167.538462,12.3666667 166.846154,11.6666667 C166.153846,10.7333333 165.230769,10.5 163.846154,10.5 L158.076923,10.2666667 L158.076923,10.2666667 Z M202.153846,0 C208.615385,0 213.692308,2.1 217.153846,6.06666667 C220.615385,10.0333333 222.461538,14.7 222.923077,19.3666667 L222.923077,20.3 C222.923077,25.4333333 221.307692,30.3333333 217.846154,34.3 C214.384615,38.5 209.307692,40.6 202.384615,40.6 C195.461538,40.6 190.384615,38.5 186.923077,34.3 C183.461538,30.1 181.846154,25.6666667 181.846154,20.5333333 L181.846154,20.3 C181.846154,15.4 183.692308,10.7333333 187.153846,6.53333333 C190.615385,2.33333333 195.461538,0.233333333 202.153846,0 Z M202.384615,9.8 C200.307692,9.8 198.692308,10.7333333 197.076923,12.3666667 C195.692308,14 195,16.8 195,20.3 C195,23.8 195.692308,26.6 197.076923,28.4666667 C198.461538,30.3333333 200.076923,31.2666667 202.384615,31.2666667 C204.692308,31.2666667 206.538462,30.3333333 207.692308,28.2333333 C208.846154,26.1333333 209.538462,23.5666667 209.538462,19.8333333 C209.538462,16.8 208.846154,14.4666667 207.692308,12.8333333 C206.538462,11.2 205.153846,10.2666667 203.769231,10.0333333 L203.076923,10.0333333 C202.846154,10.0333333 202.615385,10.0333333 202.384615,9.8 L202.384615,9.8 Z M225.461538,1.16666667 L245.307692,1.16666667 C251.076923,1.16666667 255,2.33333333 257.307692,4.43333333 C259.615385,6.53333333 260.769231,8.86666667 261,11.4333333 L261,11.9 C261,14.2333333 260.307692,16.3333333 259.153846,18.4333333 C258,20.3 256.615385,21.4666667 255,21.7 C257.769231,22.8666667 259.384615,24.2666667 259.846154,26.1333333 C260.307692,27.7666667 260.769231,29.8666667 260.769231,32.2 L260.769231,34.3 C260.769231,35.4666667 260.769231,36.6333333 261,37.1 C261.230769,37.8 261.692308,38.2666667 262.384615,38.2666667 L262.384615,39.4333333 L249.230769,39.4333333 C249,38.2666667 248.769231,37.1 248.769231,35.9333333 L248.769231,32.9 C248.769231,31.2666667 248.538462,30.1 248.307692,29.1666667 C248.076923,28.2333333 247.384615,27.5333333 246.230769,27.0666667 C245.769231,26.8333333 245.307692,26.8333333 244.615385,26.6 C243.923077,26.3666667 243.461538,26.3666667 242.769231,26.3666667 L238.384615,26.3666667 L238.384615,39.2 L225.461538,39.2 L225.461538,1.16666667 Z M237.923077,10.7333333 L237.923077,17.5 L245.307692,17.5 C246.461538,17.5 247.384615,17.2666667 247.846154,16.5666667 C248.538462,15.8666667 248.769231,15.1666667 248.769231,14.2333333 L248.769231,13.7666667 C248.769231,13.0666667 248.307692,12.3666667 247.615385,11.6666667 C246.923077,10.9666667 246,10.7333333 244.846154,10.7333333 L237.923077,10.7333333 L237.923077,10.7333333 Z M264.230769,1.16666667 L299.307692,1.16666667 L299.307692,11.6666667 L288,11.6666667 L288,39.6666667 L275.076923,39.6666667 L275.076923,11.6666667 L264,11.6666667 L264.230769,1.16666667 L264.230769,1.16666667 Z" id="Shape"></path>
            </g>
        </g>
    </g>
</svg>
