<svg width="450px" height="93px" viewBox="0 0 450 93" version="1.1" xmlns="http://www.w3.org/2000/svg" xmlns:xlink="http://www.w3.org/1999/xlink">
    <g id="Hiring-Vendor-Logos" stroke="none" stroke-width="1" fill="none" fill-rule="evenodd">
        <g id="Artboard-8-Copy" fill-rule="nonzero" fill="#FFFFFF">
            <g id="fountain">
                <path d="M52.9946809,61.037234 C52.9946809,70.8031915 59.8404255,77.6489362 68.9840426,77.6489362 C78.1755319,77.6489362 85.0212766,70.8031915 85.0212766,61.037234 C85.0212766,51.2712766 78.1755319,44.4255319 68.9840426,44.4255319 C59.8404255,44.4255319 52.9946809,51.2712766 52.9946809,61.037234 L52.9946809,61.037234 Z M101.585106,61.037234 C101.585106,79.1808511 87.7021277,92.7287234 68.9361702,92.7287234 C50.2180851,92.7287234 36.4308511,79.1808511 36.4308511,61.037234 C36.4308511,42.893617 50.2180851,29.3457447 68.9361702,29.3457447 C87.75,29.3457447 101.585106,42.893617 101.585106,61.037234 L101.585106,61.037234 Z M137.87234,92.7287234 C122.792553,92.7287234 109.340426,84.5425532 109.340426,65.4893617 L109.340426,30.9734043 L125.569149,30.9734043 L125.569149,64.1010638 C125.569149,73.7234043 130.835106,77.6489362 137.87234,77.6489362 C144.81383,77.6489362 150.175532,73.7234043 150.175532,64.1010638 L150.175532,30.9734043 L166.356383,30.9734043 L166.356383,65.537234 C166.356383,84.5425532 153,92.7287234 137.87234,92.7287234 L137.87234,92.7287234 Z M234.861702,52.8510638 L234.861702,91.1968085 L218.632979,91.1968085 L218.632979,58.0691489 C218.632979,49.3085106 214.324468,44.5691489 206.904255,44.5691489 C199.962766,44.5691489 194.170213,49.0212766 194.170213,58.1648936 L194.170213,91.1489362 L177.941489,91.1489362 L177.941489,30.9734043 L193.739362,30.9734043 L193.739362,38.0585106 C198.047872,31.643617 204.558511,29.3457447 211.452128,29.3457447 C225.095745,29.3457447 234.861702,38.8723404 234.861702,52.8510638 L234.861702,52.8510638 Z M306.335106,61.037234 C306.335106,70.2287234 312.367021,77.6489362 321.893617,77.6489362 C331.132979,77.6489362 337.452128,70.5638298 337.452128,61.037234 C337.452128,51.5106383 331.180851,44.4255319 321.893617,44.4255319 C312.367021,44.4255319 306.335106,51.8457447 306.335106,61.037234 L306.335106,61.037234 Z M336.925532,91.1968085 L336.925532,84.5425532 C332.952128,89.4734043 327.159574,92.7287234 318.925532,92.7287234 C302.265957,92.7287234 289.771277,79.1329787 289.771277,61.037234 C289.771277,42.9414894 302.265957,29.3457447 318.925532,29.3457447 C327.207447,29.3457447 332.952128,32.6489362 336.925532,37.6276596 L336.925532,30.9734043 L352.771277,30.9734043 L352.771277,91.1968085 L336.925532,91.1968085 Z M364.835106,30.9734043 L381.06383,30.9734043 L381.06383,91.1968085 L364.835106,91.1968085 L364.835106,30.9734043 Z M450,52.8510638 L450,91.1968085 L433.771277,91.1968085 L433.771277,58.0691489 C433.771277,49.3085106 429.462766,44.5691489 422.042553,44.5691489 C415.101064,44.5691489 409.308511,49.0212766 409.308511,58.1648936 L409.308511,91.1489362 L393.079787,91.1489362 L393.079787,30.9734043 L408.87766,30.9734043 L408.87766,38.0585106 C413.18617,31.643617 419.696809,29.3457447 426.590426,29.3457447 C440.281915,29.3457447 450,38.8723404 450,52.8510638 L450,52.8510638 Z M16.1808511,23.6968085 C16.1808511,18.0478723 18.5265957,15.2234043 23.2659574,15.2234043 C28.962766,15.2234043 34.9946809,16.9946809 34.9946809,16.9946809 L34.9946809,2.77659574 C31.3085106,1.19680851 27,0.143617021 21.5425532,0.143617021 C7.51595745,0.143617021 0,9.38297872 0,23.5053191 L0,91.1968085 L16.2287234,91.1968085 L16.2287234,45.3829787 L34.9468085,45.3829787 L34.9468085,30.9734043 L16.1808511,30.9734043 L16.1808511,23.6968085 Z M284.888298,74.3457447 C284.361702,74.6329787 277.851064,77.6489362 272.106383,77.6489362 C267.12766,77.6489362 263.106383,74.8723404 263.106383,67.4042553 L263.106383,45.3829787 L284.93617,45.3829787 L284.93617,30.9734043 L263.106383,30.9734043 L263.106383,13.0691489 L246.87766,13.0691489 L246.87766,68.6968085 C246.87766,84.3510638 254.441489,92.7287234 269.425532,92.7287234 C275.648936,92.7287234 280.62766,91.2925532 284.888298,89.0904255 L284.888298,74.3457447 L284.888298,74.3457447 Z M364.835106,2.7287234 L381.06383,2.7287234 L381.06383,18.9574468 L364.835106,18.9574468 L364.835106,2.7287234 Z" id="Shape"></path>
            </g>
        </g>
    </g>
</svg>
