<?xml version="1.0" encoding="UTF-8" standalone="no"?>
<svg width="550px" height="137px" viewBox="0 0 550 137" version="1.1" xmlns="http://www.w3.org/2000/svg" xmlns:xlink="http://www.w3.org/1999/xlink">
    <title>hearsay_logo</title>
    <defs></defs>
    <g id="Hiring-Vendor-Logos" stroke="none" stroke-width="1" fill="none" fill-rule="evenodd">
        <g id="hearsay logo" fill-rule="nonzero" fill="#CF0A2C">
            <g>
                <g id="Group" transform="translate(160.000000, 0.000000)">
                    <path d="M278.9,44.4 C282.2,41.4 286,39.1 290.4,37.5 C294.8,36 299.1,35.2 303.5,35.2 C308,35.2 311.9,35.8 315.2,36.9 C318.5,38 321.1,39.6 323.2,41.5 C325.3,43.4 326.7,45.6 327.7,48.1 C328.7,50.6 329,53.2 329,55.9 L329,87.5 C329,89.7 329.2,91.9 329.3,93.7 C329.4,95.5 329.7,98.6 329.9,100.7 L319.4,100.7 C319.1,96.5 319,93.3 319,89.1 L318.7,89.1 C316.1,93.3 313,96.1 309.4,97.7 C305.8,99.4 301.7,100.2 297,100.2 C294.1,100.2 291.4,99.8 288.8,99.1 C286.2,98.3 283.9,97.2 281.9,95.6 C279.9,94 278.4,92.1 277.3,89.8 C276.2,87.5 275.6,84.8 275.6,81.8 C275.6,77.8 276.5,74.4 278.3,71.7 C280.1,69 282.5,66.8 285.6,65.1 C288.7,63.4 292.3,62.3 296.5,61.5 C300.6,60.8 305.1,60.5 309.8,60.5 L318.5,60.5 L318.5,57.7 C318.5,56.1 318.2,54.6 317.6,53 C317,51.4 316.1,50 314.8,48.8 C313.6,47.5 312.1,46.5 310.2,45.8 C308.4,45.1 306.2,44.7 303.7,44.7 C301.4,44.7 299.5,44.9 297.8,45.4 C296.1,45.8 294.6,46.4 293.2,47 C291.8,47.7 290.5,48.4 289.4,49.3 C288.3,50.2 287.2,51 286.1,51.8 L278.9,44.4 Z M312.1,69 C309.3,69 306.5,69.1 303.5,69.4 C300.6,69.7 297.9,70.3 295.5,71.2 C293.1,72.1 291.1,73.3 289.6,74.9 C288.1,76.5 287.3,78.5 287.3,80.9 C287.3,84.5 288.5,87 290.9,88.6 C293.3,90.2 296.5,91 300.6,91 C303.8,91 306.6,90.5 308.8,89.4 C311.1,88.3 312.9,86.9 314.3,85.2 C315.7,83.5 316.7,81.5 317.3,79.4 C317.9,77.3 318.2,75.2 318.2,73.1 L318.2,69 L312.1,69 Z" id="Shape"></path>
                    <path d="M185.9,35.1 L197.8,35.1 L197.8,44.6 L197.6,44.6 C198.4,43.5 199.4,41.7 200.7,40.4 C202,39 203.5,38 205.1,37.1 C206.7,36.1 208.5,35.4 210.4,34.9 C212.3,34.3 214.2,34.1 216.2,34.1 C218.1,34.1 219.9,34.4 221.4,34.9 L221,47.5 C220,47.2 219.1,47 218.1,46.9 C217.1,46.7 216.2,46.6 215.2,46.6 C209.4,46.6 205.3,48.2 202.2,51.4 C199.1,54.6 197.8,59.6 197.8,66.4 L197.8,100.7 L185.9,100.7 L185.9,35.1 L185.9,35.1 Z" id="Shape"></path>
                    <path d="M260.5,52.4 C259.1,50.7 257.4,49.2 255.3,48 C253.3,46.8 250.7,46.2 247.8,46.2 C245,46.2 242.6,46.8 240.5,48 C238.5,49.2 237.4,50.9 237.4,53.2 C237.4,55 238,56.5 239.2,57.6 C240.4,58.7 241.8,59.6 243.4,60.3 C245,61 246.7,61.5 248.6,61.9 C250.4,62.2 252,62.6 253.3,62.8 C255.8,63.4 258.2,64.2 260.4,65 C262.6,65.9 264.5,67 266.2,68.4 C267.8,69.8 269.1,71.5 270,73.5 C270.9,75.5 271.4,77.9 271.4,80.8 C271.4,84.3 270.7,87.3 269.2,89.8 C267.7,92.3 265.8,94.3 263.4,95.9 C261,97.5 258.4,98.6 255.4,99.3 C252.4,100 249.4,100.3 246.3,100.3 C241.2,100.3 236.6,99.5 232.8,97.9 C228.9,96.3 225.5,93.5 222.4,89.3 L231.3,82 C233.2,83.9 235.4,85.6 237.7,87.1 C240.1,88.6 242.9,89.3 246.3,89.3 C247.8,89.3 249.3,89.1 250.8,88.8 C252.3,88.5 253.7,88 254.9,87.4 C256.1,86.7 257,85.9 257.8,84.9 C258.5,83.9 258.9,82.7 258.9,81.4 C258.9,79.7 258.4,78.2 257.3,77.1 C256.2,76 254.9,75.1 253.4,74.4 C251.9,73.7 250.3,73.2 248.6,72.8 C246.9,72.4 245.4,72.1 244.1,71.8 C241.6,71.2 239.2,70.5 236.9,69.7 C234.6,68.9 232.6,67.9 230.9,66.6 C229.2,65.3 227.8,63.6 226.7,61.6 C225.7,59.6 225.1,57.1 225.1,54.1 C225.1,50.9 225.8,48.1 227.1,45.7 C228.4,43.3 230.2,41.3 232.5,39.8 C234.7,38.2 237.2,37.1 240.1,36.3 C242.9,35.5 245.8,35.1 248.7,35.1 C252.9,35.1 256.9,35.9 260.7,37.5 C264.5,39.1 267.6,41.7 269.9,45.3 L260.5,52.4 Z" id="Shape"></path>
                    <path d="M54.3,100.5 L42.3,100.5 L42.3,62.9 C42.3,60.1 42.1,57.6 41.3,55.6 C40.5,53.6 39.6,51.9 38.3,50.7 C37,49.5 35.6,48.6 33.9,48 C32.2,47.4 30.5,47.2 28.7,47.2 C26.3,47.2 24.1,47.6 22,48.4 C19.9,49.2 18.1,50.4 16.6,52.1 C15.1,53.8 14.1,55.9 13.3,58.5 C12.4,61.1 12.3,64.1 12.3,67.6 L12.3,100.5 L0.3,100.5 L0.3,0.1 L12.3,0.1 L12.3,47.2 C13.2,43.9 16.3,41.3 19.9,39.3 C23.5,37.3 27.5,36.3 32.3,36.3 C35.2,36.3 38,36.8 40.7,37.7 C43.4,38.6 45.7,40 47.8,41.9 C49.8,43.8 51.4,46.2 52.6,49.2 C53.8,52.2 54.4,55.7 54.4,59.7 L54.4,100.5 L54.3,100.5 Z" id="Shape"></path>
                    <path d="M72.6,72.2 C72.6,75.4 73.2,77.3 74.4,79.6 C75.6,81.8 77.1,83.7 79,85.3 C80.9,86.9 83.1,88.1 85.7,89 C88.2,89.9 90.8,90.3 93.5,90.3 C97.2,90.3 100.3,89.4 103,87.7 C105.7,86 108.2,83.8 110.5,81 L119.4,87.8 C112.9,96.3 103.7,100.5 91.9,100.5 C87,100.5 82.6,99.7 78.6,98 C74.6,96.3 71.3,94.1 68.5,91.1 C65.8,88.2 63.6,84.7 62.2,80.8 C60.7,76.8 60,72.5 60,67.9 C60,63.3 60.8,59 62.4,55 C64,51 66.2,47.6 69.1,44.7 C71.9,41.8 75.3,39.5 79.2,37.8 C83.1,36.1 87.4,35.3 92,35.3 C97.5,35.3 102.1,36.3 105.9,38.2 C109.7,40.1 112.8,42.6 115.2,45.7 C117.6,48.8 119.1,52.3 120.2,56.2 C121.3,60.1 121.5,64 121.5,68 L121.5,72.2 L72.6,72.2 L72.6,72.2 Z M109.7,62.6 C109.6,59.4 109.2,57.6 108.5,55.4 C107.8,53.2 106.6,51.3 105.2,49.7 C103.7,48.1 101.9,46.8 99.6,45.9 C97.4,45 94.8,44.5 91.8,44.5 C88.9,44.5 86.3,45 83.9,46.1 C81.5,47.2 79.5,48.6 77.8,50.3 C76.1,52 74.9,54 73.9,56.1 C73,58.2 72.5,60.3 72.5,62.4 L109.7,62.4 L109.7,62.6 Z" id="Shape"></path>
                    <path d="M127.6,44.4 C130.9,41.4 134.7,39.1 139.1,37.5 C143.5,36 147.8,35.2 152.2,35.2 C156.7,35.2 160.6,35.8 163.9,36.9 C167.2,38 169.8,39.6 171.9,41.5 C174,43.4 175.4,45.6 176.4,48.1 C177.4,50.6 177.7,53.2 177.7,55.9 L177.7,87.5 C177.7,89.7 177.9,91.9 178,93.7 C178.1,95.5 178.4,98.6 178.6,100.7 L168.1,100.7 C167.8,96.5 167.7,93.3 167.7,89.1 L167.4,89.1 C164.8,93.3 161.7,96.1 158.1,97.7 C154.5,99.4 150.4,100.2 145.7,100.2 C142.8,100.2 140.1,99.8 137.5,99.1 C134.9,98.3 132.6,97.2 130.6,95.6 C128.6,94 127.1,92.1 126,89.8 C124.9,87.5 124.3,84.8 124.3,81.8 C124.3,77.8 125.2,74.4 127,71.7 C128.8,69 131.2,66.8 134.3,65.1 C137.4,63.4 141,62.3 145.2,61.5 C149.3,60.8 153.8,60.5 158.5,60.5 L167.2,60.5 L167.2,57.7 C167.2,56.1 166.9,54.6 166.3,53 C165.7,51.4 164.8,50 163.5,48.8 C162.3,47.5 160.8,46.5 158.9,45.8 C157.1,45.1 154.9,44.7 152.4,44.7 C150.1,44.7 148.2,44.9 146.5,45.4 C144.8,45.8 143.3,46.4 141.9,47 C140.5,47.7 139.2,48.4 138.1,49.3 C137,50.2 135.9,51 134.8,51.8 L127.6,44.4 Z M160.8,69 C158,69 155.2,69.1 152.2,69.4 C149.3,69.7 146.6,70.3 144.2,71.2 C141.8,72.1 139.8,73.3 138.3,74.9 C136.8,76.5 136,78.5 136,80.9 C136,84.5 137.2,87 139.6,88.6 C142,90.2 145.2,91 149.3,91 C152.5,91 155.3,90.5 157.5,89.4 C159.8,88.3 161.6,86.9 163,85.2 C164.4,83.5 165.4,81.5 166,79.4 C166.6,77.3 166.9,75.2 166.9,73.1 L166.9,69 L160.8,69 Z" id="Shape"></path>
                    <path d="M390,35.3 L378,35.3 L378,68.2 C378,71.7 377.9,74.8 377,77.3 C376.1,79.9 375.2,82 373.7,83.7 C372.2,85.4 370.4,86.6 368.3,87.4 C366.2,88.2 364,88.6 361.6,88.6 C359.8,88.6 358.1,88.3 356.4,87.8 C354.7,87.2 353.3,86.3 352,85.1 C350.7,83.9 349.8,82.2 349,80.2 C348.2,78.2 348,75.8 348,72.9 L348,35.3 L336,35.3 L336,62.3 L336,76.1 C336,80.1 336.6,83.6 337.8,86.6 C339,89.6 340.6,92 342.6,93.9 C344.6,95.8 346.9,97.2 349.7,98.1 C352.4,99 355.2,99.5 358.1,99.5 C362.8,99.5 366.9,98.5 370.5,96.5 C374.1,94.5 377.2,91.8 378.1,88.6 L378.1,107.3 C377.5,114.9 376.1,118.3 373.7,121 C370.8,124.1 366.8,125.6 360.4,126 L360.4,135.4 L361.8,135.4 C368.2,135.4 376.8,133.2 382.1,127.9 C388,121.9 390,113.6 390,100.8 L390,35.3 L390,35.3 Z" id="Shape"></path>
                </g>
                <path d="M135.8,68.2 C135.8,30.7 105.4,0.3 67.9,0.3 C30.4,0.3 0,30.7 0,68.2 C0,105.7 30.4,136.1 67.9,136.1 C81.7,136.1 94.5,132 105.2,125 L135.8,136.1 L124.7,105.5 C131.7,94.7 135.8,81.9 135.8,68.2 Z M92.5,113.1 L81.6,113.1 L81.6,79.1 C81.6,76.5 81.4,74.3 80.7,72.5 C80,70.7 79.1,69.2 78,68.1 C76.8,67 75.5,66.2 74,65.7 C72.5,65.2 70.9,64.9 69.3,64.9 C67.1,64.9 65.1,65.2 63.2,65.9 C61.3,66.6 59.7,67.7 58.3,69.2 C56.9,70.7 56.1,72.6 55.3,75 C54.5,77.3 54.4,80.1 54.4,83.3 L54.4,113.1 L43.6,113.1 L43.6,22.3 L54.5,22.3 L54.5,65 C55.3,62 58.1,59.7 61.4,57.8 C64.6,56 68.3,55 72.5,55 C75.1,55 77.6,55.4 80.1,56.2 C82.5,57 84.7,58.3 86.5,60 C88.3,61.7 89.8,63.9 90.9,66.6 C92,69.3 92.5,72.4 92.5,76.1 L92.5,113.1 Z" id="Shape"></path>
            </g>
        </g>
    </g>
</svg>
