<?xml version="1.0" encoding="UTF-8" standalone="no"?>
<svg width="300px" height="301px" viewBox="0 0 300 301" version="1.1" xmlns="http://www.w3.org/2000/svg" xmlns:xlink="http://www.w3.org/1999/xlink">
    <!-- Generator: Sketch 46.2 (44496) - http://www.bohemiancoding.com/sketch -->
    <title>Shape</title>
    <desc>Created with Sketch.</desc>
    <defs></defs>
    <g id="Hiring-Vendor-Logos" stroke="none" stroke-width="1" fill="none" fill-rule="evenodd">
        <g id="Artboard" fill-rule="nonzero" fill="#FFFFFF">
            <g id="hearsay_logo">
                <path d="M299.558824,150.441176 C299.558824,67.7205882 232.5,0.661764706 149.779412,0.661764706 C67.0588235,0.661764706 0,67.7205882 0,150.441176 C0,233.161765 67.0588235,300.220588 149.779412,300.220588 C180.220588,300.220588 208.455882,291.176471 232.058824,275.735294 L299.558824,300.220588 L275.073529,232.720588 C290.514706,208.897059 299.558824,180.661765 299.558824,150.441176 Z M204.044118,249.485294 L180,249.485294 L180,174.485294 C180,168.75 179.558824,163.897059 178.014706,159.926471 C176.470588,155.955882 174.485294,152.647059 172.058824,150.220588 C169.411765,147.794118 166.544118,146.029412 163.235294,144.926471 C159.926471,143.823529 156.397059,143.161765 152.867647,143.161765 C148.014706,143.161765 143.602941,143.823529 139.411765,145.367647 C135.220588,146.911765 131.691176,149.338235 128.602941,152.647059 C125.514706,155.955882 123.75,160.147059 121.985294,165.441176 C120.220588,170.514706 120,176.691176 120,183.75 L120,249.485294 L96.1764706,249.485294 L96.1764706,49.1911765 L120.220588,49.1911765 L120.220588,143.382353 C121.985294,136.764706 128.161765,131.691176 135.441176,127.5 C142.5,123.529412 150.661765,121.323529 159.926471,121.323529 C165.661765,121.323529 171.176471,122.205882 176.691176,123.970588 C181.985294,125.735294 186.838235,128.602941 190.808824,132.352941 C194.779412,136.102941 198.088235,140.955882 200.514706,146.911765 C202.941176,152.867647 204.044118,159.705882 204.044118,167.867647 L204.044118,249.485294 Z" id="Shape"></path>
            </g>
        </g>
    </g>
</svg>