<?xml version="1.0" encoding="UTF-8" standalone="no"?>
<svg width="301px" height="300px" viewBox="0 0 301 300" version="1.1" xmlns="http://www.w3.org/2000/svg" xmlns:xlink="http://www.w3.org/1999/xlink">
    <!-- Generator: Sketch 46.2 (44496) - http://www.bohemiancoding.com/sketch -->
    <title>Group</title>
    <desc>Created with Sketch.</desc>
    <defs></defs>
    <g id="Hiring-Vendor-Logos" stroke="none" stroke-width="1" fill="none" fill-rule="evenodd">
        <g id="Artboard-2-Copy" transform="translate(-1.000000, -1.000000)" fill="#FFFFFF">
            <g id="Group" transform="translate(1.000000, 1.000000)">
                <path d="M229.831935,70.6607565 L165.656182,6.48500272 L165.656182,6.48500272 C157.009511,-2.16166757 142.990489,-2.16166757 134.343818,6.48500272 L134.343818,6.48500272 L70.1680647,70.6607565 L122.32352,70.6607565 L122.32352,120.800006 L177.67648,120.800006 L177.67648,70.6607565 L229.831935,70.6607565 Z" id="Combined-Shape-Copy-2"></path>
                <path d="M230.464531,228.307234 L165.741771,293.029995 C157.095101,301.676665 143.076078,301.676665 134.429408,293.029995 L69.7066478,228.307234 L122.409109,228.307234 L122.409109,178.167984 L177.76207,178.167984 L177.76207,228.307234 L230.464531,228.307234 L230.464531,228.307234 Z" id="Combined-Shape-Copy-3"></path>
                <path d="M66.9705591,225.656735 L6.48500272,165.171179 C-2.16166757,156.524509 -2.16166757,142.505486 6.48500272,133.858816 L66.9705591,73.3732594 L66.9705591,225.656735 Z" id="Combined-Shape-Copy"></path>
                <path d="M233.058882,73.3732594 L293.544438,133.858816 C302.191108,142.505486 302.191108,156.524509 293.544438,165.171179 L233.058882,225.656735 L233.058882,73.3732594 L233.058882,73.3732594 Z" id="Combined-Shape"></path>
            </g>
        </g>
    </g>
</svg>