<?xml version="1.0" encoding="UTF-8" standalone="no"?>
<svg width="301px" height="300px" viewBox="0 0 301 300" version="1.1" xmlns="http://www.w3.org/2000/svg" xmlns:xlink="http://www.w3.org/1999/xlink">
    <!-- Generator: Sketch 46.2 (44496) - http://www.bohemiancoding.com/sketch -->
    <title>Group</title>
    <desc>Created with Sketch.</desc>
    <defs></defs>
    <g id="Hiring-Vendor-Logos" stroke="none" stroke-width="1" fill="none" fill-rule="evenodd">
        <g id="Artboard-2-Copy" transform="translate(-171.000000, -38.000000)">
            <g id="Group" transform="translate(171.000000, 38.000000)">
                <path d="M229.831935,70.6607565 L165.656182,6.48500272 L165.656182,6.48500272 C157.009511,-2.16166757 142.990489,-2.16166757 134.343818,6.48500272 L134.343818,6.48500272 L70.1680647,70.6607565 L122.32352,70.6607565 L122.32352,120.800006 L177.67648,120.800006 L177.67648,70.6607565 L229.831935,70.6607565 Z M230.378942,228.792237 L230.378942,228.792237 L230.378942,228.792237" id="Combined-Shape-Copy-2" fill="#03A9F4"></path>
                <path d="M165.741771,6 L165.741771,6 M134.429408,6 L134.429408,6 M230.464531,228.307234 L165.741771,293.029995 C157.095101,301.676665 143.076078,301.676665 134.429408,293.029995 L69.7066478,228.307234 L122.409109,228.307234 L122.409109,178.167984 L177.76207,178.167984 L177.76207,228.307234 L230.464531,228.307234 L230.464531,228.307234 Z M67,73.4294079 L67.0561485,73.3732594 M67.0561485,225.656735 L67.0561485,225.656735 L67.0561485,225.656735" id="Combined-Shape-Copy-3" fill="#E91F63"></path>
                <path d="M165.656182,6 L165.656182,6 M134.343818,6 L134.343818,6 M230.378942,228.307234 L230.378942,228.307234 L230.378942,228.307234 M66.9705591,225.656735 L6.48500272,165.171179 C-2.16166757,156.524509 -2.16166757,142.505486 6.48500272,133.858816 L66.9705591,73.3732594 L66.9705591,225.656735 Z" id="Combined-Shape-Copy" fill="#4CAF50"></path>
                <path d="M165.685622,6 L165.685622,6 M134.373259,6 L134.373259,6 M229.861376,70.1757537 L229.861376,70.1757537 M233.058882,73.3732594 L293.544438,133.858816 C302.191108,142.505486 302.191108,156.524509 293.544438,165.171179 L233.058882,225.656735 L233.058882,73.3732594 L233.058882,73.3732594 Z M230.408383,228.307234 L230.408383,228.307234 L230.408383,228.307234 M67,225.656735 L67,225.656735 L67,225.656735" id="Combined-Shape" fill="#FFC108"></path>
            </g>
        </g>
    </g>
</svg>