<?xml version="1.0" encoding="UTF-8" standalone="no"?>
<svg width="100px" height="152px" viewBox="0 0 100 152" version="1.1" xmlns="http://www.w3.org/2000/svg" xmlns:xlink="http://www.w3.org/1999/xlink">
    <title>isometric</title>
    <defs></defs>
    <g id="Page-1" stroke="none" stroke-width="1" fill="none" fill-rule="evenodd">
        <g id="Artboard-24-Copy" transform="translate(-827.000000, -693.000000)" fill="#FFFFFF">
            <g id="Group-2" transform="translate(827.000000, 693.000000)">
                <path d="M46.185544,102.653736 C46.5719717,102.430909 46.8764027,102.120506 47.0882272,101.762038 L44.9367089,100.488 L2.50533138,124.955343 L5.01364045,126.394824 L46.185544,102.653736 Z M96.891678,131.254126 L61,110 L58.8488609,108.726187 C58.1453601,109.914216 58.5381363,111.447606 59.7261602,112.151123 L94.3929605,132.679908 L96.891678,131.254126 Z M94.3929605,132.679908 L96.8683711,134.145782 L77.1072488,145.421592 C63.4528743,153.212856 46.6855854,153.19216 33.0505418,145.367212 L2.50830907,127.839481 L5.01364045,126.394824 L34.2949023,143.198902 C47.161226,150.582693 62.98368,150.602223 75.8682486,143.250215 L94.3929605,132.679908 Z M99.3670886,132.72 L96.891678,134.145782 L94.3929605,132.72 C95.4079616,131.74275 96.2408675,131.254126 96.891678,131.254126 C97.5424886,131.254126 98.3676255,131.74275 99.3670886,132.72 Z M1.24733821,127.115829 L0,126.4 L1.24585746,125.681597 L1.24733821,127.115829 Z M46.185544,102.653736 C46.5719717,102.430909 46.8764027,102.120506 47.0882272,101.762038 L44.9367089,100.488 L2.50533138,124.955343 L5.01364045,126.394824 L46.185544,102.653736 Z M96.891678,131.254126 L61,110 L58.8488609,108.726187 C58.1453601,109.914216 58.5381363,111.447606 59.7261602,112.151123 L94.3929605,132.679908 L96.891678,131.254126 Z M96.8683711,134.145782 L77.1072488,145.421592 C63.4528743,153.212856 46.6855854,153.19216 33.0505418,145.367212 L2.50830907,127.839481 L5.01364045,126.394824 L34.2949023,143.198902 C47.161226,150.582693 62.98368,150.602223 75.8682486,143.250215 L94.3929605,132.679908 L96.8683711,134.145782 Z M98.1165557,131.979467 L99.3670886,132.72 L98.1047815,133.44028 L98.1165557,131.979467 Z M0,126.4 L1.24733821,127.115829 L1.24585746,125.681597 L0,126.4 Z" id="Path-25" fill-rule="nonzero"></path>
                <path d="M44.6994356,69.5145281 L45.5696203,0 L77.7802783,18.7001597 C91.5216692,26.6778361 99.9386406,41.4033681 99.8391913,57.2923345 L99.8391913,57.2923345 L99.3670886,132.72 L58.5993253,109.32399 L58.8394464,80.3111705 L58.8394464,80.3111705 C58.852623,78.7191022 58.0105223,77.2423879 56.6336201,76.4430161 L44.6994356,69.5145281 Z" id="Combined-Shape"></path>
                <path d="M54.6106062,136.223999 L55.041978,84.1031705 L55.041978,84.1031705 C55.0551546,82.5111022 54.2130539,81.0343879 52.8361517,80.2350161 L0.632911392,49.928 L0,126.4 L35.5973785,147.066348 L35.5973785,147.066348 C41.6433,150.576357 49.3899122,148.520593 52.8999211,142.474672 C54.0028762,140.574853 54.5924255,138.420699 54.6106062,136.223999 Z" id="Path-26"></path>
            </g>
        </g>
    </g>
</svg>
