<?xml version="1.0" encoding="UTF-8" standalone="no"?>
<svg width="299px" height="301px" viewBox="0 0 299 301" version="1.1" xmlns="http://www.w3.org/2000/svg" xmlns:xlink="http://www.w3.org/1999/xlink">
    <!-- Generator: Sketch 46.2 (44496) - http://www.bohemiancoding.com/sketch -->
    <title>Combined Shape</title>
    <desc>Created with Sketch.</desc>
    <defs></defs>
    <g id="Hiring-Vendor-Logos" stroke="none" stroke-width="1" fill="none" fill-rule="evenodd">
        <g id="Artboard-7" fill="#FFFFFF">
            <path d="M264,224.599983 L296.660825,257.260808 C299.779421,260.379404 299.785827,265.433668 296.675146,268.560159 L267.24959,298.13527 C267.244822,298.140062 267.240048,298.144848 267.235269,298.149627 C264.111074,301.273822 259.045755,301.273822 255.92156,298.149627 L221.771933,264 L186,264 L16,264 C7.163444,264 1.082166e-15,256.836556 0,248 L0,16 L0,16 C-1.082166e-15,7.163444 7.163444,7.97829684e-14 16,7.81597009e-14 L16,8.52651283e-14 L248,8.52651283e-14 C256.836556,8.36418608e-14 264,7.163444 264,16 L264,224.599983 Z M208,168.599983 L208,56 L56,56 L56,210 L134,210 L188,264 L221.771933,264 L131.485124,173.713191 L132,132 L172.303358,132.903341 L208,168.599983 Z" id="Combined-Shape"></path>
        </g>
    </g>
</svg>