<?xml version="1.0" encoding="UTF-8" standalone="no"?>
<svg width="302px" height="57px" viewBox="0 0 302 57" version="1.1" xmlns="http://www.w3.org/2000/svg" xmlns:xlink="http://www.w3.org/1999/xlink">
    <title>remind_logo_bordered</title>
    <defs></defs>
    <g id="Page-1" stroke="none" stroke-width="1" fill="none" fill-rule="evenodd">
        <g id="Artboard-34" transform="translate(-132.000000, -412.000000)" fill-rule="nonzero">
            <g id="remind_logo" transform="translate(134.000000, 412.000000)">
                <path d="M97.5867188,15.1219444 C95.6765626,14.6345833 93.7937501,14.3771528 91.8289064,14.3771528 C83.6335936,14.3771528 78.9062501,19.2225 78.9062501,27.3388194 L78.9062501,47.0891666 C78.9062501,47.8347221 79.0492186,48.125 79.8117188,48.125 L83.8179687,48.125 C84.5804686,48.125 85.1562499,47.8347221 85.1562499,47.0891666 L85.1562499,27.0936111 C85.1562499,21.0390278 90.1367187,20.3851389 92.2999999,20.3851389 C93.4257813,20.3851389 94.8304688,20.5898611 96.2351564,20.9534722 C97.0476562,21.0680556 97.5687499,20.7220139 97.6617188,20.0650694 L98.4874999,16.6504861 C98.7882813,15.6192361 97.9164063,15.2563889 97.5867188,15.1219444 Z M119.474219,14.0509722 C108.734375,14.0509722 101.794531,20.9649306 101.794531,31.6639584 C101.794531,42.3629861 108.734375,49.2769445 119.474219,49.2769445 C125.092187,49.2769445 129.665625,47.374861 133.077344,43.6104166 C133.279688,43.3629166 133.361719,43.0657639 133.308594,42.7739584 C133.250781,42.4645834 133.044531,42.185 132.723437,41.9970834 L129.282031,40.274514 C128.577344,39.9788889 127.930469,40.0942361 127.439063,40.5747221 C125.550781,42.2621529 122.572656,43.2689584 119.474219,43.2689584 C112.982813,43.2689584 108.946094,39.4739584 108.321094,32.8472221 L135.917969,32.8472221 C136.511719,32.8472221 137.035937,32.663125 137.135938,32.0947916 C137.152344,32.003889 137.153906,31.3996529 137.153906,31.392014 C137.15625,25.9897917 135.388281,21.5569444 132.039062,18.4547917 C128.884375,15.5336806 124.539844,14.0509722 119.474219,14.0509722 Z M108.776563,27.5 C108.785156,27.4717361 108.792969,27.4411806 108.801563,27.4136806 C110.189844,22.6706944 113.979688,20.0910417 119.474219,20.0910417 C124.869531,20.0910417 128.617969,22.1527778 130.071875,27.5 L108.776563,27.5 Z M213.607031,15.2777778 L209.049219,15.2777778 C208.366406,15.2777778 207.8125,15.8186111 207.8125,16.48625 L207.8125,46.9165279 C207.8125,47.5841666 208.366406,48.125 209.049219,48.125 L213.607031,48.125 C214.289844,48.125 214.84375,47.5841666 214.84375,46.9165279 L214.84375,16.48625 C214.84375,15.8186111 214.289844,15.2777778 213.607031,15.2777778 Z M299.072656,0 L295.066407,0 C294.303905,0 293.749999,0.782222221 293.749999,1.52777778 L293.749999,17.39375 C291.226563,14.4894444 286.935155,13.3756944 282.346876,13.2870833 C282.163282,13.2825 282.00078,13.2809722 281.818751,13.2809722 C271.558594,13.2809722 264.939844,20.1972222 264.939844,30.9000695 C264.939844,41.105625 272.225781,48.5130555 282.470313,48.5130555 C293.04453,48.5130555 300,41.4348611 300,30.9000695 L300,1.52777778 C300,0.782222221 299.835155,0 299.072656,0 Z M282.629686,42.5050695 C275.616406,42.5050695 271.428125,38.1669445 271.428125,30.9000695 C271.428125,23.5247222 275.510937,19.2950694 282.629686,19.2950694 C289.602344,19.2950694 293.580469,23.4208333 293.83047,30.9000695 C293.83047,38.1669445 289.643749,42.5050695 282.629686,42.5050695 Z M182.598437,14.0509722 C177.4125,14.0509722 173.225781,15.9866667 170.796094,19.5127778 C168.197656,15.9370139 164.004688,14.0509722 158.896875,14.0509722 C149.498438,14.0509722 143.75,19.7503472 143.75,29.2974305 L143.75,47.0891666 C143.75,47.8347221 144.475,48.125 145.2375,48.125 L149.24375,48.125 C150.00625,48.125 150.78125,47.8347221 150.78125,47.0891666 L150.78125,29.2974305 C150.78125,21.6623611 155.483594,20.0589583 159.375,20.0589583 C162.303906,20.0589583 167.1875,23.0679167 167.1875,26.565 L167.1875,47.0677779 C167.1875,47.7346529 167.741406,48.125 168.424219,48.125 L172.982031,48.125 C173.664844,48.125 174.21875,47.7346529 174.21875,47.0677779 L174.21875,26.5382639 C174.21875,22.900625 178.057031,20.0589583 182.03125,20.0589583 C185.922656,20.0589583 190.625,21.6623611 190.625,29.2974305 L190.625,47.0891666 C190.625,47.8347221 191.551562,48.125 192.314063,48.125 L196.320313,48.125 C197.082812,48.125 197.65625,47.8347221 197.65625,47.0891666 L197.65625,29.2974305 C197.65625,19.7503472 191.996094,14.0509722 182.598437,14.0509722 Z M241.015625,14.0509722 C230.834375,14.0540278 224.21875,20.4263889 224.21875,30.683889 L224.21875,47.0891666 C224.21875,47.8347221 225.122656,48.125 225.884375,48.125 L229.891406,48.125 C230.654687,48.125 231.25,47.8347221 231.25,47.0891666 L231.25,30.683889 C231.25,21.319375 238.29375,20.9236806 241.015625,20.83125 C243.7375,20.9236806 250.78125,21.319375 250.78125,30.683889 L250.78125,47.0891666 C250.78125,47.8347221 251.364062,48.125 252.126563,48.125 L256.134375,48.125 C256.896094,48.125 257.8125,47.8347221 257.8125,47.0891666 L257.8125,30.683889 C257.8125,20.4263889 251.196094,14.0540278 241.015625,14.0509722 Z" id="Fill-19" fill="#FFFFFF"></path>
                <path d="M53.4578125,12.0419444 C49.5460936,7.17368055 42.1249999,3.8851389 33.6070312,3.8851389 C23.1507812,3.8851389 14.3453125,8.83895834 11.6617187,15.5894444 C5.00312501,17.9124306 0.23671875,24.1297222 0.23671875,31.4378471 C0.23671875,40.7297916 7.940625,48.2625 17.4445312,48.2625 C20.8046875,48.2625 23.9382812,47.3168055 26.5882813,45.6881945 L27.403125,53.02 C27.590625,54.7066666 29.7921875,55.2986805 30.8359375,53.9435416 L38.2882814,44.26125 C38.8562501,44.3490971 39.4335938,44.4079166 40.0273437,44.4079166 C44.728125,44.4079166 48.7335938,41.5341666 50.3328125,37.490139 C58.4257814,37.022639 64.8218749,31.411875 64.8218749,24.5414583 C64.8218749,18.5846528 60.0109375,13.5758333 53.4578125,12.0419444" id="Fill-18" stroke="#FFFFFF" stroke-width="2.72727273" fill="#4A89DC"></path>
            </g>
        </g>
    </g>
</svg>
