<?xml version="1.0" encoding="UTF-8" standalone="no"?>
<svg width="345px" height="300px" viewBox="0 0 345 300" version="1.1" xmlns="http://www.w3.org/2000/svg" xmlns:xlink="http://www.w3.org/1999/xlink">
    <!-- Generator: Sketch 46.2 (44496) - http://www.bohemiancoding.com/sketch -->
    <title>Combined Shape</title>
    <desc>Created with Sketch.</desc>
    <defs></defs>
    <g id="Hiring-Vendor-Logos" stroke="none" stroke-width="1" fill="none" fill-rule="evenodd">
        <g id="Artboard-9" fill="#FFFFFF">
            <path d="M242.862848,233.821445 C249.031284,212.012236 269.083096,196.032121 292.867265,196.032121 C321.564158,196.032121 344.827586,219.295549 344.827586,247.992442 C344.827586,276.689335 321.564158,299.952763 292.867265,299.952763 C269.950297,299.952763 250.498474,285.116714 243.592453,264.525272 L193.670288,264.525272 L134.624469,170.05196 L101.235133,170.05196 C94.3291125,190.643402 74.8772894,205.479452 51.9603212,205.479452 C23.2634282,205.479452 0,182.216024 0,153.519131 C0,124.822238 23.2634282,101.55881 51.9603212,101.55881 C75.7444898,101.55881 95.7963025,117.538925 101.964738,139.348134 L134.624469,139.348134 L193.670288,37.7893245 L242.862848,37.7893245 C249.031284,15.9801153 269.083096,0 292.867265,0 C321.564158,0 344.827586,23.2634282 344.827586,51.9603212 C344.827586,80.6572142 321.564158,103.920642 292.867265,103.920642 C269.950297,103.920642 250.498474,89.0845926 243.592453,68.4931507 L210.203118,68.4931507 L160.604629,153.519131 L210.203118,233.821445 L242.862848,233.821445 Z M51.9603212,179.499291 C66.3087677,179.499291 77.9404818,167.867577 77.9404818,153.519131 C77.9404818,139.170684 66.3087677,127.53897 51.9603212,127.53897 C37.6118747,127.53897 25.9801606,139.170684 25.9801606,153.519131 C25.9801606,167.867577 37.6118747,179.499291 51.9603212,179.499291 Z M292.867265,77.9404818 C307.215711,77.9404818 318.847426,66.3087677 318.847426,51.9603212 C318.847426,37.6118747 307.215711,25.9801606 292.867265,25.9801606 C278.518818,25.9801606 266.887104,37.6118747 266.887104,51.9603212 C266.887104,66.3087677 278.518818,77.9404818 292.867265,77.9404818 Z M292.867265,273.972603 C307.215711,273.972603 318.847426,262.340889 318.847426,247.992442 C318.847426,233.643996 307.215711,222.012282 292.867265,222.012282 C278.518818,222.012282 266.887104,233.643996 266.887104,247.992442 C266.887104,262.340889 278.518818,273.972603 292.867265,273.972603 Z" id="Combined-Shape"></path>
        </g>
    </g>
</svg>