<?xml version="1.0" encoding="UTF-8"?>
<svg width="281px" height="290px" viewBox="0 0 281 290" version="1.1" xmlns="http://www.w3.org/2000/svg" xmlns:xlink="http://www.w3.org/1999/xlink">
    <!-- Generator: Sketch 46.2 (44496) - http://www.bohemiancoding.com/sketch -->
    <title>symantec_logo</title>
    <desc>Created with Sketch.</desc>
    <defs>
        <path d="M272.269543,0.385638298 L272.269543,9.28498363 L281.176056,9.28498363 L281.176056,0.385638298 L272.269543,0.385638298 Z M272.269543,18.184329 L272.269543,27.0836743 L281.176056,27.0836743 L281.176056,18.184329 L272.269543,18.184329 Z M245.550003,27.0836743 L245.550003,35.9830196 L254.456516,35.9830196 L254.456516,27.0836743 L245.550003,27.0836743 Z" id="path-1"></path>
        <filter x="-23.9%" y="-18.3%" width="147.7%" height="147.8%" filterUnits="objectBoundingBox" id="filter-2">
            <feOffset dx="0" dy="2" in="SourceAlpha" result="shadowOffsetOuter1"></feOffset>
            <feGaussianBlur stdDeviation="2.5" in="shadowOffsetOuter1" result="shadowBlurOuter1"></feGaussianBlur>
            <feColorMatrix values="0 0 0 0 0   0 0 0 0 0   0 0 0 0 0  0 0 0 0.237064085 0" type="matrix" in="shadowBlurOuter1"></feColorMatrix>
        </filter>
        <radialGradient cx="82.565254%" cy="12.5922021%" fx="82.565254%" fy="12.5922021%" r="98.5816298%" gradientTransform="translate(0.825653,0.125922),scale(0.999195,1.000000),rotate(132.847307),translate(-0.825653,-0.125922)" id="radialGradient-3">
            <stop stop-color="#FFFFFF" stop-opacity="0" offset="0%"></stop>
            <stop stop-color="#FDB511" offset="100%"></stop>
        </radialGradient>
        <linearGradient x1="24.1604842%" y1="95.1521891%" x2="100%" y2="0%" id="linearGradient-4">
            <stop stop-color="#000000" offset="0%"></stop>
            <stop stop-color="#FDB511" offset="100%"></stop>
        </linearGradient>
    </defs>
    <g id="Hiring-Vendor-Logos" stroke="none" stroke-width="1" fill="none" fill-rule="evenodd">
        <g id="Artboard-10-Copy" fill-rule="nonzero">
            <g id="symantec_logo" transform="translate(-1.000000, 0.000000)">
                <g id="rect3886">
                    <use fill="black" fill-opacity="1" filter="url(#filter-2)" xlink:href="#path-1"></use>
                    <use fill="#FDB511" fill-rule="evenodd" xlink:href="#path-1"></use>
                </g>
                <path d="M129.027077,33.7581833 C58.3062654,33.7581833 0.995952431,91.0223854 0.995952431,161.686273 C0.995952431,232.35016 58.3062654,289.614362 129.027077,289.614362 C199.747891,289.614362 257.058204,232.35016 257.058204,161.686273 C257.058204,137.639884 250.42173,115.145166 238.878675,95.9306203 C226.421969,75.195214 208.251217,58.279793 186.540456,47.3566465 C169.248782,38.656837 149.711529,33.7581833 129.027077,33.7581833 Z M129.027077,74.5468494 C142.947605,74.5468494 156.112495,77.8156784 167.793942,83.6261127 C184.80947,92.0897569 198.677478,105.946095 207.148584,122.947549 C212.964652,134.620358 216.236686,147.775738 216.236686,161.686273 C216.236686,209.766825 177.146391,248.825696 129.027077,248.825696 C80.9077658,248.825696 42.188576,209.766825 42.188576,161.686273 C42.188576,113.60572 80.9077658,74.5468494 129.027077,74.5468494 Z" id="path3095" fill="url(#radialGradient-3)"></path>
                <path d="M174.301853,98.278437 L165.395339,98.278437 C142.147915,127.310356 136.289234,140.058134 127.027708,163.531047 C116.519673,142.29448 103.978981,127.638327 82.2678853,117.931158 C78.1550238,116.882222 76.1325447,116.273744 73.3613721,120.155994 C70.5901996,124.038245 72.2705024,127.531178 75.5880004,131.650982 C84.2815292,142.446837 94.0510693,152.421461 100.823119,164.652721 C108.76229,178.991939 118.646904,202.625041 121.976088,208.778642 C124.623875,213.672807 131.027492,215.823957 133.480334,215.823957 C146.619376,214.270368 146.623948,207.596097 149.128519,196.026473 C153.189961,177.054018 158.450159,157.439742 183.208366,133.875818 L183.208366,124.976473 L192.114879,124.976473 L192.114879,116.077128 L201.021392,116.077128 L201.021392,107.177782 L209.927905,107.177782 L209.927905,98.278437 L201.021392,98.278437 L201.021392,89.3790917 L209.927905,89.3790917 L209.927905,98.278437 L218.834419,98.278437 L218.834419,89.3790917 L227.740932,89.3790917 L227.740932,80.4797463 L236.647445,80.4797463 L236.647445,71.580401 L245.553958,71.580401 L245.553958,53.7817103 L236.647445,53.7817103 L236.647445,62.6810556 L227.740932,62.6810556 L227.740932,53.7817103 L209.927905,53.7817103 L209.927905,62.6810556 L201.021392,62.6810556 L201.021392,71.580401 L209.927905,71.580401 L209.927905,80.4797463 L201.021392,80.4797463 L201.021392,71.580401 L192.114879,71.580401 L192.114879,80.4797463 L183.208366,80.4797463 L183.208366,89.3790917 L174.301853,89.3790917 L174.301853,98.278437 Z M263.366985,9.28498363 L272.273498,9.28498363 L272.273498,18.184329 L263.366985,18.184329 L263.366985,9.28498363 Z M263.366985,18.184329 L263.366985,27.0836743 L245.553958,27.0836743 L245.553958,18.184329 L263.366985,18.184329 Z M245.553958,27.0836743 L245.553958,44.882365 L236.647445,44.882365 L236.647445,27.0836743 L245.553958,27.0836743 Z M245.553958,44.882365 L254.460471,44.882365 L254.460471,53.7817103 L245.553958,53.7817103 L245.553958,44.882365 Z M254.460471,44.882365 L254.460471,35.9830196 L263.366985,35.9830196 L263.366985,44.882365 L254.460471,44.882365 Z M227.740932,53.7817103 L227.740932,44.882365 L236.647445,44.882365 L236.647445,53.7817103 L227.740932,53.7817103 Z M227.740932,44.882365 L218.834419,44.882365 L218.834419,35.9830196 L227.740932,35.9830196 L227.740932,44.882365 Z" id="Combined-Shape" fill="url(#linearGradient-4)"></path>
            </g>
        </g>
    </g>
</svg>