<?xml version="1.0" encoding="UTF-8" standalone="no"?>
<svg width="280px" height="234px" viewBox="0 0 280 234" version="1.1" xmlns="http://www.w3.org/2000/svg" xmlns:xlink="http://www.w3.org/1999/xlink">
    <!-- Generator: Sketch 46.2 (44496) - http://www.bohemiancoding.com/sketch -->
    <title>Shape</title>
    <desc>Created with Sketch.</desc>
    <defs></defs>
    <g id="Hiring-Vendor-Logos" stroke="none" stroke-width="1" fill="none" fill-rule="evenodd">
        <g id="Artboard-4" fill-rule="nonzero" fill="#FFFFFF">
            <g id="tr">
                <path d="M275.365923,116.016569 C248.651182,71.347625 239.444407,103.557884 210.918497,57.5215231 C188.278886,20.2974028 153.18749,-6.21528704 136.207781,1.53340741 C135.770638,1.70267549 135.482194,2.12546929 135.482194,2.5969537 C135.482194,3.06843812 135.770638,3.49123191 136.207781,3.6605 C153.036559,10.5735509 189.03354,40.8086528 204.805802,71.2716574 C204.940608,71.4887823 204.950105,71.7618106 204.830716,71.9878953 C204.711326,72.21398 204.481188,72.3587734 204.226993,72.3677333 C203.972797,72.3766931 203.733162,72.2484582 203.598357,72.0313333 C184.279222,47.4178333 124.586114,0.773731481 114.322824,8.97823148 C105.870703,15.7393472 150.772598,58.661037 187.373302,77.3490648 C187.778923,77.5448556 188.088258,77.8979564 188.230511,78.3275535 C188.372763,78.7571506 188.335755,79.2264677 188.127956,79.6280926 C186.467718,82.6667963 182.392588,87.2248519 171.223713,86.8450139 C151.904578,86.8450139 133.491028,58.1292639 91.6832131,57.5974907 C66.0032747,57.2572521 41.4924425,68.3841752 24.7454302,87.9845278 C24.4387088,88.2392439 23.9956364,88.2392439 23.688915,87.9845278 C16.2973442,84.0568687 7.15117673,86.4243921 2.55861144,93.4541944 C-1.92556603,100.696096 0.112379828,110.21375 7.16199899,114.953023 C7.8080387,115.343112 8.09198906,116.137112 7.84118732,116.852213 C4.79192144,126.43053 3.21410413,136.421561 3.1623344,146.479574 C3.53485534,194.612063 42.3582397,233.456547 90.1739058,233.538435 C106.659606,233.778242 122.842838,229.070798 136.660574,220.016204 C150.017944,211.887671 159.828442,201.176241 157.262619,193.427546 C153.564816,182.184343 137.415227,185.830787 121.039242,192.288032 C120.584325,192.41423 120.101433,192.22145 119.856083,191.815694 C119.610734,191.409937 119.662422,190.889595 119.982727,190.540778 C133.937745,175.936042 137.873006,154.350394 129.979024,135.709192 C122.085043,117.06799 103.889661,104.979148 83.7593493,105.001269 C63.2334383,103.784458 44.2829448,116.072129 36.8953547,135.388306 C36.7286412,136.03862 36.0697948,136.429756 35.42378,136.261933 C34.7777652,136.09411 34.3892148,135.430879 34.5559282,134.780565 C39.7898623,110.659449 60.4668307,93.085468 84.9667952,91.9348426 C105.280896,90.6911977 124.594127,100.932143 135.064956,118.499663 C145.535785,136.067184 145.423596,158.040946 134.773939,175.499194 C134.349938,176.116085 134.410162,176.94701 134.918623,177.495415 C135.427083,178.043819 136.246406,178.161538 136.88697,177.778222 C142.885978,174.418744 148.209396,169.961628 152.583767,164.635829 C152.727025,164.472308 152.933171,164.378631 153.149757,164.378631 C153.366343,164.378631 153.572489,164.472308 153.715747,164.635829 C180.88328,194.56706 215.672816,195.022866 216.5784,183.475792 C217.634915,170.257431 184.052826,178.841769 181.939795,146.023769 C181.939795,145.736025 182.101293,145.472977 182.356958,145.344294 C182.612622,145.215611 182.918568,145.243381 183.147241,145.416028 C185.155338,147.073882 187.902871,147.494565 190.309814,146.512711 C192.716758,145.530857 194.3983,143.303441 194.693443,140.706037 C194.742589,140.445465 194.923177,140.229561 195.169875,140.136433 C195.416573,140.043306 195.693659,140.08644 195.900889,140.250231 C210.39024,154.456171 225.105987,155.44375 245.179775,153.924398 C273.856616,152.329079 287.213986,136.451852 275.365923,116.016569 Z M249.330371,116.016569 C245.385764,115.825783 242.037183,113.042499 241.104645,109.179486 C240.677014,107.395776 241.105614,105.513432 242.262294,104.09528 C243.418975,102.677127 245.169679,101.887524 246.990944,101.962565 C251.104748,102.129604 254.56845,105.113762 255.3676,109.179486 C255.809823,111.004254 255.354678,112.931796 254.144084,114.361077 C252.933491,115.790358 251.114725,116.547497 249.254905,116.396407 L249.330371,116.016569 Z" id="Shape"></path>
            </g>
        </g>
    </g>
</svg>