<svg width="300px" height="312px" viewBox="0 0 300 312" version="1.1" xmlns="http://www.w3.org/2000/svg" xmlns:xlink="http://www.w3.org/1999/xlink">
    <defs></defs>
    <g id="Hiring-Vendor-Logos" stroke="none" stroke-width="1" fill="none" fill-rule="evenodd">
        <g id="Artboard-8">
            <g id="trim" transform="translate(196.969697, 161.363636) rotate(50.000000) translate(-196.969697, -161.363636) translate(3.030303, -24.242424)">
                <g id="Group-15" transform="translate(193.718323, 185.454332) rotate(-5.000000) translate(-193.718323, -185.454332) translate(14.172868, 14.999786)">
                    <path d="M146.321537,236.327486 C146.321537,236.327486 118.044812,314.931473 47.3529994,258.336603" id="Path-2" stroke="#DBE0E4" stroke-width="28.27051"></path>
                    <path d="M141.608749,220.231639 C141.608749,220.231639 111.38468,299.850015 54.8611111,248.040308" id="Path-2" stroke="#B6C1CA" stroke-width="4.98891353"></path>
                    <g id="Group-13" transform="translate(41.939409, 255.464709) rotate(9.000000) translate(-41.939409, -255.464709) translate(11.636379, 221.373799)">
                        <path d="M14.972388,63.3650783 C31.8615432,63.3650783 45.5529086,50.3681802 45.5529086,34.3356936 C45.5529086,18.3032071 31.8615432,5.3063089 14.972388,5.3063089" id="Oval-5" stroke="#B6C1CA" stroke-width="8.31485588" transform="translate(30.262648, 34.335694) rotate(35.000000) translate(-30.262648, -34.335694) "></path>
                        <path d="M14.3788124,61.751753 C31.2679676,61.751753 44.9593329,48.7707656 44.9593329,32.7579062 C44.9593329,16.7450468 31.2679676,3.76405945 14.3788124,3.76405945" id="Oval-5" stroke="#DBE0E4" stroke-width="18.2926829" transform="translate(29.669073, 32.757906) rotate(35.000000) translate(-29.669073, -32.757906) "></path>
                    </g>
                    <path d="M210.09973,131.983194 C211.604571,92.3185265 172.208502,49.0614565 121.648205,47.4363181 C71.0879067,45.8111798 31.7817802,89.663263 30.2769388,129.32793 C28.7720975,168.992598 208.594889,171.64786 210.09973,131.983194" id="Oval" fill="#B6C1CA" fill-rule="nonzero" transform="translate(120.204494, 103.914920) rotate(-45.000000) translate(-120.204494, -103.914920) "></path>
                    <g id="Group-9" transform="translate(135.241694, 254.522176) rotate(-45.000000) translate(-135.241694, -254.522176) translate(132.968967, 229.522176)" fill-rule="nonzero" fill="#56A3E1">
                        <polygon id="Rectangle-10" points="1.18271011 3.55856208 4.40171227 0.337023547 4.40171227 48.6601015 1.18271011 48.6601015"></polygon>
                    </g>
                    <g id="Group-5" transform="translate(225.381727, 206.907802) rotate(-45.000000) translate(-225.381727, -206.907802) translate(129.927182, 113.725984)" fill-rule="nonzero">
                        <path d="M40.791842,0.781659904 C42.5730158,0.34996106 45.5085327,-4.39843284e-13 47.3384918,-4.39843284e-13 L186.599579,-4.39843284e-13 C188.43402,-4.39843284e-13 189.921127,1.47322012 189.921127,3.32506539 L189.921127,161.271068 C189.921127,163.107451 188.854161,165.630527 187.527898,166.916298 L170.461728,183.461448 L170.461728,183.461448 C169.331018,184.557638 167.818015,185.17065 166.24317,185.17065 L47.3518782,185.17065 C45.5100439,185.17065 43.6690461,183.737231 43.2348138,181.948086 L1.57208836,10.2872584 L40.791842,0.781659904 Z" id="Rectangle-7" fill="#56A3E1"></path>
                        <rect id="Rectangle-5" fill="#8ACAF6" x="4.52147804e-13" y="9.66461559" width="169.779415" height="175.506035" rx="3.32594235"></rect>
                    </g>
                    <path d="M202.554714,137.042056 C203.982505,99.4082936 166.603588,58.3660666 118.632073,56.8241383 C70.6605565,55.2822101 33.3669773,96.8889847 31.9391867,134.522747 C30.5113959,172.156508 201.126923,174.675818 202.554714,137.042056" id="Oval" fill="#DBE0E4" fill-rule="nonzero" transform="translate(117.262283, 110.410930) rotate(-45.000000) translate(-117.262283, -110.410930) "></path>
                    <g id="Group-7" transform="translate(129.375654, 127.040820) rotate(-43.000000) translate(-129.375654, -127.040820) translate(103.618078, 110.374153)" fill-rule="nonzero">
                        <ellipse id="Oval-2" fill="#000000" cx="9.6570065" cy="16.1076926" rx="9.6570065" ry="16.1076926"></ellipse>
                        <ellipse id="Oval-2" fill="#FFFFFF" cx="8.04750541" cy="8.05384632" rx="4.82850324" ry="8.05384632"></ellipse>
                        <ellipse id="Oval-2" fill="#000000" cx="41.8470282" cy="16.1076926" rx="9.6570065" ry="16.1076926"></ellipse>
                        <ellipse id="Oval-2" fill="#FFFFFF" cx="40.2375271" cy="8.05384632" rx="4.82850324" ry="8.05384632"></ellipse>
                    </g>
                    <g id="Group-10" transform="translate(85.091216, 95.768912) rotate(-43.000000) translate(-85.091216, -95.768912) translate(-10.363329, 75.314366)" fill-rule="nonzero">
                        <ellipse id="Oval-3" fill="#56B88E" cx="93.3510627" cy="25.7201064" rx="93.3510627" ry="14.4969234"></ellipse>
                        <rect id="Rectangle-4" fill="#85D7A8" transform="translate(125.541085, 14.444721) rotate(7.000000) translate(-125.541085, -14.444721) " x="61.1610412" y="8.00164437" width="128.760087" height="12.8861541"></rect>
                    </g>
                    <g id="Group-8" transform="translate(216.523422, 214.449824) rotate(-45.000000) translate(-216.523422, -214.449824) translate(155.159786, 153.086188)">
                        <g id="Rectangle-6">
                            <g id="path-1-link" fill-rule="nonzero" fill="#000000">
                                <rect id="path-1" x="2.55722212e-12" y="2.9790804e-12" width="122.322082" height="35.4369238" rx="3.32594235"></rect>
                            </g>
                            <g id="path-1-link" fill="#56A3E1">
                                <rect id="path-1" x="2.55722212e-12" y="2.9790804e-12" width="122.322082" height="35.4369238" rx="3.32594235"></rect>
                            </g>
                            <g id="path-1-link" fill-rule="nonzero" fill="#56A3E1">
                                <rect id="path-1" x="2.55722212e-12" y="2.9790804e-12" width="122.322082" height="35.4369238" rx="3.32594235"></rect>
                            </g>
                        </g>
                        <g id="Rectangle-8" transform="translate(3.030303, 54.545455)">
                            <g id="path-4-link" fill-rule="nonzero" fill="#000000">
                                <rect id="path-4" x="0.188699136" y="0.220700455" width="25.7520173" height="25.7723082" rx="3.32594235"></rect>
                            </g>
                            <g id="path-4-link" fill="#FFFFFF">
                                <rect id="path-4" x="0.188699136" y="0.220700455" width="25.7520173" height="25.7723082" rx="3.32594235"></rect>
                            </g>
                        </g>
                        <g id="Rectangle-8-Copy" transform="translate(45.454545, 54.545455)">
                            <g id="path-6-link" fill-rule="nonzero" fill="#000000">
                                <rect id="path-6" x="1.22098591" y="0.220700455" width="25.7520173" height="25.7723082" rx="3.32594235"></rect>
                            </g>
                            <g id="path-6-link" fill="#FFFFFF">
                                <rect id="path-6" x="1.22098591" y="0.220700455" width="25.7520173" height="25.7723082" rx="3.32594235"></rect>
                            </g>
                        </g>
                        <g id="Rectangle-8-Copy-2" transform="translate(89.393939, 54.545455)">
                            <g id="path-8-link" fill-rule="nonzero" fill="#000000">
                                <rect id="path-8" x="0.738121212" y="0.220700455" width="25.7520173" height="25.7723082" rx="3.32594235"></rect>
                            </g>
                            <g id="path-8-link" fill="#FFFFFF">
                                <rect id="path-8" x="0.738121212" y="0.220700455" width="25.7520173" height="25.7723082" rx="3.32594235"></rect>
                            </g>
                        </g>
                        <g id="Rectangle-8" transform="translate(3.030303, 95.454545)">
                            <g id="path-10-link" fill-rule="nonzero" fill="#000000">
                                <rect id="path-10" x="0.188699136" y="1.19161045" width="25.7520173" height="25.7723082" rx="3.32594235"></rect>
                            </g>
                            <g id="path-10-link" fill="#FFFFFF">
                                <rect id="path-10" x="0.188699136" y="1.19161045" width="25.7520173" height="25.7723082" rx="3.32594235"></rect>
                            </g>
                        </g>
                        <g id="Rectangle-8-Copy" transform="translate(45.454545, 95.454545)">
                            <g id="path-12-link" fill-rule="nonzero" fill="#000000">
                                <rect id="path-12" x="1.22098591" y="1.19161045" width="25.7520173" height="25.7723082" rx="3.32594235"></rect>
                            </g>
                            <g id="path-12-link" fill="#FFFFFF">
                                <rect id="path-12" x="1.22098591" y="1.19161045" width="25.7520173" height="25.7723082" rx="3.32594235"></rect>
                            </g>
                        </g>
                        <g id="Rectangle-8-Copy-2" transform="translate(89.393939, 95.454545)">
                            <g id="path-14-link" fill-rule="nonzero" fill="#000000">
                                <rect id="path-14" x="0.738121212" y="1.19161045" width="25.7520173" height="25.7723082" rx="3.32594235"></rect>
                            </g>
                            <g id="path-14-link" fill="#FFFFFF">
                                <rect id="path-14" x="0.738121212" y="1.19161045" width="25.7520173" height="25.7723082" rx="3.32594235"></rect>
                            </g>
                        </g>
                    </g>
                    <g id="Group-12" transform="translate(135.260364, 43.718059) rotate(105.000000) translate(-135.260364, -43.718059) translate(129.199758, -0.978911)" fill-rule="nonzero">
                        <path d="M2.80516351e-13,1.66493377 C2.80516351e-13,0.745416244 0.738310603,3.43920014e-13 1.6660032,3.43920014e-13 L10.1366785,3.43920014e-13 C11.0567867,3.43920014e-13 11.8026817,0.731519805 11.8026817,1.66493377 L11.8026817,72.2457303 C11.8026817,73.1652479 11.3970587,74.5202856 10.8805972,75.2964891 L6.82342538,81.3941188 C6.31417217,82.1594888 5.4957178,82.1703223 4.97925636,81.3941188 L0.922084511,75.2964891 C0.412831297,74.5311191 2.80516351e-13,73.1791442 2.80516351e-13,72.2457303 L2.80516351e-13,1.66493377 Z" id="Rectangle-11-Copy" fill="#FD928B"></path>
                        <polygon id="Rectangle-11" fill="#B1816F" points="-4.39503898e-13 5.91285314 11.8026817 5.91285314 11.8026817 79.8235173 5.90134086 88.692797 -4.39503898e-13 79.8235173"></polygon>
                        <rect id="Rectangle-11" fill="#FFF279" x="-8.79007796e-13" y="5.91285314" width="11.8026817" height="73.9106641"></rect>
                        <rect id="Rectangle-11" fill-opacity="0.556838768" fill="#FFD52B" x="5.90134086" y="5.91285314" width="5.90134086" height="73.9106641"></rect>
                    </g>
                    <path d="M101.11455,261.085144 L112.87866,291.772683" id="Line" stroke="#FFFFFF" stroke-width="6.06060606" stroke-linecap="square"></path>
                </g>
            </g>
        </g>
    </g>
</svg>
