<?xml version="1.0" encoding="UTF-8" standalone="no"?>
<svg width="163px" height="165px" viewBox="0 0 163 165" version="1.1" xmlns="http://www.w3.org/2000/svg" xmlns:xlink="http://www.w3.org/1999/xlink">
    <title>Wonder!</title>
    <defs>
        <linearGradient x1="11.416642%" y1="-29.0214604%" x2="85.2786854%" y2="98.4046752%" id="linearGradient-1">
            <stop stop-color="#931CD5" offset="0%"></stop>
            <stop stop-color="#C622AF" offset="100%"></stop>
        </linearGradient>
        <linearGradient x1="116.993691%" y1="-49.8441737%" x2="1.6521%" y2="118.922347%" id="linearGradient-2">
            <stop stop-color="#FF6868" stop-opacity="0.5" offset="0%"></stop>
            <stop stop-color="#4D2076" stop-opacity="0.5" offset="100%"></stop>
        </linearGradient>
        <linearGradient x1="5.20463934%" y1="-2.34353352%" x2="88.2526443%" y2="92.2763301%" id="linearGradient-3">
            <stop stop-color="#EC87FF" offset="0%"></stop>
            <stop stop-color="#BE05F3" offset="100%"></stop>
        </linearGradient>
        <path d="M486.998689,533.006771 L486.998222,533 C498.887008,497.67541 522.549001,480.013115 557.984199,480.013115 C593.419397,480.013115 617.081389,497.67541 628.970175,533 L638,537.013115 C637.417518,549.018795 636.745683,558.011866 635.984495,563.992329 C635.223307,569.972792 633.223702,579.303816 629.98568,591.9854 L624.808144,591.9854 L612,614.013115 L612,616.013115 C622.277221,632.597421 604.943888,641.264088 560,642.013115 C515.056112,642.762143 496.389445,634.095476 504,616.013115 L504,612.980253 L491.603673,592.011543 L485.01432,591.9854 C481.776298,579.303816 479.776693,569.972792 479.015505,563.992329 C478.254317,558.011866 477.92105,549.014093 478.015702,536.99901 L486.998689,533.006771 Z M497,536.998763 L497,577.988617 C503.439627,594.671616 524.767693,603.013115 560.984196,603.013115 C597.2007,603.013115 616.559021,594.679782 619.059159,578.013115 L621,536.998763 C617.355379,520.33622 596.688712,512.004949 559,512.004949 C521.311288,512.004949 500.644621,520.33622 497,536.998763 Z" id="path-4"></path>
    </defs>
    <g id="Page-1" stroke="none" stroke-width="1" fill="none" fill-rule="evenodd">
        <g id="Artboard-34" transform="translate(-477.000000, -479.000000)">
            <g id="Combined-Shape">
                <use fill="url(#linearGradient-1)" fill-rule="evenodd" xlink:href="#path-4"></use>
                <use fill="url(#linearGradient-2)" fill-rule="evenodd" style="mix-blend-mode: color-burn;" xlink:href="#path-4"></use>
                <use stroke="url(#linearGradient-3)" stroke-width="2" xlink:href="#path-4"></use>
            </g>
        </g>
    </g>
</svg>
