<?xml version="1.0" encoding="UTF-8"?>
<svg width="310px" height="294px" viewBox="0 0 310 294" version="1.1" xmlns="http://www.w3.org/2000/svg" xmlns:xlink="http://www.w3.org/1999/xlink">
    <title>Wonderful Life</title>
    <g id="Logos" stroke="none" stroke-width="1" fill="none" fill-rule="evenodd">
        <g id="Wonderful-Life" transform="translate(0.000000, -1.000000)" fill-rule="nonzero" fill="#FFFFFF">
            <g id="Wonderful-Life" transform="translate(0.000000, 1.000000)">
                <g id="Modified-Icon">
                    <path d="M129.579812,281.568995 C116.402205,259.106408 89.6077346,239.511386 63.2525186,237.599676 C89.6077346,239.033458 109.8134,246.680296 127.822798,269.62081 C107.177878,185.98352 42.1683457,228.041129 0,195.542067 C11.8598472,305.94329 101.906835,304.031581 129.579812,281.568995 Z" id="left-leaf"></path>
                    <path d="M190.974897,249.199734 C200.943318,225.730462 225.139219,202.802302 251.552724,196.755798 C225.067255,202.347945 205.747622,212.859936 190.955914,237.558896 C199.278466,154.733816 271.474552,184.285414 309.303246,146.622678 C313.91107,253.482001 222.393579,266.113933 190.974897,249.199734 Z" id="left-leaf"></path>
                    <path d="M117.793697,110.482282 C154.564977,134.413992 177.176775,162.873879 184.358879,208.061735 C222.319809,79.4137362 94.8798649,79.3878394 61.119679,0.242715614 C-5.56879472,146.022879 101.684861,220.224296 163.088617,226.223006 L160.335089,272.043329 C167.059522,272.49987 174.343554,266.197875 177.101702,261.157035 C178.38953,214.191582 175.409042,159.094193 117.793697,110.482282 Z" id="center-leaf"></path>
                </g>
            </g>
        </g>
    </g>
</svg>
