<?xml version="1.0" encoding="UTF-8" standalone="no"?>
<svg width="300px" height="262px" viewBox="0 0 300 262" version="1.1" xmlns="http://www.w3.org/2000/svg" xmlns:xlink="http://www.w3.org/1999/xlink">
    <!-- Generator: Sketch 46.2 (44496) - http://www.bohemiancoding.com/sketch -->
    <title>Folder</title>
    <desc>Created with Sketch.</desc>
    <defs>
        <path d="M21.9673688,69.3980423 L15.7464201,69.3980423 L15.7464201,69.3980423 C14.7905464,69.3980423 13.8371944,69.4961044 12.9013357,69.6906887 C5.34413717,71.2619854 0.491605043,78.6620929 2.0629018,86.2192914 L31.4884367,227.742277 C32.8365068,234.22586 38.5497091,238.873357 45.1719551,238.873357 L271.034697,238.873357 C278.185965,238.873357 284.183589,233.475098 284.933752,226.363284 L284.933752,226.363284 L299.861792,84.8402985 C299.913162,84.3532897 299.938901,83.8639176 299.938901,83.374207 C299.938901,75.6553844 293.681559,69.3980423 285.962736,69.3980423 L285.962736,69.3980423 L88.0279736,69.3980423 L88.0279736,63.7720285 C88.0279736,57.8482809 83.2258274,53.0461347 77.3020798,53.0461347 L32.6932627,53.0461347 C26.7695151,53.0461347 21.9673688,57.8482809 21.9673688,63.7720285 L21.9673688,63.7720285 L21.9673688,69.3980423 Z" id="path-1"></path>
        <rect id="path-2" x="0" y="0" width="136.510968" height="176.842129" rx="4.22535211"></rect>
        <filter x="-3.7%" y="-2.3%" width="107.3%" height="105.7%" filterUnits="objectBoundingBox" id="filter-3">
            <feOffset dx="0" dy="1" in="SourceAlpha" result="shadowOffsetOuter1"></feOffset>
            <feGaussianBlur stdDeviation="1.5" in="shadowOffsetOuter1" result="shadowBlurOuter1"></feGaussianBlur>
            <feComposite in="shadowBlurOuter1" in2="SourceAlpha" operator="out" result="shadowBlurOuter1"></feComposite>
            <feColorMatrix values="0 0 0 0 0   0 0 0 0 0   0 0 0 0 0  0 0 0 0.24 0" type="matrix" in="shadowBlurOuter1"></feColorMatrix>
        </filter>
        <ellipse id="path-4" cx="17.8764897" cy="17.8990025" rx="17.8764897" ry="17.8990025"></ellipse>
        <ellipse id="path-5" cx="17.8764897" cy="17.8990025" rx="17.8764897" ry="17.8990025"></ellipse>
        <path d="M13.7080532,18.2744076 C14.1458704,18.8693038 14.5540818,19.507978 14.9323221,20.1783751 C16.2092123,22.4415756 17.1862434,25.0489667 17.8634153,28.0005484 C18.3024616,26.5772568 18.9283301,25.2571857 19.7041975,24.0200275 C19.6313511,23.9499198 19.5600774,23.8783449 19.4904617,23.8053766 C16.0337695,20.182211 16.6650415,13.123505 31.8330117,11.6647577 C31.8918977,26.1086395 24.8213281,27.5899735 20.6830108,24.8095797 C19.3463345,26.9814755 18.5084986,29.4232364 18.3981826,32.2583972 C18.3860611,32.602652 18.0977902,32.8718669 17.7543316,32.8597181 C17.410873,32.8475686 17.1422806,32.5586295 17.1544014,32.2143748 C17.1634222,31.982479 17.1769068,31.7530489 17.1947493,31.526026 C16.3211452,26.7759499 15.2060679,23.1987301 13.8495173,20.7943664 C13.5088743,20.190607 13.1435818,19.615735 12.7542639,19.0805706 C8.59122075,22.0209001 1.21977472,20.6303817 1.64256159,5.85785536 C15.9936914,7.59597316 17.1423905,14.0499762 14.1962208,17.7276595 C14.0440096,17.9176638 13.8808684,18.1002576 13.7080532,18.2744076 Z" id="path-6"></path>
        <ellipse id="path-7" cx="17.8764897" cy="17.8990025" rx="17.8764897" ry="17.8990025"></ellipse>
        <path d="M21.9673688,91.2022817 L13.9752865,91.2022817 L13.9752865,91.2022817 C13.5209718,91.2022817 13.0669272,91.2244339 12.6147702,91.2686594 C4.93260695,92.0200518 -0.685892906,98.8567995 0.0654995166,106.538963 L13.9078634,248.061948 C14.6079605,255.219673 20.6257693,260.677597 27.8176504,260.677597 L27.8176504,260.677597 L271.034697,260.677597 C278.185965,260.677597 284.183589,255.279338 284.933752,248.167524 L284.933752,248.167524 L299.861792,106.644538 C299.913162,106.157529 299.938901,105.668157 299.938901,105.178446 C299.938901,97.4596238 293.681559,91.2022817 285.962736,91.2022817 L285.962736,91.2022817 L206.067172,91.2022817 L172.264355,91.2022817 L157.313109,91.2022817 L124.810401,91.2022817 L88.0279736,91.2022817 L88.0279736,85.5762679 C88.0279736,79.6525203 83.2258274,74.8503741 77.3020798,74.8503741 L32.6932627,74.8503741 L32.6932627,74.8503741 C26.7695151,74.8503741 21.9673688,79.6525203 21.9673688,85.5762679 L21.9673688,85.5762679 L21.9673688,91.2022817 Z" id="path-8"></path>
        <ellipse id="path-9" cx="13.0010834" cy="13.0174564" rx="13.0010834" ry="13.0174564"></ellipse>
        <path d="M3.185381,6.81565087 L2.61812929,6.81565087 C2.32869628,6.81565087 2.27357915,6.58797906 2.27357915,6.58797906 C2.1670078,6.42911537 2.17441381,6.15890846 2.27298825,5.9955143 C2.27298825,5.9955143 2.32869628,5.7670803 2.61812929,5.7670803 L2.81753702,5.7670803 C1.12144456,4.63936359 0,2.71139152 0,0.524285287 C0,0.234487781 0.234192849,0 0.523625858,0 L12.0432792,0 C12.3327122,0 12.566905,0.234487781 12.566905,0.524285287 C12.566905,2.71133367 11.4454605,4.63936359 9.74942579,5.7670803 L9.94883351,5.7670803 C10.2382665,5.7670803 10.2933836,5.99475211 10.2933836,5.99475211 C10.399955,6.1536158 10.392549,6.42382272 10.2939745,6.58721687 C10.2939745,6.58721687 10.2382665,6.81565087 9.94883351,6.81565087 L9.3815818,6.81565087 L3.185381,6.81565087 Z M6.28345251,5.7670803 C8.99409173,5.7670803 11.2302781,3.69400698 11.4935934,1.04851272 L1.07331166,1.04851272 C1.33662694,3.69400698 3.57281329,5.7670803 6.28345251,5.7670803 Z M5.19274828,17.825584 L4.23650415,6.81565087 L8.33040087,6.81565087 L7.37415674,17.825584 L5.19274828,17.825584 Z" id="path-11"></path>
    </defs>
    <g id="Page-1" stroke="none" stroke-width="1" fill="none" fill-rule="evenodd">
        <g id="Artboard-33" transform="translate(-433.000000, -608.000000)">
            <g id="Folder" transform="translate(433.000000, 609.000000)">
                <g id="Combined-Shape-Copy">
                    <use fill="#B8C9E1" fill-rule="evenodd" xlink:href="#path-1"></use>
                    <path stroke="#7092C6" stroke-width="0.975081257" d="M22.4549095,63.7720285 L22.4549095,69.8855829 L15.7464201,69.8855829 C14.8238909,69.8855829 13.9037953,69.9802243 13.0005828,70.1680207 C5.70700751,71.6845048 1.02374976,78.826469 2.54023383,86.1200443 L31.9657688,227.64303 C33.2668131,233.900441 38.7807177,238.385817 45.1719551,238.385817 L271.034697,238.385817 C277.936503,238.385817 283.724906,233.175869 284.448902,226.312141 L299.376941,84.7891558 C299.42652,84.3191357 299.45136,83.8468346 299.45136,83.374207 C299.45136,75.9246456 293.412297,69.8855829 285.962736,69.8855829 L87.540433,69.8855829 L87.540433,63.7720285 C87.540433,58.1175422 82.9565662,53.5336753 77.3020798,53.5336753 L32.6932627,53.5336753 C27.0387763,53.5336753 22.4549095,58.1175422 22.4549095,63.7720285 Z"></path>
                </g>
                <g id="Manager-Past-Review-Copy" transform="translate(205.092091, 98.281796) rotate(9.000000) translate(-205.092091, -98.281796) translate(136.836403, 9.763092)">
                    <g id="Rectangle-Copy">
                        <use fill="black" fill-opacity="1" filter="url(#filter-3)" xlink:href="#path-2"></use>
                        <use fill="#FFFFFF" fill-rule="evenodd" xlink:href="#path-2"></use>
                        <rect stroke="#CCCCCC" stroke-width="0.975081257" x="0.487540628" y="0.487540628" width="135.535886" height="175.867048" rx="4.22535211"></rect>
                    </g>
                    <g id="Group-2" transform="translate(10.775307, 6.273158)">
                        <g id="Group-24" transform="translate(0.196612, 0.142525)">
                            <rect id="Rectangle-8" fill="#999999" opacity="0.687674907" transform="translate(59.047115, 14.330899) scale(1, -1) translate(-59.047115, -14.330899) " x="0.164681047" y="14.0797503" width="117.764868" height="1"></rect>
                            <g id="Group-3" transform="translate(0.557421, 0.000825)" fill="#D8D8D8">
                                <rect id="Rectangle-3" x="-1.39266376e-12" y="6.18329177" width="65.0054171" height="4.55610973" rx="2.27805486"></rect>
                                <rect id="Rectangle-3-Copy" x="-1.39266376e-12" y="0.321508155" width="8.55415489" height="3.6457146" rx="1.8228573"></rect>
                            </g>
                        </g>
                        <g id="Group-25-Copy" transform="translate(0.650054, 97.630923)">
                            <g id="Group-21" transform="translate(0.003189, 0.035293)">
                                <g id="Group" transform="translate(4.553646, 14.433794)">
                                    <ellipse id="Oval-2" stroke="#C9C6C6" stroke-width="0.5" fill="#FFFFFF" cx="1.91566318" cy="2.48506006" rx="1.91566318" ry="1.91704633"></ellipse>
                                    <rect id="Rectangle" fill="#E7E7E7" x="6.81616473" y="0" width="23.1011783" height="4.94047866" rx="0.548942073"></rect>
                                </g>
                                <g id="Group-Copy" transform="translate(4.553646, 23.246885)">
                                    <ellipse id="Oval-2" stroke="#C9C6C6" stroke-width="0.5" fill="#FFFFFF" cx="1.91566318" cy="2.75953109" rx="1.91566318" ry="1.91704633"></ellipse>
                                    <rect id="Rectangle" fill="#E7E7E7" x="6.86177591" y="0" width="9.33201524" height="4.94047866" rx="0.548942073"></rect>
                                </g>
                                <g id="Group-Copy-2" transform="translate(4.553646, 32.325569)">
                                    <ellipse id="Oval-2" stroke="#C9C6C6" stroke-width="0.5" fill="#FFFFFF" cx="1.91566318" cy="2.48506006" rx="1.91566318" ry="1.91704633"></ellipse>
                                    <rect id="Rectangle-Copy-2" fill="#E7E7E7" x="6.86177591" y="0.274471037" width="11.8022546" height="4.94047866" rx="0.548942073"></rect>
                                </g>
                                <g id="Group-Copy-3" transform="translate(4.553646, 40.855311)">
                                    <ellipse id="Oval-2" stroke="#C9C6C6" stroke-width="0.5" fill="#FFFFFF" cx="1.91566318" cy="2.75953109" rx="1.91566318" ry="1.91704633"></ellipse>
                                    <rect id="Rectangle-Copy-3" fill="#E7E7E7" x="6.86177591" y="0.253331428" width="13.9980229" height="4.94047866" rx="0.548942073"></rect>
                                </g>
                                <g id="Group-Copy-4" transform="translate(4.553646, 49.659523)">
                                    <ellipse id="Oval-2" stroke="#C9C6C6" stroke-width="0.5" fill="#FFFFFF" cx="1.91566318" cy="2.75953109" rx="1.91566318" ry="1.91704633"></ellipse>
                                    <rect id="Rectangle-Copy-4" fill="#E7E7E7" x="6.86177591" y="0.23219182" width="27.7215747" height="4.94047866" rx="0.548942073"></rect>
                                </g>
                                <rect id="Rectangle-2" fill="#D8D8D8" x="0" y="0.234059542" width="85.0512308" height="3.47128937" rx="1.73564469"></rect>
                                <rect id="Rectangle-2-Copy" fill="#D8D8D8" x="0" y="6.08891885" width="49.4047866" height="3.47128937" rx="1.73564469"></rect>
                            </g>
                        </g>
                        <g id="Group-25-Copy-2" transform="translate(0.650054, 27.011222)">
                            <g id="Group-21" transform="translate(0.003189, 0.034475)">
                                <g id="Group" transform="translate(4.553646, 13.458713)">
                                    <ellipse id="Oval-2" stroke="#C9C6C6" stroke-width="0.5" fill="#FFFFFF" cx="1.91566318" cy="2.48506006" rx="1.91566318" ry="1.91704633"></ellipse>
                                    <rect id="Rectangle" fill="#E7E7E7" x="6.81616473" y="0" width="23.1011783" height="4.94047866" rx="2.47023933"></rect>
                                </g>
                                <g id="Group-Copy" transform="translate(4.553646, 22.271804)">
                                    <ellipse id="Oval-2" stroke="#C9C6C6" stroke-width="0.5" fill="#FFFFFF" cx="1.91566318" cy="2.75953109" rx="1.91566318" ry="1.91704633"></ellipse>
                                    <rect id="Rectangle" fill="#E7E7E7" x="6.86177591" y="0" width="9.33201524" height="4.94047866" rx="2.47023933"></rect>
                                </g>
                                <g id="Group-Copy-2" transform="translate(4.553646, 31.350488)">
                                    <ellipse id="Oval-2" stroke="#C9C6C6" stroke-width="0.5" fill="#FFFFFF" cx="1.91566318" cy="2.48506006" rx="1.91566318" ry="1.91704633"></ellipse>
                                    <rect id="Rectangle-Copy-2" fill="#E7E7E7" x="6.86177591" y="0.274471037" width="11.8022546" height="4.94047866" rx="2.47023933"></rect>
                                </g>
                                <g id="Group-Copy-3" transform="translate(4.553646, 39.880229)">
                                    <ellipse id="Oval-2" stroke="#C9C6C6" stroke-width="0.5" fill="#FFFFFF" cx="1.91566318" cy="2.75953109" rx="1.91566318" ry="1.91704633"></ellipse>
                                    <rect id="Rectangle-Copy-3" fill="#E7E7E7" x="6.86177591" y="0.253331428" width="13.9980229" height="4.94047866" rx="2.47023933"></rect>
                                </g>
                                <g id="Group-Copy-4" transform="translate(4.553646, 48.684442)">
                                    <ellipse id="Oval-2" stroke="#C9C6C6" stroke-width="0.5" fill="#FFFFFF" cx="1.91566318" cy="2.75953109" rx="1.91566318" ry="1.91704633"></ellipse>
                                    <rect id="Rectangle-Copy-4" fill="#E7E7E7" x="6.86177591" y="0.23219182" width="27.7215747" height="4.94047866" rx="2.47023933"></rect>
                                </g>
                                <rect id="Rectangle-2" fill="#D8D8D8" x="0" y="0.169733824" width="97.9479789" height="3.47063649" rx="1.73531825"></rect>
                                <rect id="Rectangle-2-Copy" fill="#D8D8D8" x="0" y="5.93362559" width="49.4047866" height="3.47063649" rx="1.73531825"></rect>
                            </g>
                        </g>
                    </g>
                </g>
                <g id="Feedback" transform="translate(49.729144, 48.490025)">
                    <ellipse id="Oval-14" stroke="#B574F6" stroke-width="0.650054171" fill="#FFFFFF" cx="17.8764897" cy="17.8990025" rx="17.8764897" ry="17.8990025"></ellipse>
                    <path d="M7.29463553,21.3312038 C7.63374609,21.4447125 7.74712677,21.486494 7.80940318,21.5323057 C8.55501556,22.0807922 9.45152251,22.3756695 10.3863049,22.3756695 C12.12208,22.3756695 13.6694575,21.3525009 14.3575968,19.8000511 L14.3793956,19.7508726 L14.4173724,19.7126356 L20.9766382,13.1084132 C22.2909027,11.791158 24.0348765,11.0648379 25.8846679,11.0648379 C27.7424659,11.0648379 29.4870931,11.7916693 30.7938877,13.1098209 C32.1037264,14.4290471 32.8262349,16.1883685 32.8277331,18.0610266 C32.8292967,19.9314078 32.106797,21.6912219 30.7943513,23.0132102 C29.4871352,24.3317272 27.742467,25.0586035 25.8846679,25.0586035 C24.0271295,25.0586035 22.2824124,24.3318685 20.9762975,23.0146793 L18.3355253,20.3655736 L20.3151366,18.3705906 L20.5241363,18.5795079 L22.9505875,21.005003 C23.7364203,21.7940065 24.7774312,22.2276802 25.8846679,22.2276802 C26.9916052,22.2276802 28.0326018,21.794131 28.8169176,21.0066197 C29.5976087,20.2183502 30.0265947,19.1708528 30.0254254,18.0546611 C30.0243147,16.9421916 29.5957857,15.9001959 28.8184984,15.1184384 C28.0326651,14.3294344 26.9917164,13.8957612 25.8846054,13.8957612 C24.7774585,13.8957612 23.7364206,14.3293709 22.9513143,15.1176316 L15.1077504,23.0149533 C13.7935668,24.33226 12.0495964,25.0586035 10.1997727,25.0586035 C8.34227632,25.0586035 6.59758528,24.3319422 5.29226209,23.0154305 C3.97672261,21.6987347 3.25131447,19.9386016 3.25027213,18.0622149 C3.24916466,16.1909174 3.97134922,14.4312337 5.28283663,13.1102364 C6.58998165,11.7917253 8.33471075,11.0648379 10.1925876,11.0648379 C12.0501546,11.0648379 13.7948522,11.7915056 15.0997836,13.1078191 L17.7473805,15.7544878 L15.7705789,17.7640864 L14.3761453,16.3650006 L14.3542614,16.315885 C13.6643331,14.7674329 12.1191107,13.7477719 10.3863049,13.7477719 C7.9906157,13.7477719 6.04852586,15.6791925 6.04852586,18.0617207 C6.04852586,18.7714439 6.22099483,19.460366 6.55177684,20.0804621 C6.66318812,20.2893177 6.5547581,20.5428985 6.14677093,21.1412207 L7.29463553,21.3312038 Z M15.7678331,16.9317325 L16.9224751,15.7579339 L14.6825376,13.518778 C13.4869787,12.3127948 11.8928872,11.6488547 10.1925876,11.6488547 C8.49199849,11.6488547 6.89786653,12.3130004 5.70086308,13.5204121 C4.49808232,14.7319146 3.83649817,16.3439386 3.83751488,18.0618817 C3.83847189,19.7846457 4.50288819,21.396788 5.70961997,22.6045835 C6.90543567,23.8106463 8.49953609,24.4745867 10.1997727,24.4745867 C11.8926381,24.4745867 13.4866637,23.8106936 14.6904134,22.6040843 L22.5338081,14.7069323 C23.4292625,13.8078797 24.6204157,13.3117445 25.8846054,13.3117445 C27.1487777,13.3117445 28.339838,13.8079562 29.2358932,14.7076269 C30.1222392,15.5990702 30.6114044,16.7885067 30.6126679,18.0540669 C30.6139978,19.3234739 30.1245867,20.5185171 29.2347214,21.4170189 C28.3397635,22.315625 27.1486432,22.8116969 25.8846679,22.8116969 C24.6203744,22.8116969 23.4292505,22.3154879 22.5338264,21.4164498 L20.3168322,19.20033 L19.1615011,20.3646323 L21.393881,22.6040583 C22.5902534,23.8105732 24.1843913,24.4745867 25.8846679,24.4745867 C27.5851802,24.4745867 29.1792569,23.810451 30.376328,22.6030313 C31.5800655,21.3905416 32.2419258,19.7784286 32.2404905,18.0615017 C32.2391147,16.3418261 31.5771254,14.7298703 30.3758704,13.5200059 C29.1792099,12.3129456 27.5851798,11.6488547 25.8846679,11.6488547 C24.1918272,11.6488547 22.5977885,12.3127306 21.3939648,13.5192927 L14.8725469,20.0854088 C14.0805454,21.8198417 12.3382756,22.9596863 10.3863049,22.9596863 C9.33374985,22.9596863 8.32239079,22.6296947 7.47974601,22.0161517 C7.4644809,22.0097744 7.44183322,22.0010079 7.41254689,21.9902157 C7.35120188,21.9676097 7.26407554,21.9373251 7.151787,21.8996102 L5.13179138,21.5652807 L5.40116206,21.1853006 C5.63537118,20.8549201 5.80460598,20.5985441 5.90760484,20.4188416 C5.94323511,20.3566773 5.96993789,20.3053468 5.98739595,20.2665179 C5.64142719,19.5851042 5.46128302,18.8336536 5.46128302,18.0617207 C5.46128302,15.356649 7.66629043,13.1637551 10.3863049,13.1637551 C12.3349097,13.1637551 14.0747331,14.2996675 14.8686726,16.0295721 L15.7678331,16.9317325 Z" id="Feedback-Copy" fill="#B574F6" fill-rule="nonzero"></path>
                </g>
                <g id="Rapport" transform="translate(93.282774, 56.951372)">
                    <g id="Oval-16">
                        <use fill="#FFFFFF" fill-rule="evenodd" xlink:href="#path-4"></use>
                        <ellipse stroke="#FF9F80" stroke-width="0.650054171" cx="17.8764897" cy="17.8990025" rx="17.5514626" ry="17.5739754"></ellipse>
                    </g>
                    <g transform="translate(6.175515, 9.437656)" id="Combined-Shape" fill="#FF9F80">
                        <path d="M11.8634886,17.2481297 L6.37821969,17.2481297 C6.23731595,17.2481297 6.1230909,17.1339046 6.1230909,16.9930009 L6.1230909,16.9930009 C6.1230909,15.7252493 6.1230909,14.4574978 6.1230909,13.1897462 C6.1230909,10.9483629 8.6931545,9.13136277 11.8634886,9.13136277 C15.0338227,9.13136277 17.6038863,10.9483629 17.6038863,13.1897462 C17.6038863,14.4574978 17.6038863,15.7252493 17.6038863,16.9930009 C17.6038863,17.1339046 17.4896613,17.2481297 17.3487576,17.2481297 L17.3487576,17.2481297 L11.8634886,17.2481297 Z M11.991053,8.8777138 C9.7365932,8.8777138 7.90899242,7.06071364 7.90899242,4.81933035 C7.90899242,2.57794706 9.7365932,0.760946897 11.991053,0.760946897 C14.2455128,0.760946897 16.0731136,2.57794706 16.0731136,4.81933035 C16.0731136,7.06071364 14.2455128,8.8777138 11.991053,8.8777138 Z"></path>
                        <path d="M12.2461818,16.4299708 L12.2461818,16.4871828 L22.9615909,16.4871828 C22.9615909,14.7095263 22.9615909,14.6482278 22.9615909,12.8092728 C22.9615909,10.8113108 20.5853813,9.13136277 17.6038863,9.13136277 C14.6223914,9.13136277 12.2461818,10.8113108 12.2461818,12.8092728 C12.2461818,14.6482278 12.2461818,14.7095263 12.2461818,16.4299708 Z M17.6038863,17.2481297 L12.1186174,17.2481297 C11.7663581,17.2481297 11.4807954,16.9642234 11.4807954,16.6140073 L11.4807954,12.8092728 C11.4807954,10.3244682 14.2447131,8.37041587 17.6038863,8.37041587 C20.9630596,8.37041587 23.7269772,10.3244682 23.7269772,12.8092728 L23.7269772,16.6140073 C23.7269772,16.9642234 23.4414146,17.2481297 23.0891553,17.2481297 L17.6038863,17.2481297 Z M17.7314507,8.11676691 C19.7745549,8.11676691 21.4308182,6.47011051 21.4308182,4.4388569 C21.4308182,2.4076033 19.7745549,0.760946897 17.7314507,0.760946897 C15.6883465,0.760946897 14.0320833,2.4076033 14.0320833,4.4388569 C14.0320833,6.47011051 15.6883465,8.11676691 17.7314507,8.11676691 Z M17.7314507,8.8777138 C15.2656353,8.8777138 13.266697,6.89036988 13.266697,4.4388569 C13.266697,1.98734393 15.2656353,0 17.7314507,0 C20.1972662,0 22.1962045,1.98734393 22.1962045,4.4388569 C22.1962045,6.89036988 20.1972662,8.8777138 17.7314507,8.8777138 Z" fill-rule="nonzero"></path>
                        <path d="M0.765386363,16.4299708 L0.765386363,16.4871828 L11.4807954,16.4871828 C11.4807954,14.7095263 11.4807954,14.6482278 11.4807954,12.8092728 C11.4807954,10.8113108 9.10458586,9.13136277 6.1230909,9.13136277 C3.14159595,9.13136277 0.765386363,10.8113108 0.765386363,12.8092728 C0.765386363,14.6482278 0.765386363,14.7095263 0.765386363,16.4299708 Z M6.1230909,17.2481297 L0.637821969,17.2481297 C0.285562622,17.2481297 1.98274898e-15,16.9642234 6.7979965e-16,16.6140073 L0,12.8092728 C0,10.3244682 2.76391762,8.37041587 6.1230909,8.37041587 C9.48226419,8.37041587 12.2461818,10.3244682 12.2461818,12.8092728 L12.2461818,16.6140073 C12.2461818,16.9642234 11.9606192,17.2481297 11.6083598,17.2481297 L6.1230909,17.2481297 Z M6.2506553,8.11676691 C8.29375951,8.11676691 9.95002272,6.47011051 9.95002272,4.4388569 C9.95002272,2.4076033 8.29375951,0.760946897 6.2506553,0.760946897 C4.20755109,0.760946897 2.55128788,2.4076033 2.55128788,4.4388569 C2.55128788,6.47011051 4.20755109,8.11676691 6.2506553,8.11676691 Z M6.2506553,8.8777138 C3.78483987,8.8777138 1.78590151,6.89036988 1.78590151,4.4388569 C1.78590151,1.98734393 3.78483987,0 6.2506553,0 C8.71647072,0 10.7154091,1.98734393 10.7154091,4.4388569 C10.7154091,6.89036988 8.71647072,8.8777138 6.2506553,8.8777138 Z" fill-rule="nonzero"></path>
                    </g>
                </g>
                <g id="Growth" transform="translate(70.530878, 59.229426)">
                    <g id="Oval">
                        <use fill="#FFFFFF" fill-rule="evenodd" xlink:href="#path-5"></use>
                        <ellipse stroke="#61E7C3" stroke-width="0.650054171" cx="17.8764897" cy="17.8990025" rx="17.5514626" ry="17.5739754"></ellipse>
                    </g>
                    <g id="Combined-Shape">
                        <use fill="#FFFFFF" fill-rule="evenodd" xlink:href="#path-6"></use>
                        <path stroke="#61E7C3" stroke-width="0.975081257" d="M2.11786471,6.40964752 C2.01645975,12.7317017 3.38821468,16.8372121 5.78109936,18.7290859 C7.74888273,20.284864 10.3561162,20.1774823 12.4729982,18.6823427 L12.8656933,18.4049848 L13.1485179,18.7937612 C13.5427938,19.3357409 13.9185458,19.9245423 14.2741363,20.5547948 C15.6617308,23.0141809 16.791719,26.6392356 17.674248,31.4378396 L17.6807911,31.5642257 C17.6633993,31.7855147 17.650318,32.0085337 17.6416401,32.2315298 C17.6389834,32.3069842 17.6974335,32.3698598 17.7715662,32.3724822 C17.8456602,32.375103 17.9082901,32.3166111 17.9110107,32.2394413 C18.0199527,29.4395899 18.8193867,26.9075005 20.2678034,24.5540436 L20.5337435,24.1219314 L20.9549045,24.4048951 C23.0602856,25.8194286 25.5870696,25.8731214 27.5267663,24.3160732 C29.8798837,22.4271608 31.2917523,18.3939689 31.3443163,12.2045253 C24.8340125,12.9037041 20.7623977,14.7088246 19.0814464,17.1963824 C17.711211,19.2241267 18.0948687,21.6362877 19.8432137,23.4688325 C19.9080037,23.5367427 19.9743826,23.6034049 20.0422741,23.6687439 L20.3277082,23.9434467 L20.117234,24.2790578 C19.3410181,25.5167717 18.7441542,26.799374 18.3292941,28.1442592 L17.7941748,29.8789985 L17.3882206,28.1095708 C16.7211654,25.2020846 15.7605838,22.638592 14.507703,20.4179467 C14.1321789,19.7523637 13.7340103,19.132203 13.3153896,18.5633906 L13.0680029,18.2272472 L13.3619861,17.9309932 C13.5231166,17.7686181 13.6747051,17.5988679 13.8157187,17.4228416 C17.367394,12.9893097 13.7012751,7.94915369 2.11786471,6.40964752 Z"></path>
                    </g>
                </g>
                <g id="Rapport" transform="translate(117.334778, 67.365337)">
                    <g id="Oval-15">
                        <use fill="#FFFFFF" fill-rule="evenodd" xlink:href="#path-7"></use>
                        <ellipse stroke="#4698DC" stroke-width="0.650054171" cx="17.8764897" cy="17.8990025" rx="17.5514626" ry="17.5739754"></ellipse>
                    </g>
                    <path d="M13.5936586,17.3894151 C13.4076756,17.4859585 13.1811831,17.4515349 13.0317748,17.3040168 L10.9030977,15.2022697 L9.55670621,15.2022697 C9.43598596,15.2022697 9.33846477,15.3001958 9.33846477,15.4205677 L9.33846477,21.7848292 C9.33846477,21.9052011 9.43598596,22.0031272 9.55670621,22.0031272 L10.3658476,22.0031272 L14.2799743,25.4391058 C14.4269793,25.5681527 14.6115159,25.646295 14.8062728,25.6619268 C17.5762944,25.8842583 18.9444201,25.7707382 20.1825565,25.380334 C20.7453578,25.2028738 22.1001724,23.8861477 24.1499577,21.4864754 L17.5045172,15.3592959 L13.5936586,17.3894151 Z M17.2978998,14.8069967 C17.4784713,14.7132624 17.697913,14.7427616 17.8477489,14.8809121 L24.9583439,21.4369699 L24.7755815,21.6523214 C22.5290657,24.299423 21.0913315,25.7081018 20.3564983,25.9398064 C19.0408686,26.3546454 17.5995511,26.4742386 14.7600231,26.2463283 C14.440957,26.220719 14.1385318,26.0926567 13.8974605,25.8810345 L10.147744,22.5893818 L9.55670621,22.5893818 C9.11485765,22.5893818 8.75632671,22.2293621 8.75632671,21.7848292 L8.75632671,15.4205677 C8.75632671,14.9760347 9.11485765,14.616015 9.55670621,14.616015 L10.9427251,14.616015 C11.0697241,14.616015 11.191659,14.6661694 11.2823445,14.7557076 L13.3892571,16.8359656 L17.2978998,14.8069967 Z M26.165724,21.2281847 C26.261918,21.2281847 26.3395568,21.1502235 26.3395568,21.0544796 L26.3395568,14.4034013 C26.3395568,14.3076574 26.261918,14.2296962 26.165724,14.2296962 L25.1353957,14.2296962 L19.1552214,10.308964 C18.3460452,9.92241223 17.7291107,9.93341328 17.2877097,10.3153044 C16.9949582,10.5685869 15.1154171,12.1276236 11.6368563,15.0026377 L13.4011576,16.8365196 L17.2965135,14.8085397 C17.477607,14.7142597 17.6979101,14.7440588 17.8478826,14.8831201 L24.6908047,21.2281847 L26.165724,21.2281847 Z M26.165724,13.6434416 C26.5830464,13.6434416 26.9216949,13.9834964 26.9216949,14.4034013 L26.9216949,21.0544796 C26.9216949,21.4743846 26.5830464,21.8144394 26.165724,21.8144394 L24.463623,21.8144394 L17.503526,15.3607248 L13.6044311,17.3906513 C13.4142858,17.4896438 13.1821887,17.4514327 13.0332445,17.2966145 L11.1454495,15.3343695 C10.9590198,15.1405874 10.963877,14.8312962 11.1562983,14.6435481 C14.7071012,11.7067719 16.6186911,10.1212337 16.9083602,9.87061793 C17.5517198,9.31399639 18.4168943,9.30219079 19.4237543,9.78842602 L25.3081913,13.6434416 L26.165724,13.6434416 Z M28.0639058,13.9324357 C28.0103215,13.9324357 27.9668828,13.9761815 27.9668828,14.0301448 L27.9668828,21.0652006 C27.9668828,21.1191638 28.0103215,21.1629097 28.0639058,21.1629097 L30.1984121,21.1629097 C30.2519964,21.1629097 30.2954351,21.1191638 30.2954351,21.0652006 L30.2954351,14.0301448 C30.2954351,13.9761815 30.2519964,13.9324357 30.1984121,13.9324357 L28.0639058,13.9324357 Z M28.0639058,13.346181 L30.1984121,13.346181 C30.5735024,13.346181 30.8775731,13.652402 30.8775731,14.0301448 L30.8775731,21.0652006 C30.8775731,21.4429433 30.5735024,21.7491644 30.1984121,21.7491644 L28.0639058,21.7491644 C27.6888155,21.7491644 27.3847447,21.4429433 27.3847447,21.0652006 L27.3847447,14.0301448 C27.3847447,13.652402 27.6888155,13.346181 28.0639058,13.346181 Z M5.55456736,14.9095268 C5.50098303,14.9095268 5.45754435,14.9532726 5.45754435,15.0072359 L5.45754435,22.0422917 C5.45754435,22.0962549 5.50098303,22.1400008 5.55456736,22.1400008 L7.68907359,22.1400008 C7.74265792,22.1400008 7.7860966,22.0962549 7.7860966,22.0422917 L7.7860966,15.0072359 C7.7860966,14.9532726 7.74265792,14.9095268 7.68907359,14.9095268 L5.55456736,14.9095268 Z M5.55456736,14.3232721 L7.68907359,14.3232721 C8.0641639,14.3232721 8.36823467,14.6294931 8.36823467,15.0072359 L8.36823467,22.0422917 C8.36823467,22.4200344 8.0641639,22.7262554 7.68907359,22.7262554 L5.55456736,22.7262554 C5.17947705,22.7262554 4.87540628,22.4200344 4.87540628,22.0422917 L4.87540628,15.0072359 C4.87540628,14.6294931 5.17947705,14.3232721 5.55456736,14.3232721 Z" id="Combined-Shape" fill="#4698DC" fill-rule="nonzero"></path>
                </g>
                <g id="Combined-Shape">
                    <use fill="#FFFFFF" fill-rule="evenodd" xlink:href="#path-8"></use>
                    <path stroke="#7092C6" stroke-width="0.975081257" d="M22.4549095,85.5762679 L22.4549095,91.6898223 L13.9752865,91.6898223 C13.53682,91.6898223 13.0986142,91.7112018 12.6622301,91.7538845 C5.24804926,92.4790656 -0.174456414,99.077322 0.550724645,106.491503 L14.3930885,248.014488 C15.0687636,254.922525 20.8766489,260.190056 27.8176504,260.190056 L271.034697,260.190056 C277.936503,260.190056 283.724906,254.980108 284.448902,248.116381 L299.376941,106.593395 C299.42652,106.123375 299.45136,105.651074 299.45136,105.178446 C299.45136,97.728885 293.412297,91.6898223 285.962736,91.6898223 L87.540433,91.6898223 L87.540433,85.5762679 C87.540433,79.9217816 82.9565662,75.3379147 77.3020798,75.3379147 L32.6932627,75.3379147 C27.0387763,75.3379147 22.4549095,79.9217816 22.4549095,85.5762679 Z"></path>
                </g>
                <g id="Torch-and-Flame" transform="translate(23.401950, 223.249377)">
                    <mask id="mask-10" fill="white">
                        <use xlink:href="#path-9"></use>
                    </mask>
                    <use id="Mask" fill="#7092C6" xlink:href="#path-9"></use>
                    <g id="Group-2" mask="url(#mask-10)">
                        <g transform="translate(6.760563, -0.289277)">
                            <path d="M1.13002965,6.30583198 C0.986183737,5.17094358 1.32537423,4.07085178 2.13765173,3.03586331 C3.28288382,1.57630015 4.31467874,0.622690824 5.1685055,0 C5.05878182,0.250802129 4.9756833,0.518371169 4.93042054,0.802145885 C4.77108999,1.80233776 5.10586631,2.77762481 5.92620142,3.70085726 C6.8568908,4.7494557 8.04241097,5.17662609 9.08849939,5.55405699 C10.1586906,5.9396258 10.8277528,6.20656345 11.08945,6.81375014 C11.3965502,7.52518633 11.1727587,8.76790211 10.4210885,10.5896727 L3.77061467,10.5896727 C3.22360782,10.1239173 1.39824308,8.4273023 1.13002965,6.30583198 Z M1.87664347,5.28871467 C2.03349024,6.52931537 4.49027087,7.02513432 5.34488985,7.19879235 C7.3705557,7.61040635 6.57961372,9.25345118 6.57961372,9.25345118 C6.57961372,9.25345118 10.8582802,7.53155218 6.36746182,5.95165052 C1.87664347,4.37174886 4.59634115,0.961909707 4.64055975,0.860836524 C4.14125601,1.2249758 3.57175173,2.00718681 2.90203897,2.86071516 C2.42703254,3.46595928 1.79252476,4.62505073 1.87664347,5.28871467 Z" id="Combined-Shape" stroke="#7092C6" stroke-width="0.5" fill="#FFFFFF"></path>
                            <g id="Group" stroke="none" stroke-width="1" fill="none" transform="translate(0.000000, 9.661845)">
                                <g id="games" fill-rule="nonzero" stroke-width="0.5" stroke="#7092C6">
                                    <g id="Combined-Shape">
                                        <use fill="#FFFFFF" fill-rule="evenodd" xlink:href="#path-11"></use>
                                        <use xlink:href="#path-11"></use>
                                    </g>
                                </g>
                            </g>
                        </g>
                    </g>
                </g>
            </g>
        </g>
    </g>
</svg>