<?xml version="1.0" encoding="UTF-8" standalone="no"?>
<svg width="800px" height="699px" viewBox="0 0 800 699" version="1.1" xmlns="http://www.w3.org/2000/svg" xmlns:xlink="http://www.w3.org/1999/xlink">
    <!-- Generator: Sketch 46.2 (44496) - http://www.bohemiancoding.com/sketch -->
    <title>Folder</title>
    <desc>Created with Sketch.</desc>
    <defs>
        <path d="M58.5796502,184.795553 L42.0038748,184.795553 L42.0038748,184.795553 C39.4513065,184.795553 36.9054909,185.057786 34.4065199,185.578121 C14.2551929,189.774024 1.3207664,209.511354 5.51666969,229.662681 L83.9624631,606.407978 C87.5614564,623.692573 102.794358,636.080396 120.449668,636.080396 L722.764254,636.080396 C741.832165,636.080396 757.824756,621.688174 759.827815,602.725764 L759.827815,602.725764 L799.624608,225.980466 C799.761986,224.679941 799.830818,223.373087 799.830818,222.065326 C799.830818,201.481799 783.144573,184.795553 762.561046,184.795553 L762.561046,184.795553 L234.741263,184.795553 L234.741263,169.855501 C234.741263,154.058841 221.93554,141.253117 206.13888,141.253117 L206.13888,141.253117 L87.1820338,141.253117 L87.1820338,141.253117 C71.3853735,141.253117 58.5796502,154.058841 58.5796502,169.855501 L58.5796502,169.855501 L58.5796502,184.795553 Z" id="path-1"></path>
        <rect id="path-2" x="0" y="0" width="364.029247" height="470.901455" rx="11.2676056"></rect>
        <filter x="-3.6%" y="-2.3%" width="107.1%" height="105.5%" filterUnits="objectBoundingBox" id="filter-3">
            <feOffset dx="0" dy="2" in="SourceAlpha" result="shadowOffsetOuter1"></feOffset>
            <feGaussianBlur stdDeviation="4" in="shadowOffsetOuter1" result="shadowBlurOuter1"></feGaussianBlur>
            <feComposite in="shadowBlurOuter1" in2="SourceAlpha" operator="out" result="shadowBlurOuter1"></feComposite>
            <feColorMatrix values="0 0 0 0 0   0 0 0 0 0   0 0 0 0 0  0 0 0 0.24 0" type="matrix" in="shadowBlurOuter1"></feColorMatrix>
        </filter>
        <ellipse id="path-4" cx="47.6706392" cy="47.6620948" rx="47.6706392" ry="47.6620948"></ellipse>
        <ellipse id="path-5" cx="47.6706392" cy="47.6620948" rx="47.6706392" ry="47.6620948"></ellipse>
        <path d="M36.5548084,48.6617368 C37.722321,50.2458473 38.8108847,51.9465314 39.8195256,53.7316886 C43.2245664,59.7582189 45.8299827,66.7012722 47.6357745,74.5608485 C48.8065641,70.7708567 50.4755467,67.2557246 52.5445268,63.9613758 C52.3502696,63.7746907 52.1602064,63.5840985 51.9745646,63.3897959 C42.7567187,53.741903 44.4401107,34.9457318 84.8880312,31.0613281 C85.0450606,69.5230056 66.1902082,73.4675539 55.1546954,66.0638234 C51.5902252,71.8472241 49.3559963,78.349231 49.0618204,85.8987971 C49.0294963,86.8154908 48.260774,87.532366 47.3448843,87.5000156 C46.4289947,87.4676634 45.7127483,86.6982664 45.7450703,85.7815726 C45.7691258,85.1640725 45.8050848,84.5531379 45.8526649,83.9486132 C43.5230539,71.2999433 40.5495143,61.7743962 36.932046,55.3719719 C36.0236647,53.7642601 35.0495515,52.2334705 34.0113704,50.8084161 C22.909922,58.6380289 3.25273258,54.9353076 4.38016423,15.5985037 C42.6498437,20.2268251 45.7130413,37.4127719 37.8565889,47.2058367 C37.4506922,47.7117868 37.015649,48.1980039 36.5548084,48.6617368 Z" id="path-6"></path>
        <ellipse id="path-7" cx="47.6706392" cy="47.6620948" rx="47.6706392" ry="47.6620948"></ellipse>
        <path d="M58.5796502,242.85665 L37.2731868,242.85665 L37.2731868,242.85665 C36.059948,242.85665 34.8474328,242.915892 33.6399726,243.034164 C13.1544835,245.040733 -1.82564124,263.274148 0.180927551,283.759637 L0.180927551,283.759637 L37.0834077,660.504935 C38.9527999,679.589959 54.9993071,694.141493 74.1756669,694.141493 L74.1756669,694.141493 L722.764254,694.141493 C741.832165,694.141493 757.824756,679.749271 759.827815,660.786861 L799.624608,284.041564 C799.761986,282.741039 799.830818,281.434184 799.830818,280.126423 C799.830818,259.542896 783.144573,242.85665 762.561046,242.85665 L549.512459,242.85665 L459.371614,242.85665 L419.501625,242.85665 L332.827736,242.85665 L234.741263,242.85665 L234.741263,227.916598 C234.741263,212.119938 221.93554,199.314214 206.13888,199.314214 L206.13888,199.314214 L87.1820338,199.314214 L87.1820338,199.314214 C71.3853735,199.314214 58.5796502,212.119938 58.5796502,227.916598 L58.5796502,227.916598 L58.5796502,242.85665 Z" id="path-8"></path>
        <ellipse id="path-9" cx="34.6695558" cy="34.6633416" rx="34.6695558" ry="34.6633416"></ellipse>
        <path d="M8.49434934,18.1489554 L6.9816781,18.1489554 C6.20985675,18.1489554 6.06287775,17.5427029 6.06287775,17.5427029 C5.77868746,17.119675 5.79843682,16.4001585 6.06130201,15.9650668 C6.06130201,15.9650668 6.20985675,15.3567847 6.9816781,15.3567847 L7.51343205,15.3567847 C2.99051884,12.3538609 0,7.21998892 0,1.39608534 C0,0.624402328 0.624514265,0 1.39633562,0 L32.1154111,0 C32.8872325,0 33.5117467,0.624402328 33.5117467,1.39608534 C33.5117467,7.21983486 30.5212279,12.3538609 25.9984688,15.3567847 L26.5302227,15.3567847 C27.3020441,15.3567847 27.4490231,15.9630372 27.4490231,15.9630372 C27.7332133,16.3860651 27.713464,17.1055816 27.4505988,17.5406733 C27.4505988,17.5406733 27.3020441,18.1489554 26.5302227,18.1489554 L25.0175515,18.1489554 L8.49434934,18.1489554 Z M16.7558734,15.3567847 C23.9842446,15.3567847 29.9474082,9.836532 30.6495823,2.79201663 L2.86216444,2.79201663 C3.56433851,9.836532 9.52750211,15.3567847 16.7558734,15.3567847 Z M13.8473288,47.4665935 L11.2973444,18.1489554 L22.2144023,18.1489554 L19.664418,47.4665935 L13.8473288,47.4665935 Z" id="path-11"></path>
    </defs>
    <g id="Page-1" stroke="none" stroke-width="1" fill="none" fill-rule="evenodd">
        <g id="Artboard-33" transform="translate(-183.000000, -388.000000)">
            <g id="Folder" transform="translate(183.000000, 392.000000)">
                <g id="Combined-Shape-Copy">
                    <use fill="#B8C9E1" fill-rule="evenodd" xlink:href="#path-1"></use>
                    <path stroke="#7092C6" stroke-width="2.60021668" d="M59.8797586,169.855501 L59.8797586,186.095662 L42.0038748,186.095662 C39.5403496,186.095662 37.0833415,186.348746 34.6715439,186.85093 C15.2231702,190.900465 2.7399446,209.949283 6.78947917,229.397657 L85.2352726,606.142954 C88.7087196,622.824598 103.410241,634.780288 120.449668,634.780288 L722.764254,634.780288 C741.167005,634.780288 756.601716,620.89012 758.5349,602.589189 L798.331693,225.843892 C798.464279,224.588734 798.53071,223.327467 798.53071,222.065326 C798.53071,202.199829 782.426543,186.095662 762.561046,186.095662 L233.441155,186.095662 L233.441155,169.855501 C233.441155,154.776871 221.21751,142.553226 206.13888,142.553226 L87.1820338,142.553226 C72.1034035,142.553226 59.8797586,154.776871 59.8797586,169.855501 Z"></path>
                </g>
                <g id="Manager-Past-Review-Copy" transform="translate(546.912243, 261.708229) rotate(9.000000) translate(-546.912243, -261.708229) translate(364.897075, 25.997506)">
                    <g id="Rectangle-Copy">
                        <use fill="black" fill-opacity="1" filter="url(#filter-3)" xlink:href="#path-2"></use>
                        <use fill="#FFFFFF" fill-rule="evenodd" xlink:href="#path-2"></use>
                        <rect stroke="#CCCCCC" stroke-width="2.60021668" x="1.30010834" y="1.30010834" width="361.429031" height="468.301239" rx="11.2676056"></rect>
                    </g>
                    <g id="Group-2" transform="translate(28.734153, 16.704386)">
                        <g id="Group-24" transform="translate(0.524300, 0.379520)">
                            <rect id="Rectangle-8" fill="#999999" opacity="0.687674907" transform="translate(157.458973, 38.160823) scale(1, -1) translate(-157.458973, -38.160823) " x="0.439149458" y="37.4920555" width="314.039647" height="1.3375358"></rect>
                            <g id="Group-3" transform="translate(1.486456, 0.002196)" fill="#D8D8D8">
                                <rect id="Rectangle-3" x="-1.39266376e-12" y="16.4650873" width="173.347779" height="12.1321696" rx="6.06608479"></rect>
                                <rect id="Rectangle-3-Copy" x="-1.39266376e-12" y="0.856123248" width="22.8110797" height="9.70793735" rx="4.85396868"></rect>
                            </g>
                        </g>
                        <g id="Group-25-Copy" transform="translate(1.733478, 259.975062)">
                            <g id="Group-21" transform="translate(0.008505, -0.011872)">
                                <g id="Group" transform="translate(12.143055, 38.490117)">
                                    <ellipse id="Oval-2" stroke="#C9C6C6" stroke-width="1.04084356" fill="#FFFFFF" cx="5.10843515" cy="6.62682682" rx="5.10843515" ry="5.11212355"></ellipse>
                                    <rect id="Rectangle" fill="#E7E7E7" x="18.1764393" y="0" width="61.603142" height="13.1746098" rx="1.46384553"></rect>
                                </g>
                                <g id="Group-Copy" transform="translate(12.143055, 61.991693)">
                                    <ellipse id="Oval-2" stroke="#C9C6C6" stroke-width="1.04084356" fill="#FFFFFF" cx="5.10843515" cy="7.35874959" rx="5.10843515" ry="5.11212355"></ellipse>
                                    <rect id="Rectangle" fill="#E7E7E7" x="18.2980691" y="0" width="24.885374" height="13.1746098" rx="1.46384553"></rect>
                                </g>
                                <g id="Group-Copy-2" transform="translate(12.143055, 86.201517)">
                                    <ellipse id="Oval-2" stroke="#C9C6C6" stroke-width="1.04084356" fill="#FFFFFF" cx="5.10843515" cy="6.62682682" rx="5.10843515" ry="5.11212355"></ellipse>
                                    <rect id="Rectangle-Copy-2" fill="#E7E7E7" x="18.2980691" y="0.731922764" width="31.4726789" height="13.1746098" rx="1.46384553"></rect>
                                </g>
                                <g id="Group-Copy-3" transform="translate(12.143055, 108.947495)">
                                    <ellipse id="Oval-2" stroke="#C9C6C6" stroke-width="1.04084356" fill="#FFFFFF" cx="5.10843515" cy="7.35874959" rx="5.10843515" ry="5.11212355"></ellipse>
                                    <rect id="Rectangle-Copy-3" fill="#E7E7E7" x="18.2980691" y="0.675550475" width="37.328061" height="13.1746098" rx="1.46384553"></rect>
                                </g>
                                <g id="Group-Copy-4" transform="translate(12.143055, 132.425396)">
                                    <ellipse id="Oval-2" stroke="#C9C6C6" stroke-width="1.04084356" fill="#FFFFFF" cx="5.10843515" cy="7.35874959" rx="5.10843515" ry="5.11212355"></ellipse>
                                    <rect id="Rectangle-Copy-4" fill="#E7E7E7" x="18.2980691" y="0.619178185" width="73.9241992" height="13.1746098" rx="1.46384553"></rect>
                                </g>
                                <rect id="Rectangle-2" fill="#D8D8D8" x="0" y="0.624158779" width="226.803282" height="9.25677166" rx="4.62838583"></rect>
                                <rect id="Rectangle-2-Copy" fill="#D8D8D8" x="0" y="16.2371169" width="131.746098" height="9.25677166" rx="4.62838583"></rect>
                            </g>
                        </g>
                        <g id="Group-25-Copy-2" transform="translate(1.733478, 71.926434)">
                            <g id="Group-21" transform="translate(0.008505, -0.011561)">
                                <g id="Group" transform="translate(12.143055, 35.889901)">
                                    <ellipse id="Oval-2" stroke="#C9C6C6" stroke-width="1.04084356" fill="#FFFFFF" cx="5.10843515" cy="6.62682682" rx="5.10843515" ry="5.11212355"></ellipse>
                                    <rect id="Rectangle" fill="#E7E7E7" x="18.1764393" y="0" width="61.603142" height="13.1746098" rx="6.58730488"></rect>
                                </g>
                                <g id="Group-Copy" transform="translate(12.143055, 59.391477)">
                                    <ellipse id="Oval-2" stroke="#C9C6C6" stroke-width="1.04084356" fill="#FFFFFF" cx="5.10843515" cy="7.35874959" rx="5.10843515" ry="5.11212355"></ellipse>
                                    <rect id="Rectangle" fill="#E7E7E7" x="18.2980691" y="0" width="24.885374" height="13.1746098" rx="6.58730488"></rect>
                                </g>
                                <g id="Group-Copy-2" transform="translate(12.143055, 83.601300)">
                                    <ellipse id="Oval-2" stroke="#C9C6C6" stroke-width="1.04084356" fill="#FFFFFF" cx="5.10843515" cy="6.62682682" rx="5.10843515" ry="5.11212355"></ellipse>
                                    <rect id="Rectangle-Copy-2" fill="#E7E7E7" x="18.2980691" y="0.731922764" width="31.4726789" height="13.1746098" rx="6.58730488"></rect>
                                </g>
                                <g id="Group-Copy-3" transform="translate(12.143055, 106.347278)">
                                    <ellipse id="Oval-2" stroke="#C9C6C6" stroke-width="1.04084356" fill="#FFFFFF" cx="5.10843515" cy="7.35874959" rx="5.10843515" ry="5.11212355"></ellipse>
                                    <rect id="Rectangle-Copy-3" fill="#E7E7E7" x="18.2980691" y="0.675550475" width="37.328061" height="13.1746098" rx="6.58730488"></rect>
                                </g>
                                <g id="Group-Copy-4" transform="translate(12.143055, 129.825179)">
                                    <ellipse id="Oval-2" stroke="#C9C6C6" stroke-width="1.04084356" fill="#FFFFFF" cx="5.10843515" cy="7.35874959" rx="5.10843515" ry="5.11212355"></ellipse>
                                    <rect id="Rectangle-Copy-4" fill="#E7E7E7" x="18.2980691" y="0.619178185" width="73.9241992" height="13.1746098" rx="6.58730488"></rect>
                                </g>
                                <rect id="Rectangle-2" fill="#D8D8D8" x="0" y="0.452623531" width="261.19461" height="9.25503064" rx="4.62751532"></rect>
                                <rect id="Rectangle-2-Copy" fill="#D8D8D8" x="0" y="15.8230016" width="131.746098" height="9.25503064" rx="4.62751532"></rect>
                            </g>
                        </g>
                    </g>
                </g>
                <g id="Feedback" transform="translate(132.611051, 129.120948)">
                    <ellipse id="Oval-14" stroke="#B574F6" stroke-width="1.73347779" fill="#FFFFFF" cx="47.6706392" cy="47.6620948" rx="47.6706392" ry="47.6620948"></ellipse>
                    <path d="M19.4523614,56.8014814 C20.3566562,57.1037364 20.6590047,57.2149937 20.8250752,57.3369827 C22.8133748,58.7975117 25.20406,59.5827216 27.6968131,59.5827216 C32.3255468,59.5827216 36.4518866,56.858192 38.2869248,52.724274 L38.3450551,52.5933199 L38.4463265,52.4915009 L55.9377018,34.9055448 C59.4424073,31.3979111 64.0930039,29.4638404 69.0257811,29.4638404 C73.979909,29.4638404 78.6322484,31.3992726 82.1170338,34.9092933 C85.609937,38.4221752 87.5366265,43.1069583 87.5406216,48.0935384 C87.5447913,53.0740551 85.6181254,57.7601503 82.1182701,61.2803872 C78.6323604,64.7913809 73.9799119,66.7269327 69.0257811,66.7269327 C64.0723452,66.7269327 59.4197664,64.7917572 55.9367934,61.2842993 L48.8947342,54.2301673 L54.1736975,48.9178562 L54.7310301,49.4741685 L61.2015667,55.9328625 C63.2971208,58.0338488 66.0731499,59.1886503 69.0257811,59.1886503 C71.9776137,59.1886503 74.7536048,58.0341804 76.8451135,55.9371674 C78.9269566,53.8381356 80.0709192,51.0488226 80.0678011,48.0765879 C80.0648393,45.1142649 78.9220953,42.3396022 76.849329,40.2579106 C74.7537737,38.156923 71.9779105,37.0021228 69.0256145,37.0021228 C66.0732227,37.0021228 63.2971215,38.1567541 61.2035048,40.2557623 L40.2873344,61.2850288 C36.7828447,64.7927997 32.132257,66.7269327 27.1993939,66.7269327 C22.2460702,66.7269327 17.5935608,64.7919535 14.1126989,61.2862996 C10.6045936,57.7801557 8.67017193,53.0932112 8.66739234,48.0967025 C8.6644391,43.1137457 10.5902646,38.4279978 14.0875644,34.9103997 C17.5732844,31.3994218 22.2258953,29.4638404 27.1802337,29.4638404 C32.1337456,29.4638404 36.7862724,31.3988367 40.2660896,34.9039628 L47.3263481,41.9516054 L42.054877,47.3028355 L38.3363875,43.5773006 L38.2780303,43.4465137 C36.4382217,39.3232409 32.3176285,36.6080515 27.6968131,36.6080515 C21.3083085,36.6080515 16.1294023,41.7511066 16.1294023,48.0953865 C16.1294023,49.9852624 16.5893195,51.8197486 17.4714049,53.4709623 C17.7685017,54.0271105 17.4793549,54.7023543 16.3913892,56.2955878 L19.4523614,56.8014814 Z M42.0475551,45.0864141 L45.1266002,41.960782 L39.1534336,35.9982786 C35.9652764,32.786944 31.7143658,31.0189808 27.1802337,31.0189808 C22.6453293,31.0189808 18.3943108,32.7874915 15.2023015,36.00263 C11.9948862,39.2286616 10.2306618,43.5212159 10.233373,48.0958153 C10.235925,52.6832519 12.0077018,56.9761213 15.2256533,60.1922816 C18.4144951,63.4038282 22.6654296,65.1717923 27.1993939,65.1717923 C31.7137017,65.1717923 35.9644366,63.4039541 39.1744356,60.1909523 L60.090155,39.1621376 C62.4780333,36.7681089 65.6544419,35.4469824 69.0256145,35.4469824 C72.3967405,35.4469824 75.5729013,36.7683124 77.9623817,39.1639874 C80.3259713,41.5377541 81.6304118,44.7050275 81.6337812,48.0750057 C81.6373273,51.4552274 80.3322312,54.6374307 77.9592571,57.0299928 C75.5727027,59.4228329 72.3963818,60.7437907 69.0257811,60.7437907 C65.6543318,60.7437907 62.4780014,59.4224677 60.0902036,57.0284774 L54.1782191,51.1273156 L51.0973363,54.2276608 L57.0503494,60.1908832 C60.2406758,63.4036336 64.4917103,65.1717923 69.0257811,65.1717923 C73.5604805,65.1717923 77.8113517,63.4033081 81.0035413,60.1881484 C84.2135079,56.9594881 85.9784688,52.6666968 85.9746412,48.0948035 C85.9709724,43.5155907 84.2056677,39.2232177 81.002321,36.0015482 C77.8112265,32.7873455 73.5604794,31.0189808 69.0257811,31.0189808 C64.5115392,31.0189808 60.2607694,32.7867732 57.0505728,35.999649 L39.6601251,53.4841346 C37.548121,58.1026437 32.9020684,61.1378619 27.6968131,61.1378619 C24.8899996,61.1378619 22.1930421,60.2591488 19.9459894,58.6253848 C19.9052824,58.6084032 19.8448886,58.5850593 19.7667917,58.5563214 C19.603205,58.4961253 19.3708681,58.4154825 19.071432,58.3150541 L13.684777,57.4247897 L14.4030988,56.4129651 C15.0276565,55.5332162 15.4789493,54.8505294 15.7536129,54.3720111 C15.848627,54.2064778 15.9198344,54.0697932 15.9663892,53.9663982 C15.0438058,52.1519058 14.5634214,50.1509167 14.5634214,48.0953865 C14.5634214,40.8922263 20.4434411,35.0529111 27.6968131,35.0529111 C32.8930925,35.0529111 37.5326217,38.0776586 39.6497936,42.6841095 L42.0475551,45.0864141 Z" id="Feedback-Copy" fill="#B574F6" fill-rule="nonzero"></path>
                </g>
                <g id="Rapport" transform="translate(248.754063, 151.652120)">
                    <g id="Oval-16">
                        <use fill="#FFFFFF" fill-rule="evenodd" xlink:href="#path-4"></use>
                        <ellipse stroke="#FF9F80" stroke-width="1.73347779" cx="47.6706392" cy="47.6620948" rx="46.8039003" ry="46.7953559"></ellipse>
                    </g>
                    <g transform="translate(16.468039, 25.130923)" id="Combined-Shape" fill="#FF9F80">
                        <path d="M31.6359697,45.9289277 L17.0085858,45.9289277 C16.6328425,45.9289277 16.3282424,45.6243276 16.3282424,45.2485842 L16.3282424,45.2485842 C16.3282424,41.8730966 16.3282424,38.4976089 16.3282424,35.1221212 C16.3282424,29.1536867 23.1817453,24.3153147 31.6359697,24.3153147 C40.090194,24.3153147 46.9436969,29.1536867 46.9436969,35.1221212 C46.9436969,38.4976089 46.9436969,41.8730966 46.9436969,45.2485842 C46.9436969,45.6243276 46.6390968,45.9289277 46.2633535,45.9289277 L46.2633535,45.9289277 L31.6359697,45.9289277 Z M31.9761414,23.6398892 C25.9642485,23.6398892 21.0906464,18.8015172 21.0906464,12.8330827 C21.0906464,6.8646483 25.9642485,2.02627622 31.9761414,2.02627622 C37.9880342,2.02627622 42.8616363,6.8646483 42.8616363,12.8330827 C42.8616363,18.8015172 37.9880342,23.6398892 31.9761414,23.6398892 Z"></path>
                        <path d="M32.6564848,43.7503055 L32.6564848,43.9026515 L61.230909,43.9026515 C61.230909,39.1690451 61.230909,39.0058173 61.230909,34.1089831 C61.230909,28.7887394 54.8943501,24.3153147 46.9436969,24.3153147 C38.9930437,24.3153147 32.6564848,28.7887394 32.6564848,34.1089831 C32.6564848,39.0058173 32.6564848,39.1690451 32.6564848,43.7503055 Z M46.9436969,45.9289277 L32.3163131,45.9289277 C31.3769548,45.9289277 30.6154545,45.172932 30.6154545,44.2403642 L30.6154545,34.1089831 C30.6154545,27.4923578 37.9859015,22.2890384 46.9436969,22.2890384 C55.9014923,22.2890384 63.2719393,27.4923578 63.2719393,34.1089831 L63.2719393,44.2403642 C63.2719393,45.172932 62.510439,45.9289277 61.5710807,45.9289277 L46.9436969,45.9289277 Z M47.2838686,21.613613 C52.7321465,21.613613 57.1488484,17.2288383 57.1488484,11.8199446 C57.1488484,6.41105092 52.7321465,2.02627622 47.2838686,2.02627622 C41.8355907,2.02627622 37.4188889,6.41105092 37.4188889,11.8199446 C37.4188889,17.2288383 41.8355907,21.613613 47.2838686,21.613613 Z M47.2838686,23.6398892 C40.7083608,23.6398892 35.3778585,18.3479198 35.3778585,11.8199446 C35.3778585,5.29196946 40.7083608,0 47.2838686,0 C53.8593764,0 59.1898787,5.29196946 59.1898787,11.8199446 C59.1898787,18.3479198 53.8593764,23.6398892 47.2838686,23.6398892 Z" fill-rule="nonzero"></path>
                        <path d="M2.0410303,43.7503055 L2.0410303,43.9026515 L30.6154545,43.9026515 C30.6154545,39.1690451 30.6154545,39.0058173 30.6154545,34.1089831 C30.6154545,28.7887394 24.2788956,24.3153147 16.3282424,24.3153147 C8.3775892,24.3153147 2.0410303,28.7887394 2.0410303,34.1089831 C2.0410303,39.0058173 2.0410303,39.1690451 2.0410303,43.7503055 Z M16.3282424,45.9289277 L1.70085858,45.9289277 C0.761500326,45.9289277 5.28733061e-15,45.172932 1.81279907e-15,44.2403642 L0,34.1089831 C0,27.4923578 7.37044698,22.2890384 16.3282424,22.2890384 C25.2860378,22.2890384 32.6564848,27.4923578 32.6564848,34.1089831 L32.6564848,44.2403642 C32.6564848,45.172932 31.8949845,45.9289277 30.9556262,45.9289277 L16.3282424,45.9289277 Z M16.6684141,21.613613 C22.116692,21.613613 26.5333939,17.2288383 26.5333939,11.8199446 C26.5333939,6.41105092 22.116692,2.02627622 16.6684141,2.02627622 C11.2201362,2.02627622 6.80343434,6.41105092 6.80343434,11.8199446 C6.80343434,17.2288383 11.2201362,21.613613 16.6684141,21.613613 Z M16.6684141,23.6398892 C10.0929063,23.6398892 4.76240404,18.3479198 4.76240404,11.8199446 C4.76240404,5.29196946 10.0929063,0 16.6684141,0 C23.2439219,0 28.5744242,5.29196946 28.5744242,11.8199446 C28.5744242,18.3479198 23.2439219,23.6398892 16.6684141,23.6398892 Z" fill-rule="nonzero"></path>
                    </g>
                </g>
                <g id="Growth" transform="translate(188.082340, 157.718204)">
                    <g id="Oval">
                        <use fill="#FFFFFF" fill-rule="evenodd" xlink:href="#path-5"></use>
                        <ellipse stroke="#61E7C3" stroke-width="1.73347779" cx="47.6706392" cy="47.6620948" rx="46.8039003" ry="46.7953559"></ellipse>
                    </g>
                    <g id="Combined-Shape">
                        <use fill="#FFFFFF" fill-rule="evenodd" xlink:href="#path-6"></use>
                        <path stroke="#61E7C3" stroke-width="2.60021668" d="M83.5848276,32.5004993 C84.0558686,32.4499848 84.5316968,32.4016383 85.0123149,32.3554823 L83.5879337,31.066636 C83.5899044,31.5493252 83.5888602,32.0272794 83.5848276,32.5004993 Z M5.64761569,17.0693207 C5.65521058,16.5961282 5.6659094,16.1182716 5.67973892,15.6357508 L4.22406702,16.8892072 C4.70341495,16.9471793 5.17793021,17.0072244 5.64761569,17.0693207 Z M83.5848276,32.5004993 C83.4443951,48.9800867 79.6797581,59.7183225 73.405422,64.7476692 C68.2326186,68.8940555 61.4936908,68.7510625 55.8790272,64.9841822 L54.7568984,64.2313455 L54.0479135,65.381683 C50.1852279,71.6489423 48.0532342,78.3920162 47.7626979,85.8481756 C47.7554918,86.0522857 47.5888294,86.2077129 47.3907772,86.2007175 C47.1927249,86.1937216 47.0373396,86.0268116 47.0443713,85.8273851 C47.06751,85.2336461 47.1023904,84.639832 47.1487649,84.0506249 L47.162137,83.8807268 L47.1312679,83.7131222 C44.7777979,70.9349091 41.764396,61.2816656 38.06397,54.7324174 C37.1156875,53.0540861 36.1136386,51.4861366 35.0621909,50.0428719 L34.3083101,49.008061 L33.262048,49.7459672 C27.6167395,53.7274819 20.663271,54.0134565 15.4155515,49.870441 C9.03512785,44.8331684 5.37744184,33.9022573 5.64761569,17.0693207 C22.1290254,19.2482992 32.6633722,23.9529856 37.3750231,30.2447009 C41.2421411,35.408667 40.8086403,41.4484686 36.8424871,46.3922771 C36.4664819,46.8609674 36.0622754,47.3129513 35.6326216,47.7453019 L34.8469821,48.5358724 L35.5082349,49.4330769 C36.6245095,50.9476665 37.6862468,52.5989811 38.6876016,54.3712429 C42.0284848,60.2842215 44.5899328,67.1101059 46.3686799,74.8519722 L47.4511509,79.5633478 L48.8779627,74.9445805 C49.9841763,71.3636294 51.5757121,67.9484873 53.64551,64.6528364 L54.208138,63.7569879 L53.445391,63.0239723 C53.2643562,62.8499941 53.0873551,62.6724931 52.9145917,62.4916697 C48.2530313,57.61263 47.2302297,51.1912355 50.8833711,45.7928976 C55.3657627,39.1691559 66.2237014,34.362308 83.5848276,32.5004993 Z"></path>
                    </g>
                </g>
                <g id="Rapport" transform="translate(312.892741, 179.382793)">
                    <g id="Oval-15">
                        <use fill="#FFFFFF" fill-rule="evenodd" xlink:href="#path-7"></use>
                        <ellipse stroke="#4698DC" stroke-width="1.73347779" cx="47.6706392" cy="47.6620948" rx="46.8039003" ry="46.7953559"></ellipse>
                    </g>
                    <path d="M36.2497562,46.3051475 C35.7538015,46.5622268 35.1498216,46.4705623 34.7513995,46.077746 L29.0749272,40.4811396 L25.4845499,40.4811396 C25.1626292,40.4811396 24.9025727,40.7419007 24.9025727,41.0624312 L24.9025727,58.009411 C24.9025727,58.3299415 25.1626292,58.5907027 25.4845499,58.5907027 L27.6422603,58.5907027 L38.0799316,67.7401477 C38.4719449,68.0837783 38.9640425,68.2918583 39.483394,68.3334833 C46.8701185,68.9255154 50.5184535,68.6232299 53.8201507,67.583648 C55.3209542,67.1111006 58.9337931,63.6048761 64.3998872,57.2149439 L46.6787126,40.8992746 L36.2497562,46.3051475 Z M46.1277327,39.4285929 C46.6092569,39.1789937 47.1944347,39.2575453 47.593997,39.6254174 L66.5555837,57.083119 L66.0682172,57.6565647 C60.0775085,64.7053601 56.2435505,68.4564396 54.2839955,69.0734308 C50.7756497,70.1780787 46.9321362,70.4965359 39.3600616,69.8896483 C38.5092186,69.8214548 37.7027516,69.4804461 37.0598946,68.916931 L27.0606506,60.1518022 L25.4845499,60.1518022 C24.3062871,60.1518022 23.3502046,59.193129 23.3502046,58.009411 L23.3502046,41.0624312 C23.3502046,39.8787132 24.3062871,38.92004 25.4845499,38.92004 L29.1806002,38.92004 C29.5192643,38.92004 29.844424,39.0535928 30.0862519,39.2920184 L35.7046856,44.8314027 L46.1277327,39.4285929 Z M69.7752639,56.5271586 C70.0317815,56.5271586 70.2388183,56.3195607 70.2388183,56.0646105 L70.2388183,38.3538848 C70.2388183,38.0989346 70.0317815,37.8913367 69.7752639,37.8913367 L67.0277218,37.8913367 L51.0805904,27.4510726 C48.9227872,26.421749 47.2776286,26.451043 46.1005593,27.4679561 C45.3198887,28.1424059 40.3077788,32.2938636 31.0316167,39.9495526 L35.7364203,44.8328779 L46.124036,39.4327014 C46.6069521,39.1816494 47.1944269,39.2609994 47.5943537,39.6312967 L65.8421459,56.5271586 L69.7752639,56.5271586 Z M69.7752639,36.3302372 C70.8881236,36.3302372 71.7911864,37.235747 71.7911864,38.3538848 L71.7911864,56.0646105 C71.7911864,57.1827482 70.8881236,58.0882581 69.7752639,58.0882581 L65.2363281,58.0882581 L46.6760693,40.9030795 L36.278483,46.3084393 C35.7714288,46.57204 35.1525031,46.4702901 34.7553186,46.0580347 L29.7211987,40.8328996 C29.2240528,40.3168899 29.2370053,39.4932983 29.7501288,38.9933561 C39.2189366,31.1732048 44.3165096,26.9511779 45.0889606,26.2838294 C46.8045862,24.8016379 49.111718,24.7702015 51.7966782,26.0649658 L67.4885101,36.3302372 L69.7752639,36.3302372 Z M74.8370822,37.0997808 C74.6941907,37.0997808 74.5783542,37.2162688 74.5783542,37.3599641 L74.5783542,56.0931587 C74.5783542,56.2368539 74.6941907,56.3533419 74.8370822,56.3533419 L80.5290988,56.3533419 C80.6719904,56.3533419 80.7878268,56.2368539 80.7878268,56.0931587 L80.7878268,37.3599641 C80.7878268,37.2162688 80.6719904,37.0997808 80.5290988,37.0997808 L74.8370822,37.0997808 Z M74.8370822,35.5386813 L80.5290988,35.5386813 C81.5293396,35.5386813 82.340195,36.3540974 82.340195,37.3599641 L82.340195,56.0931587 C82.340195,57.0990254 81.5293396,57.9144415 80.5290988,57.9144415 L74.8370822,57.9144415 C73.8368414,57.9144415 73.025986,57.0990254 73.025986,56.0931587 L73.025986,37.3599641 C73.025986,36.3540974 73.8368414,35.5386813 74.8370822,35.5386813 Z M14.8121796,39.7016134 C14.6692881,39.7016134 14.5534516,39.8181014 14.5534516,39.9617967 L14.5534516,58.6949912 C14.5534516,58.8386865 14.6692881,58.9551745 14.8121796,58.9551745 L20.5041962,58.9551745 C20.6470878,58.9551745 20.7629243,58.8386865 20.7629243,58.6949912 L20.7629243,39.9617967 C20.7629243,39.8181014 20.6470878,39.7016134 20.5041962,39.7016134 L14.8121796,39.7016134 Z M14.8121796,38.1405139 L20.5041962,38.1405139 C21.5044371,38.1405139 22.3152924,38.9559299 22.3152924,39.9617967 L22.3152924,58.6949912 C22.3152924,59.700858 21.5044371,60.5162741 20.5041962,60.5162741 L14.8121796,60.5162741 C13.8119388,60.5162741 13.0010834,59.700858 13.0010834,58.6949912 L13.0010834,39.9617967 C13.0010834,38.9559299 13.8119388,38.1405139 14.8121796,38.1405139 Z" id="Combined-Shape" fill="#4698DC" fill-rule="nonzero"></path>
                </g>
                <g id="Combined-Shape">
                    <use fill="#FFFFFF" fill-rule="evenodd" xlink:href="#path-8"></use>
                    <path stroke="#7092C6" stroke-width="2.60021668" d="M59.8797586,227.916598 L59.8797586,244.156759 L37.2731868,244.156759 C36.1022703,244.156759 34.9320521,244.213934 33.7667126,244.32808 C13.9958336,246.264652 -0.461728632,263.862018 1.47484357,283.632897 L38.3773237,660.378195 C40.1815046,678.797462 55.6682499,692.841385 74.1756669,692.841385 L722.764254,692.841385 C741.167005,692.841385 756.601716,678.951217 758.5349,660.650287 L798.331693,283.904989 C798.464279,282.649831 798.53071,281.388564 798.53071,280.126423 C798.53071,260.260926 782.426543,244.156759 762.561046,244.156759 L233.441155,244.156759 L233.441155,227.916598 C233.441155,212.837968 221.21751,200.614323 206.13888,200.614323 L87.1820338,200.614323 C72.1034035,200.614323 59.8797586,212.837968 59.8797586,227.916598 Z"></path>
                </g>
                <g id="Torch-and-Flame" transform="translate(62.405200, 594.476309)">
                    <mask id="mask-10" fill="white">
                        <use xlink:href="#path-9"></use>
                    </mask>
                    <use id="Mask" fill="#7092C6" xlink:href="#path-9"></use>
                    <g id="Group-2" mask="url(#mask-10)">
                        <g transform="translate(18.028169, -0.770296)">
                            <path d="M3.01341241,16.7913917 C2.6298233,13.7693708 3.53433128,10.8400076 5.70040461,8.08400382 C8.75435687,4.1974276 11.50581,1.65812307 13.7826813,0 C13.4900849,0.667844749 13.2684888,1.38033702 13.1477881,2.13598234 C12.7229066,4.79932852 13.6156435,7.39635724 15.8032038,9.85477316 C18.2850421,12.647018 21.4464293,13.7845024 24.2359984,14.7895387 C27.0898416,15.8162449 28.8740074,16.5270559 29.5718668,18.1438941 C30.3908005,20.0383314 29.7940233,23.3474788 27.7895694,28.1985536 L10.0549724,28.1985536 C8.59628751,26.9583239 3.72864821,22.4405176 3.01341241,16.7913917 Z M5.00438259,14.0829758 C5.42264064,17.3864911 11.9740556,18.7067753 14.2530396,19.169198 C19.6548152,20.2652583 17.5456366,24.640416 17.5456366,24.640416 C17.5456366,24.640416 28.9554138,20.0552826 16.9798982,15.8482648 C5.00438259,11.641247 12.2569097,2.56140707 12.374826,2.29226584 C11.0433494,3.26190875 9.52467129,5.34480778 7.73877059,7.61761318 C6.47208678,9.22927855 4.78006603,12.3157481 5.00438259,14.0829758 Z" id="Combined-Shape" stroke="#7092C6" stroke-width="0.832069339" fill="#FFFFFF"></path>
                            <g id="Group" stroke="none" stroke-width="1" fill="none" transform="translate(0.000000, 25.727902)">
                                <g id="games" fill-rule="nonzero" stroke-width="0.832069339" stroke="#7092C6">
                                    <g id="Combined-Shape">
                                        <use fill="#FFFFFF" fill-rule="evenodd" xlink:href="#path-11"></use>
                                        <use xlink:href="#path-11"></use>
                                    </g>
                                </g>
                            </g>
                        </g>
                    </g>
                </g>
            </g>
        </g>
    </g>
</svg>