<?xml version="1.0" encoding="UTF-8" standalone="no"?>
<svg width="800px" height="449px" viewBox="0 0 800 449" version="1.1" xmlns="http://www.w3.org/2000/svg" xmlns:xlink="http://www.w3.org/1999/xlink">
    <!-- Generator: Sketch 46.2 (44496) - http://www.bohemiancoding.com/sketch -->
    <title>Group 14</title>
    <desc>Created with Sketch.</desc>
    <defs></defs>
    <g id="Professional-Projects" stroke="none" stroke-width="1" fill="none" fill-rule="evenodd">
        <g id="Artboard-4" transform="translate(-366.000000, -194.000000)">
            <g id="Group-14" transform="translate(367.000000, 186.000000)">
                <g id="Group-11">
                    <g id="Group-9">
                        <g id="Group-8" transform="translate(0.000000, 69.098469)">
                            <path d="M380.33599,136.277536 L380.33599,200.372661" id="Line-6" stroke="#3F5E8C" stroke-width="1.2784403" stroke-linecap="square"></path>
                            <path d="M380.33599,166.987967 L729.989413,167.307867" id="Line-7" stroke="#3F5E8C" stroke-width="1.2784403" stroke-linecap="square"></path>
                            <path d="M380.33599,335.895336 L380.33599,385.799786" id="Line-6-Copy" stroke="#3F5E8C" stroke-width="1.2784403" stroke-linecap="square"></path>
                            <path d="M554.203871,335.895336 L554.203871,385.799786" id="Line-6-Copy-2" stroke="#3F5E8C" stroke-width="1.2784403" stroke-linecap="square"></path>
                            <path d="M729.350193,335.895336 L729.350193,385.159985" id="Line-6-Copy-3" stroke="#3F5E8C" stroke-width="1.2784403" stroke-linecap="square"></path>
                            <g id="Group-7">
                                <g id="Group-6">
                                    <rect id="Rectangle-13" stroke="#3F5E8C" stroke-width="1.95121951" fill="#4689DC" x="0" y="0" width="136.793112" height="136.917337" rx="6.39220151"></rect>
                                    <path d="M38.5404806,70.7535034 C38.5404806,73.4676712 37.7876566,75.5426289 36.281986,76.9784387 C34.7763154,78.4142485 32.6077327,79.1321426 29.7761731,79.1321426 L25.1805298,79.1321426 L25.1805298,62.689766 L30.2593336,62.689766 C32.8736572,62.689766 34.9074057,63.3945394 36.36064,64.8041072 C37.8138743,66.213675 38.5404806,68.1967873 38.5404806,70.7535034 Z M35.7089351,70.8434754 C35.7089351,66.9071822 33.8699471,64.9390652 30.1919159,64.9390652 L27.8660035,64.9390652 L27.8660035,76.871597 L29.7761731,76.871597 C33.7313675,76.871597 35.7089351,74.8622432 35.7089351,70.8434754 Z M44.4538663,79.1321426 L41.8133377,79.1321426 L41.8133377,66.6935185 L44.4538663,66.6935185 L44.4538663,79.1321426 Z M41.6560296,63.3982953 C41.6560296,62.9259401 41.7852457,62.562307 42.0436817,62.3073852 C42.3021177,62.0524633 42.6710389,61.9250043 43.1504564,61.9250043 C43.6148922,61.9250043 43.9763226,62.0524633 44.2347586,62.3073852 C44.4931946,62.562307 44.6224107,62.9259401 44.6224107,63.3982953 C44.6224107,63.8481573 44.4931946,64.2024184 44.2347586,64.4610891 C43.9763226,64.7197598 43.6148922,64.8490932 43.1504564,64.8490932 C42.6710389,64.8490932 42.3021177,64.7197598 42.0436817,64.4610891 C41.7852457,64.2024184 41.6560296,63.8481573 41.6560296,63.3982953 Z M54.5583888,66.4685886 C55.0902426,66.4685886 55.5284536,66.5060765 55.8730349,66.5810535 L55.6146002,69.0440361 C55.2400553,68.9540636 54.8505344,68.9090781 54.4460258,68.9090781 C53.3898091,68.9090781 52.5339868,69.2539672 51.8785332,69.9437557 C51.2230796,70.6335442 50.8953577,71.5295061 50.8953577,72.6316682 L50.8953577,79.1321426 L48.2548291,79.1321426 L48.2548291,66.6935185 L50.3223068,66.6935185 L50.6706318,68.8865851 L50.8054673,68.8865851 C51.2174668,68.1443127 51.7549307,67.555752 52.4178752,67.1208853 C53.0808197,66.6860186 53.7943171,66.4685886 54.5583888,66.4685886 Z M63.1684844,79.3570725 C61.2358326,79.3570725 59.7245665,78.792879 58.6346407,77.664475 C57.544715,76.5360709 56.9997603,74.9821956 56.9997603,73.0028025 C56.9997603,70.9709255 57.5053884,69.3739391 58.5166597,68.2117954 C59.527931,67.0496517 60.9174718,66.4685886 62.6853239,66.4685886 C64.3258307,66.4685886 65.6217367,66.9671782 66.5730808,67.9643725 C67.524425,68.9615667 68.0000899,70.3336255 68.0000899,72.0805899 L68.0000899,73.5088948 L59.7189429,73.5088948 C59.7563974,74.7160247 60.0822466,75.6438513 60.6965003,76.2924025 C61.310754,76.9409536 62.1759398,77.2652244 63.2920837,77.2652244 C64.0261917,77.2652244 64.709726,77.1958717 65.3427069,77.0571642 C65.9756878,76.9184567 66.6554767,76.6879059 67.3820938,76.3655047 L67.3820938,78.5135854 C66.7378766,78.8209911 66.0861782,79.0384212 65.4269791,79.1658821 C64.76778,79.293343 64.014956,79.3570725 63.1684844,79.3570725 Z M62.6853239,68.4704648 C61.8463433,68.4704648 61.1740452,68.7366292 60.6684095,69.268966 C60.1627739,69.8013028 59.8612697,70.5773032 59.7638881,71.5969906 L65.4045065,71.5969906 C65.3895247,70.5698055 65.1423288,69.7919307 64.6629112,69.2633427 C64.1834937,68.7347548 63.5243045,68.4704648 62.6853239,68.4704648 Z M76.0371347,79.3570725 C74.1569191,79.3570725 72.7280517,78.8078742 71.7504894,77.7094609 C70.7729271,76.6110477 70.2841533,75.0346797 70.2841533,72.9803095 C70.2841533,70.8884509 70.7953995,69.2802181 71.8179072,68.1555629 C72.8404148,67.0309077 74.3179724,66.4685886 76.2506242,66.4685886 C77.5615315,66.4685886 78.7413303,66.7122602 79.7900561,67.1996108 L78.9922794,69.3251985 C77.8761355,68.8903318 76.9547688,68.6729017 76.2281517,68.6729017 C74.0782638,68.6729017 73.0033359,70.1011924 73.0033359,72.9578165 C73.0033359,74.352389 73.2711315,75.400177 73.8067308,76.1012121 C74.34233,76.8022471 75.1269899,77.1527594 76.1607339,77.1527594 C77.336805,77.1527594 78.4491867,76.8603534 79.4979125,76.2755327 L79.4979125,78.5810643 C79.0259859,78.8584793 78.5222306,79.0571654 77.9866313,79.1771286 C77.4510321,79.2970918 76.8012064,79.3570725 76.0371347,79.3570725 Z M87.0742694,77.2202384 C87.7184867,77.2202384 88.3626943,77.1190209 89.0069116,76.916583 L89.0069116,78.9072127 C88.7147665,79.0346736 88.3383545,79.1415143 87.8776642,79.2277378 C87.416974,79.3139614 86.9394364,79.3570725 86.4450371,79.3570725 C83.9430769,79.3570725 82.6921156,78.0374969 82.6921156,75.3983061 L82.6921156,68.6953947 L80.9954356,68.6953947 L80.9954356,67.5257592 L82.8157148,66.5585605 L83.7146182,63.9268806 L85.3438805,63.9268806 L85.3438805,66.6935185 L88.8833124,66.6935185 L88.8833124,68.6953947 L85.3438805,68.6953947 L85.3438805,75.3533201 C85.3438805,75.9906247 85.5030597,76.4610984 85.8214229,76.7647553 C86.1397861,77.0684122 86.5573974,77.2202384 87.0742694,77.2202384 Z M102.538503,72.8903376 C102.538503,74.9222146 102.017893,76.5079546 100.976658,77.6476052 C99.9354236,78.7872558 98.4859564,79.3570725 96.6282136,79.3570725 C95.4671243,79.3570725 94.4408866,79.0946569 93.5494696,78.5698179 C92.6580527,78.0449788 91.9726458,77.2914711 91.4932283,76.3092722 C91.0138107,75.3270734 90.7741056,74.1874399 90.7741056,72.8903376 C90.7741056,70.8734559 91.2909698,69.2989623 92.3247138,68.1668094 C93.3584579,67.0346565 94.8154158,66.4685886 96.6956313,66.4685886 C98.493447,66.4685886 99.9166964,67.0477773 100.965422,68.2061721 C102.014148,69.364567 102.538503,70.9259398 102.538503,72.8903376 Z M93.4932882,72.8903376 C93.4932882,75.7619571 94.5532344,77.1977454 96.6731587,77.1977454 C98.7706104,77.1977454 99.8193204,75.7619571 99.8193204,72.8903376 C99.8193204,70.0487088 98.7631196,68.6279157 96.6506862,68.6279157 C95.5420332,68.6279157 94.7386463,68.9952976 94.2405016,69.7300723 C93.7423568,70.464847 93.4932882,71.5182582 93.4932882,72.8903376 Z M111.90143,66.4685886 C112.433284,66.4685886 112.871495,66.5060765 113.216076,66.5810535 L112.957642,69.0440361 C112.583097,68.9540636 112.193576,68.9090781 111.789067,68.9090781 C110.732851,68.9090781 109.877028,69.2539672 109.221575,69.9437557 C108.566121,70.6335442 108.238399,71.5295061 108.238399,72.6316682 L108.238399,79.1321426 L105.597871,79.1321426 L105.597871,66.6935185 L107.665348,66.6935185 L108.013673,68.8865851 L108.148509,68.8865851 C108.560508,68.1443127 109.097972,67.555752 109.760917,67.1208853 C110.423861,66.6860186 111.137359,66.4685886 111.90143,66.4685886 Z" id="Director" fill="#FFFFFF"></path>
                                </g>
                                <g id="Group-6-Copy" transform="translate(311.939434, 0.000000)">
                                    <rect id="Rectangle-13" stroke="#3F5E8C" stroke-width="1.95121951" fill="#4689DC" x="0" y="0" width="136.793112" height="136.917337" rx="6.39220151"></rect>
                                    <path d="M32.2818661,79.1321426 L27.5176784,65.4001715 L27.4277881,65.4001715 C27.5551334,67.4395462 27.6188051,69.3514314 27.6188051,71.1358842 L27.6188051,79.1321426 L25.1805298,79.1321426 L25.1805298,62.689766 L28.9671601,62.689766 L33.5290945,75.7694404 L33.5965123,75.7694404 L38.2932822,62.689766 L42.0911488,62.689766 L42.0911488,79.1321426 L39.5068017,79.1321426 L39.5068017,71.0009263 C39.5068017,70.1836769 39.5274014,69.1190193 39.5686013,67.8069215 C39.6098012,66.4948238 39.6453825,65.7000794 39.6753461,65.4226645 L39.5854557,65.4226645 L34.6527237,79.1321426 L32.2818661,79.1321426 Z M53.9372965,79.1321426 L53.4091908,77.4001823 L53.3193005,77.4001823 C52.7200286,78.1574501 52.1170203,78.6729094 51.5102575,78.9465755 C50.9034947,79.2202415 50.1244529,79.3570725 49.1731088,79.3570725 C47.9520923,79.3570725 46.9988898,79.0271786 46.3134726,78.3673809 C45.6280553,77.7075832 45.2853519,76.7741334 45.2853519,75.5670035 C45.2853519,74.2848966 45.7610168,73.3177077 46.7123609,72.6654076 C47.663705,72.0131076 49.1131722,71.6569722 51.0608058,71.5969906 L53.2069375,71.5295116 L53.2069375,70.8659684 C53.2069375,70.071212 53.0215406,69.4770281 52.6507411,69.0833988 C52.2799416,68.6897695 51.7050238,68.4929578 50.9259703,68.4929578 C50.2892439,68.4929578 49.6787449,68.5866776 49.0944548,68.7741202 C48.5101647,68.9615627 47.9483557,69.1827416 47.409011,69.4376634 L46.5550528,67.5482521 C47.2292337,67.1958602 47.9670762,66.9278214 48.7686023,66.7441277 C49.5701285,66.560434 50.3266979,66.4685886 51.0383332,66.4685886 C52.6189128,66.4685886 53.8118205,66.8134776 54.6170921,67.5032662 C55.4223637,68.1930547 55.8249935,69.2764563 55.8249935,70.7535034 L55.8249935,79.1321426 L53.9372965,79.1321426 Z M50.0045944,77.3327033 C50.9634294,77.3327033 51.7331077,77.0646645 52.3136523,76.5285789 C52.894197,75.9924933 53.184465,75.24086 53.184465,74.2736565 L53.184465,73.1939929 L51.5889115,73.2614719 C50.3454224,73.3064581 49.4409099,73.5145162 48.8753471,73.8856524 C48.3097842,74.2567886 48.0270071,74.824731 48.0270071,75.5894965 C48.0270071,76.1443264 48.1918043,76.5735634 48.5214039,76.8772203 C48.8510034,77.1808772 49.3453953,77.3327033 50.0045944,77.3327033 Z M70.4689778,79.1321426 L67.817213,79.1321426 L67.817213,71.4845256 C67.817213,70.5248199 67.6243253,69.8088001 67.238544,69.3364449 C66.8527627,68.8640898 66.2403909,68.6279157 65.4014103,68.6279157 C64.2852664,68.6279157 63.4687707,68.9578096 62.9518987,69.6176073 C62.4350267,70.277405 62.1765946,71.3832994 62.1765946,72.9353235 L62.1765946,79.1321426 L59.536066,79.1321426 L59.536066,66.6935185 L61.6035437,66.6935185 L61.9743413,68.3242603 L62.1091768,68.3242603 C62.4837217,67.7319419 63.0155676,67.274589 63.7047302,66.9521879 C64.3938929,66.6297867 65.1579531,66.4685886 65.9969337,66.4685886 C68.9783114,66.4685886 70.4689778,67.9868503 70.4689778,71.0234193 L70.4689778,79.1321426 Z M81.9443279,79.1321426 L81.4162222,77.4001823 L81.3263319,77.4001823 C80.72706,78.1574501 80.1240517,78.6729094 79.5172889,78.9465755 C78.9105261,79.2202415 78.1314843,79.3570725 77.1801402,79.3570725 C75.9591238,79.3570725 75.0059212,79.0271786 74.320504,78.3673809 C73.6350868,77.7075832 73.2923833,76.7741334 73.2923833,75.5670035 C73.2923833,74.2848966 73.7680482,73.3177077 74.7193923,72.6654076 C75.6707365,72.0131076 77.1202036,71.6569722 79.0678372,71.5969906 L81.213969,71.5295116 L81.213969,70.8659684 C81.213969,70.071212 81.028572,69.4770281 80.6577725,69.0833988 C80.286973,68.6897695 79.7120552,68.4929578 78.9330017,68.4929578 C78.2962754,68.4929578 77.6857763,68.5866776 77.1014862,68.7741202 C76.5171961,68.9615627 75.9553871,69.1827416 75.4160424,69.4376634 L74.5620843,67.5482521 C75.2362651,67.1958602 75.9741076,66.9278214 76.7756337,66.7441277 C77.5771599,66.560434 78.3337293,66.4685886 79.0453647,66.4685886 C80.6259443,66.4685886 81.818852,66.8134776 82.6241236,67.5032662 C83.4293952,68.1930547 83.8320249,69.2764563 83.8320249,70.7535034 L83.8320249,79.1321426 L81.9443279,79.1321426 Z M78.0116258,77.3327033 C78.9704608,77.3327033 79.7401391,77.0646645 80.3206838,76.5285789 C80.9012284,75.9924933 81.1914964,75.24086 81.1914964,74.2736565 L81.1914964,73.1939929 L79.5959429,73.2614719 C78.3524538,73.3064581 77.4479413,73.5145162 76.8823785,73.8856524 C76.3168157,74.2567886 76.0340385,74.824731 76.0340385,75.5894965 C76.0340385,76.1443264 76.1988358,76.5735634 76.5284353,76.8772203 C76.8580348,77.1808772 77.3524267,77.3327033 78.0116258,77.3327033 Z M98.0377939,66.6935185 L98.0377939,68.1443164 L95.9141348,68.5379438 C96.1088981,68.8003633 96.26995,69.1227596 96.3972953,69.5051424 C96.5246406,69.8875251 96.5883123,70.2923949 96.5883123,70.7197639 C96.5883123,72.0018708 96.1463559,73.0102965 95.2624298,73.7450712 C94.3785038,74.479846 93.161251,74.8472278 91.610635,74.8472278 C91.2136174,74.8472278 90.8540597,74.8172374 90.531951,74.7572558 C89.9626427,75.1096478 89.6779928,75.5220152 89.6779928,75.9943704 C89.6779928,76.279283 89.8109543,76.4929643 90.0768812,76.6354206 C90.3428081,76.7778769 90.8315819,76.849104 91.5432173,76.849104 L93.7118216,76.849104 C95.082656,76.849104 96.1238753,77.14151 96.8355107,77.7263307 C97.547146,78.3111514 97.9029584,79.1546301 97.9029584,80.2567922 C97.9029584,81.66636 97.3224225,82.7535104 96.1613332,83.5182759 C95.0002439,84.2830415 93.3223078,84.6654185 91.1274745,84.6654185 C89.4345314,84.6654185 88.1423708,84.3655149 87.2509538,83.7656988 C86.3595369,83.1658827 85.9138351,82.3111576 85.9138351,81.2014978 C85.9138351,80.4367323 86.155413,79.7938141 86.6385759,79.2727238 C87.1217389,78.7516336 87.7977824,78.3898749 88.6667266,78.187437 C88.3146544,78.037483 88.0243864,77.7956857 87.795914,77.462038 C87.5674416,77.1283903 87.4532071,76.7778781 87.4532071,76.4104907 C87.4532071,75.9456332 87.5842958,75.5520098 87.8464773,75.2296087 C88.1086587,74.9072075 88.4981796,74.58856 89.0150516,74.2736565 C88.3708344,73.9962416 87.848352,73.5445119 87.4475889,72.9184538 C87.0468259,72.2923957 86.8464473,71.5595064 86.8464473,70.7197639 C86.8464473,69.3701777 87.2715495,68.3242641 88.1217664,67.5819916 C88.9719834,66.8397192 90.1836181,66.4685886 91.7567068,66.4685886 C92.108779,66.4685886 92.4777003,66.4929557 92.8634816,66.5416908 C93.2492628,66.5904258 93.5395308,66.6410346 93.7342942,66.6935185 L98.0377939,66.6935185 Z M88.2734564,81.0665399 C88.2734564,81.6363652 88.5300158,82.0749741 89.0431424,82.3823799 C89.5562689,82.6897856 90.2772571,82.8434862 91.2061285,82.8434862 C92.6443811,82.8434862 93.7155635,82.6373025 94.419708,82.2249289 C95.1238524,81.8125554 95.4759194,81.2652314 95.4759194,80.5829406 C95.4759194,80.0431061 95.2830316,79.6588547 94.8972504,79.4301748 C94.5114691,79.2014949 93.7942263,79.0871566 92.7455005,79.0871566 L90.7454406,79.0871566 C89.9888598,79.0871566 89.3877242,79.2652244 88.9420157,79.6213652 C88.4963073,79.977506 88.2734564,80.4592261 88.2734564,81.0665399 Z M89.4083218,70.7197639 C89.4083218,71.4995248 89.6087004,72.0993319 90.0094635,72.5192032 C90.4102265,72.9390745 90.9851444,73.149007 91.7342342,73.149007 C93.2623775,73.149007 94.0264377,72.3317698 94.0264377,70.6972709 C94.0264377,69.8875192 93.8372954,69.2633449 93.459005,68.8247294 C93.0807146,68.3861139 92.5057968,68.1668094 91.7342342,68.1668094 C90.9701626,68.1668094 90.3914993,68.3842395 89.9982272,68.8191061 C89.604955,69.2539728 89.4083218,69.8875191 89.4083218,70.7197639 Z M105.793931,79.3570725 C103.86128,79.3570725 102.350013,78.792879 101.260088,77.664475 C100.170162,76.5360709 99.6252072,74.9821956 99.6252072,73.0028025 C99.6252072,70.9709255 100.130835,69.3739391 101.142107,68.2117954 C102.153378,67.0496517 103.542919,66.4685886 105.310771,66.4685886 C106.951278,66.4685886 108.247184,66.9671782 109.198528,67.9643725 C110.149872,68.9615667 110.625537,70.3336255 110.625537,72.0805899 L110.625537,73.5088948 L102.34439,73.5088948 C102.381844,74.7160247 102.707694,75.6438513 103.321947,76.2924025 C103.936201,76.9409536 104.801387,77.2652244 105.917531,77.2652244 C106.651639,77.2652244 107.335173,77.1958717 107.968154,77.0571642 C108.601135,76.9184567 109.280924,76.6879059 110.007541,76.3655047 L110.007541,78.5135854 C109.363324,78.8209911 108.711625,79.0384212 108.052426,79.1658821 C107.393227,79.293343 106.640403,79.3570725 105.793931,79.3570725 Z M105.310771,68.4704648 C104.47179,68.4704648 103.799492,68.7366292 103.293856,69.268966 C102.788221,69.8013028 102.486717,70.5773032 102.389335,71.5969906 L108.029953,71.5969906 C108.014972,70.5698055 107.767776,69.7919307 107.288358,69.2633427 C106.808941,68.7347548 106.149752,68.4704648 105.310771,68.4704648 Z M119.954755,66.4685886 C120.486609,66.4685886 120.92482,66.5060765 121.269401,66.5810535 L121.010967,69.0440361 C120.636422,68.9540636 120.246901,68.9090781 119.842392,68.9090781 C118.786176,68.9090781 117.930353,69.2539672 117.2749,69.9437557 C116.619446,70.6335442 116.291724,71.5295061 116.291724,72.6316682 L116.291724,79.1321426 L113.651196,79.1321426 L113.651196,66.6935185 L115.718673,66.6935185 L116.066998,68.8865851 L116.201834,68.8865851 C116.613833,68.1443127 117.151297,67.555752 117.814242,67.1208853 C118.477186,66.6860186 119.190684,66.4685886 119.954755,66.4685886 Z" id="Manager" fill="#FFFFFF"></path>
                                </g>
                                <g id="Group-6-Copy-2" transform="translate(311.939434, 199.617800)">
                                    <rect id="Rectangle-13" stroke="#3F5E8C" stroke-width="1.95121951" fill="#4689DC" x="0" y="0" width="136.793112" height="136.917337" rx="6.39220151"></rect>
                                    <path d="M46.8154352,63.7769273 L44.1299614,63.7769273 L44.1299614,49.6400823 L39.298356,49.6400823 L39.298356,47.3345507 L51.6470406,47.3345507 L51.6470406,49.6400823 L46.8154352,49.6400823 L46.8154352,63.7769273 Z M57.7289707,64.0018572 C55.7963188,64.0018572 54.2850527,63.4376636 53.1951269,62.3092596 C52.1052012,61.1808556 51.5602465,59.6269803 51.5602465,57.6475872 C51.5602465,55.6157101 52.0658746,54.0187237 53.0771459,52.85658 C54.0884172,51.6944363 55.477958,51.1133732 57.2458101,51.1133732 C58.8863169,51.1133732 60.1822229,51.6119629 61.133567,52.6091571 C62.0849112,53.6063514 62.5605761,54.9784101 62.5605761,56.7253745 L62.5605761,58.1536795 L54.2794291,58.1536795 C54.3168836,59.3608094 54.6427328,60.288636 55.2569865,60.9371871 C55.8712402,61.5857383 56.736426,61.910009 57.8525699,61.910009 C58.5866779,61.910009 59.2702122,61.8406563 59.9031931,61.7019488 C60.536174,61.5632414 61.2159629,61.3326905 61.9425801,61.0102894 L61.9425801,63.15837 C61.2983628,63.4657758 60.6466644,63.6832058 59.9874653,63.8106668 C59.3282662,63.9381277 58.5754422,64.0018572 57.7289707,64.0018572 Z M57.2458101,53.1152494 C56.4068295,53.1152494 55.7345314,53.3814138 55.2288957,53.9137506 C54.7232601,54.4460874 54.4217559,55.2220878 54.3243743,56.2417752 L59.9649927,56.2417752 C59.9500109,55.2145901 59.702815,54.4367153 59.2233975,53.9081274 C58.7439799,53.3795394 58.0847908,53.1152494 57.2458101,53.1152494 Z M73.3617487,63.7769273 L72.833643,62.044967 L72.7437526,62.044967 C72.1444807,62.8022348 71.5414724,63.317694 70.9347097,63.5913601 C70.3279469,63.8650262 69.5489051,64.0018572 68.597561,64.0018572 C67.3765445,64.0018572 66.423342,63.6719633 65.7379247,63.0121656 C65.0525075,62.3523679 64.709804,61.4189181 64.709804,60.2117882 C64.709804,58.9296813 65.185469,57.9624923 66.1368131,57.3101923 C67.0881572,56.6578923 68.5376243,56.3017568 70.485258,56.2417752 L72.6313897,56.1742962 L72.6313897,55.510753 C72.6313897,54.7159967 72.4459927,54.1218128 72.0751933,53.7281834 C71.7043938,53.3345541 71.1294759,53.1377424 70.3504225,53.1377424 C69.7136961,53.1377424 69.103197,53.2314623 68.5189069,53.4189048 C67.9346168,53.6063473 67.3728079,53.8275262 66.8334632,54.0824481 L65.979505,52.1930368 C66.6536859,51.8406448 67.3915283,51.572606 68.1930545,51.3889123 C68.9945806,51.2052187 69.75115,51.1133732 70.4627854,51.1133732 C72.043365,51.1133732 73.2362727,51.4582623 74.0415443,52.1480508 C74.8468159,52.8378393 75.2494457,53.9212409 75.2494457,55.398288 L75.2494457,63.7769273 L73.3617487,63.7769273 Z M69.4290466,61.977488 C70.3878816,61.977488 71.1575599,61.7094492 71.7381045,61.1733635 C72.3186492,60.6372779 72.6089171,59.8856446 72.6089171,58.9184412 L72.6089171,57.8387776 L71.0133637,57.9062566 C69.7698745,57.9512428 68.8653621,58.1593009 68.2997992,58.5304371 C67.7342364,58.9015733 67.4514592,59.4695156 67.4514592,60.2342812 C67.4514592,60.789111 67.6162565,61.218348 67.9458561,61.5220049 C68.2754556,61.8256618 68.7698475,61.977488 69.4290466,61.977488 Z M89.4327421,63.7769273 L86.7809772,63.7769273 L86.7809772,56.1068173 C86.7809772,55.1546092 86.6011983,54.4442127 86.2416352,53.9756063 C85.8820721,53.507 85.3202631,53.2727004 84.5561914,53.2727004 C83.5374292,53.2727004 82.7902233,53.6044687 82.3145512,54.2680152 C81.8388792,54.9315618 81.6010467,56.0355817 81.6010467,57.5801082 L81.6010467,63.7769273 L78.9605182,63.7769273 L78.9605182,51.3383031 L81.0279958,51.3383031 L81.3987935,52.969045 L81.533629,52.969045 C81.8782103,52.3767266 82.3782203,51.9193737 83.0336739,51.5969725 C83.6891275,51.2745714 84.4101157,51.1133732 85.1966601,51.1133732 C87.1068392,51.1133732 88.3727821,51.7656634 88.9945267,53.0702634 L89.1743073,53.0702634 C89.5413614,52.4554519 90.0582256,51.9756063 90.7249156,51.630712 C91.3916056,51.2858177 92.1556658,51.1133732 93.0171191,51.1133732 C94.500317,51.1133732 95.580863,51.4882526 96.2587893,52.2380228 C96.9367156,52.9877929 97.2756737,54.1311752 97.2756737,55.6682039 L97.2756737,63.7769273 L94.6351451,63.7769273 L94.6351451,56.1068173 C94.6351451,55.1546092 94.4534936,54.4442127 94.090185,53.9756063 C93.7268764,53.507 93.1631947,53.2727004 92.3991231,53.2727004 C91.37287,53.2727004 90.6219186,53.5932223 90.1462466,54.2342757 C89.6705745,54.8753292 89.4327421,55.8593877 89.4327421,57.1864808 L89.4327421,63.7769273 Z M31.2219842,95.0247905 L26.4577965,81.2928194 L26.3679062,81.2928194 C26.4952514,83.3321941 26.5589231,85.2440792 26.5589231,87.0285321 L26.5589231,95.0247905 L24.1206478,95.0247905 L24.1206478,78.5824139 L27.9072781,78.5824139 L32.4692126,91.6620883 L32.5366303,91.6620883 L37.2334003,78.5824139 L41.0312669,78.5824139 L41.0312669,95.0247905 L38.4469198,95.0247905 L38.4469198,86.8935742 C38.4469198,86.0763248 38.4675194,85.0116672 38.5087194,83.6995694 C38.5499193,82.3874717 38.5855005,81.5927273 38.6154641,81.3153124 L38.5255738,81.3153124 L33.5928417,95.0247905 L31.2219842,95.0247905 Z M50.5290296,95.2497204 C48.5963777,95.2497204 47.0851116,94.6855269 45.9951859,93.5571228 C44.9052601,92.4287188 44.3603054,90.8748435 44.3603054,88.8954504 C44.3603054,86.8635734 44.8659335,85.266587 45.8772048,84.1044433 C46.8884761,82.9422996 48.278017,82.3612365 50.045869,82.3612365 C51.6863758,82.3612365 52.9822819,82.8598261 53.933626,83.8570204 C54.8849701,84.8542146 55.360635,86.2262734 55.360635,87.9732378 L55.360635,89.4015427 L47.079488,89.4015427 C47.1169425,90.6086726 47.4427917,91.5364992 48.0570454,92.1850504 C48.6712991,92.8336015 49.5364849,93.1578723 50.6526288,93.1578723 C51.3867369,93.1578723 52.0702711,93.0885196 52.703252,92.9498121 C53.336233,92.8111046 54.0160218,92.5805538 54.742639,92.2581526 L54.742639,94.4062333 C54.0984217,94.713639 53.4467233,94.9310691 52.7875242,95.05853 C52.1283251,95.1859909 51.3755011,95.2497204 50.5290296,95.2497204 Z M50.045869,84.3631127 C49.2068884,84.3631127 48.5345903,84.6292771 48.0289547,85.1616139 C47.523319,85.6939507 47.2218149,86.4699511 47.1244332,87.4896385 L52.7650516,87.4896385 C52.7500698,86.4624534 52.5028739,85.6845786 52.0234564,85.1559906 C51.5440389,84.6274027 50.8848497,84.3631127 50.045869,84.3631127 Z M68.8585176,95.0247905 L66.2067528,95.0247905 L66.2067528,87.3546805 C66.2067528,86.4024725 66.0269739,85.6920759 65.6674108,85.2234696 C65.3078476,84.7548633 64.7460387,84.5205636 63.981967,84.5205636 C62.9632048,84.5205636 62.2159989,84.8523319 61.7403268,85.5158785 C61.2646547,86.179425 61.0268223,87.283445 61.0268223,88.8279714 L61.0268223,95.0247905 L58.3862937,95.0247905 L58.3862937,82.5861664 L60.4537714,82.5861664 L60.824569,84.2169082 L60.9594045,84.2169082 C61.3039859,83.6245898 61.8039958,83.1672369 62.4594495,82.8448358 C63.1149031,82.5224346 63.8358913,82.3612365 64.6224356,82.3612365 C66.5326148,82.3612365 67.7985576,83.0135267 68.4203022,84.3181267 L68.6000829,84.3181267 C68.9671369,83.7033152 69.4840012,83.2234695 70.1506912,82.8785753 C70.8173811,82.533681 71.5814413,82.3612365 72.4428947,82.3612365 C73.9260926,82.3612365 75.0066385,82.7361159 75.6845648,83.485886 C76.3624912,84.2356561 76.7014492,85.3790384 76.7014492,86.9160672 L76.7014492,95.0247905 L74.0609207,95.0247905 L74.0609207,87.3546805 C74.0609207,86.4024725 73.8792691,85.6920759 73.5159605,85.2234696 C73.1526519,84.7548633 72.5889703,84.5205636 71.8248986,84.5205636 C70.7986455,84.5205636 70.0476942,84.8410855 69.5720221,85.482139 C69.0963501,86.1231924 68.8585176,87.107251 68.8585176,88.4343441 L68.8585176,95.0247905 Z M86.7610265,82.3612365 C88.3116426,82.3612365 89.5195318,82.9235556 90.3847306,84.0482108 C91.2499294,85.172866 91.6825223,86.7511084 91.6825223,88.7829855 C91.6825223,90.8223602 91.2443113,92.4099746 90.3678762,93.5458764 C89.4914411,94.6817781 88.2741883,95.2497204 86.7160814,95.2497204 C85.1429927,95.2497204 83.9219945,94.6836525 83.0530503,93.5514996 L82.8732696,93.5514996 L82.3901091,95.0247905 L80.4125217,95.0247905 L80.4125217,77.5252433 L83.0530503,77.5252433 L83.0530503,81.6864467 C83.0530503,81.9938525 83.0380687,82.4512054 83.0081051,83.0585192 C82.9781415,83.665833 82.9556692,84.0519588 82.9406874,84.2169082 L83.0530503,84.2169082 C83.8920309,82.9797875 85.1280107,82.3612365 86.7610265,82.3612365 Z M86.0756128,84.5205636 C85.0119052,84.5205636 84.2459723,84.8335879 83.7777911,85.459646 C83.3096099,86.0857041 83.0680321,87.1334921 83.0530503,88.6030415 L83.0530503,88.7829855 C83.0530503,90.2975211 83.2927554,91.3940435 83.7721729,92.0725854 C84.2515905,92.7511274 85.0343776,93.0903933 86.1205579,93.0903933 C87.0569202,93.0903933 87.7666722,92.7192626 88.2498352,91.9769902 C88.7329982,91.2347178 88.974576,90.1625626 88.974576,88.7604925 C88.974576,85.9338591 88.0082646,84.5205636 86.0756128,84.5205636 Z M100.202728,95.2497204 C98.2700758,95.2497204 96.7588097,94.6855269 95.668884,93.5571228 C94.5789582,92.4287188 94.0340035,90.8748435 94.0340035,88.8954504 C94.0340035,86.8635734 94.5396316,85.266587 95.5509029,84.1044433 C96.5621742,82.9422996 97.9517151,82.3612365 99.7195671,82.3612365 C101.360074,82.3612365 102.65598,82.8598261 103.607324,83.8570204 C104.558668,84.8542146 105.034333,86.2262734 105.034333,87.9732378 L105.034333,89.4015427 L96.7531861,89.4015427 C96.7906406,90.6086726 97.1164898,91.5364992 97.7307435,92.1850504 C98.3449972,92.8336015 99.210183,93.1578723 100.326327,93.1578723 C101.060435,93.1578723 101.743969,93.0885196 102.37695,92.9498121 C103.009931,92.8111046 103.68972,92.5805538 104.416337,92.2581526 L104.416337,94.4062333 C103.77212,94.713639 103.120421,94.9310691 102.461222,95.05853 C101.802023,95.1859909 101.049199,95.2497204 100.202728,95.2497204 Z M99.7195671,84.3631127 C98.8805865,84.3631127 98.2082884,84.6292771 97.7026528,85.1616139 C97.1970171,85.6939507 96.895513,86.4699511 96.7981313,87.4896385 L102.43875,87.4896385 C102.423768,86.4624534 102.176572,85.6845786 101.697154,85.1559906 C101.217737,84.6274027 100.558548,84.3631127 99.7195671,84.3631127 Z M114.363551,82.3612365 C114.895405,82.3612365 115.333616,82.3987244 115.678198,82.4737014 L115.419763,84.936684 C115.045218,84.8467115 114.655697,84.801726 114.251189,84.801726 C113.194972,84.801726 112.33915,85.1466151 111.683696,85.8364036 C111.028242,86.5261921 110.70052,87.422154 110.70052,88.5243161 L110.70052,95.0247905 L108.059992,95.0247905 L108.059992,82.5861664 L110.127469,82.5861664 L110.475795,84.779233 L110.61063,84.779233 C111.022629,84.0369606 111.560093,83.4483999 112.223038,83.0135332 C112.885982,82.5786665 113.59948,82.3612365 114.363551,82.3612365 Z" id="Team-Member" fill="#FFFFFF"></path>
                                </g>
                                <g id="Group-6-Copy-3" transform="translate(485.807315, 200.897401)">
                                    <rect id="Rectangle-13" stroke="#3F5E8C" stroke-width="1.95121951" fill="#4689DC" x="0" y="0" width="136.793112" height="136.917337" rx="6.39220151"></rect>
                                    <path d="M46.8154352,63.7769273 L44.1299614,63.7769273 L44.1299614,49.6400823 L39.298356,49.6400823 L39.298356,47.3345507 L51.6470406,47.3345507 L51.6470406,49.6400823 L46.8154352,49.6400823 L46.8154352,63.7769273 Z M57.7289707,64.0018572 C55.7963188,64.0018572 54.2850527,63.4376636 53.1951269,62.3092596 C52.1052012,61.1808556 51.5602465,59.6269803 51.5602465,57.6475872 C51.5602465,55.6157101 52.0658746,54.0187237 53.0771459,52.85658 C54.0884172,51.6944363 55.477958,51.1133732 57.2458101,51.1133732 C58.8863169,51.1133732 60.1822229,51.6119629 61.133567,52.6091571 C62.0849112,53.6063514 62.5605761,54.9784101 62.5605761,56.7253745 L62.5605761,58.1536795 L54.2794291,58.1536795 C54.3168836,59.3608094 54.6427328,60.288636 55.2569865,60.9371871 C55.8712402,61.5857383 56.736426,61.910009 57.8525699,61.910009 C58.5866779,61.910009 59.2702122,61.8406563 59.9031931,61.7019488 C60.536174,61.5632414 61.2159629,61.3326905 61.9425801,61.0102894 L61.9425801,63.15837 C61.2983628,63.4657758 60.6466644,63.6832058 59.9874653,63.8106668 C59.3282662,63.9381277 58.5754422,64.0018572 57.7289707,64.0018572 Z M57.2458101,53.1152494 C56.4068295,53.1152494 55.7345314,53.3814138 55.2288957,53.9137506 C54.7232601,54.4460874 54.4217559,55.2220878 54.3243743,56.2417752 L59.9649927,56.2417752 C59.9500109,55.2145901 59.702815,54.4367153 59.2233975,53.9081274 C58.7439799,53.3795394 58.0847908,53.1152494 57.2458101,53.1152494 Z M73.3617487,63.7769273 L72.833643,62.044967 L72.7437526,62.044967 C72.1444807,62.8022348 71.5414724,63.317694 70.9347097,63.5913601 C70.3279469,63.8650262 69.5489051,64.0018572 68.597561,64.0018572 C67.3765445,64.0018572 66.423342,63.6719633 65.7379247,63.0121656 C65.0525075,62.3523679 64.709804,61.4189181 64.709804,60.2117882 C64.709804,58.9296813 65.185469,57.9624923 66.1368131,57.3101923 C67.0881572,56.6578923 68.5376243,56.3017568 70.485258,56.2417752 L72.6313897,56.1742962 L72.6313897,55.510753 C72.6313897,54.7159967 72.4459927,54.1218128 72.0751933,53.7281834 C71.7043938,53.3345541 71.1294759,53.1377424 70.3504225,53.1377424 C69.7136961,53.1377424 69.103197,53.2314623 68.5189069,53.4189048 C67.9346168,53.6063473 67.3728079,53.8275262 66.8334632,54.0824481 L65.979505,52.1930368 C66.6536859,51.8406448 67.3915283,51.572606 68.1930545,51.3889123 C68.9945806,51.2052187 69.75115,51.1133732 70.4627854,51.1133732 C72.043365,51.1133732 73.2362727,51.4582623 74.0415443,52.1480508 C74.8468159,52.8378393 75.2494457,53.9212409 75.2494457,55.398288 L75.2494457,63.7769273 L73.3617487,63.7769273 Z M69.4290466,61.977488 C70.3878816,61.977488 71.1575599,61.7094492 71.7381045,61.1733635 C72.3186492,60.6372779 72.6089171,59.8856446 72.6089171,58.9184412 L72.6089171,57.8387776 L71.0133637,57.9062566 C69.7698745,57.9512428 68.8653621,58.1593009 68.2997992,58.5304371 C67.7342364,58.9015733 67.4514592,59.4695156 67.4514592,60.2342812 C67.4514592,60.789111 67.6162565,61.218348 67.9458561,61.5220049 C68.2754556,61.8256618 68.7698475,61.977488 69.4290466,61.977488 Z M89.4327421,63.7769273 L86.7809772,63.7769273 L86.7809772,56.1068173 C86.7809772,55.1546092 86.6011983,54.4442127 86.2416352,53.9756063 C85.8820721,53.507 85.3202631,53.2727004 84.5561914,53.2727004 C83.5374292,53.2727004 82.7902233,53.6044687 82.3145512,54.2680152 C81.8388792,54.9315618 81.6010467,56.0355817 81.6010467,57.5801082 L81.6010467,63.7769273 L78.9605182,63.7769273 L78.9605182,51.3383031 L81.0279958,51.3383031 L81.3987935,52.969045 L81.533629,52.969045 C81.8782103,52.3767266 82.3782203,51.9193737 83.0336739,51.5969725 C83.6891275,51.2745714 84.4101157,51.1133732 85.1966601,51.1133732 C87.1068392,51.1133732 88.3727821,51.7656634 88.9945267,53.0702634 L89.1743073,53.0702634 C89.5413614,52.4554519 90.0582256,51.9756063 90.7249156,51.630712 C91.3916056,51.2858177 92.1556658,51.1133732 93.0171191,51.1133732 C94.500317,51.1133732 95.580863,51.4882526 96.2587893,52.2380228 C96.9367156,52.9877929 97.2756737,54.1311752 97.2756737,55.6682039 L97.2756737,63.7769273 L94.6351451,63.7769273 L94.6351451,56.1068173 C94.6351451,55.1546092 94.4534936,54.4442127 94.090185,53.9756063 C93.7268764,53.507 93.1631947,53.2727004 92.3991231,53.2727004 C91.37287,53.2727004 90.6219186,53.5932223 90.1462466,54.2342757 C89.6705745,54.8753292 89.4327421,55.8593877 89.4327421,57.1864808 L89.4327421,63.7769273 Z M31.2219842,95.0247905 L26.4577965,81.2928194 L26.3679062,81.2928194 C26.4952514,83.3321941 26.5589231,85.2440792 26.5589231,87.0285321 L26.5589231,95.0247905 L24.1206478,95.0247905 L24.1206478,78.5824139 L27.9072781,78.5824139 L32.4692126,91.6620883 L32.5366303,91.6620883 L37.2334003,78.5824139 L41.0312669,78.5824139 L41.0312669,95.0247905 L38.4469198,95.0247905 L38.4469198,86.8935742 C38.4469198,86.0763248 38.4675194,85.0116672 38.5087194,83.6995694 C38.5499193,82.3874717 38.5855005,81.5927273 38.6154641,81.3153124 L38.5255738,81.3153124 L33.5928417,95.0247905 L31.2219842,95.0247905 Z M50.5290296,95.2497204 C48.5963777,95.2497204 47.0851116,94.6855269 45.9951859,93.5571228 C44.9052601,92.4287188 44.3603054,90.8748435 44.3603054,88.8954504 C44.3603054,86.8635734 44.8659335,85.266587 45.8772048,84.1044433 C46.8884761,82.9422996 48.278017,82.3612365 50.045869,82.3612365 C51.6863758,82.3612365 52.9822819,82.8598261 53.933626,83.8570204 C54.8849701,84.8542146 55.360635,86.2262734 55.360635,87.9732378 L55.360635,89.4015427 L47.079488,89.4015427 C47.1169425,90.6086726 47.4427917,91.5364992 48.0570454,92.1850504 C48.6712991,92.8336015 49.5364849,93.1578723 50.6526288,93.1578723 C51.3867369,93.1578723 52.0702711,93.0885196 52.703252,92.9498121 C53.336233,92.8111046 54.0160218,92.5805538 54.742639,92.2581526 L54.742639,94.4062333 C54.0984217,94.713639 53.4467233,94.9310691 52.7875242,95.05853 C52.1283251,95.1859909 51.3755011,95.2497204 50.5290296,95.2497204 Z M50.045869,84.3631127 C49.2068884,84.3631127 48.5345903,84.6292771 48.0289547,85.1616139 C47.523319,85.6939507 47.2218149,86.4699511 47.1244332,87.4896385 L52.7650516,87.4896385 C52.7500698,86.4624534 52.5028739,85.6845786 52.0234564,85.1559906 C51.5440389,84.6274027 50.8848497,84.3631127 50.045869,84.3631127 Z M68.8585176,95.0247905 L66.2067528,95.0247905 L66.2067528,87.3546805 C66.2067528,86.4024725 66.0269739,85.6920759 65.6674108,85.2234696 C65.3078476,84.7548633 64.7460387,84.5205636 63.981967,84.5205636 C62.9632048,84.5205636 62.2159989,84.8523319 61.7403268,85.5158785 C61.2646547,86.179425 61.0268223,87.283445 61.0268223,88.8279714 L61.0268223,95.0247905 L58.3862937,95.0247905 L58.3862937,82.5861664 L60.4537714,82.5861664 L60.824569,84.2169082 L60.9594045,84.2169082 C61.3039859,83.6245898 61.8039958,83.1672369 62.4594495,82.8448358 C63.1149031,82.5224346 63.8358913,82.3612365 64.6224356,82.3612365 C66.5326148,82.3612365 67.7985576,83.0135267 68.4203022,84.3181267 L68.6000829,84.3181267 C68.9671369,83.7033152 69.4840012,83.2234695 70.1506912,82.8785753 C70.8173811,82.533681 71.5814413,82.3612365 72.4428947,82.3612365 C73.9260926,82.3612365 75.0066385,82.7361159 75.6845648,83.485886 C76.3624912,84.2356561 76.7014492,85.3790384 76.7014492,86.9160672 L76.7014492,95.0247905 L74.0609207,95.0247905 L74.0609207,87.3546805 C74.0609207,86.4024725 73.8792691,85.6920759 73.5159605,85.2234696 C73.1526519,84.7548633 72.5889703,84.5205636 71.8248986,84.5205636 C70.7986455,84.5205636 70.0476942,84.8410855 69.5720221,85.482139 C69.0963501,86.1231924 68.8585176,87.107251 68.8585176,88.4343441 L68.8585176,95.0247905 Z M86.7610265,82.3612365 C88.3116426,82.3612365 89.5195318,82.9235556 90.3847306,84.0482108 C91.2499294,85.172866 91.6825223,86.7511084 91.6825223,88.7829855 C91.6825223,90.8223602 91.2443113,92.4099746 90.3678762,93.5458764 C89.4914411,94.6817781 88.2741883,95.2497204 86.7160814,95.2497204 C85.1429927,95.2497204 83.9219945,94.6836525 83.0530503,93.5514996 L82.8732696,93.5514996 L82.3901091,95.0247905 L80.4125217,95.0247905 L80.4125217,77.5252433 L83.0530503,77.5252433 L83.0530503,81.6864467 C83.0530503,81.9938525 83.0380687,82.4512054 83.0081051,83.0585192 C82.9781415,83.665833 82.9556692,84.0519588 82.9406874,84.2169082 L83.0530503,84.2169082 C83.8920309,82.9797875 85.1280107,82.3612365 86.7610265,82.3612365 Z M86.0756128,84.5205636 C85.0119052,84.5205636 84.2459723,84.8335879 83.7777911,85.459646 C83.3096099,86.0857041 83.0680321,87.1334921 83.0530503,88.6030415 L83.0530503,88.7829855 C83.0530503,90.2975211 83.2927554,91.3940435 83.7721729,92.0725854 C84.2515905,92.7511274 85.0343776,93.0903933 86.1205579,93.0903933 C87.0569202,93.0903933 87.7666722,92.7192626 88.2498352,91.9769902 C88.7329982,91.2347178 88.974576,90.1625626 88.974576,88.7604925 C88.974576,85.9338591 88.0082646,84.5205636 86.0756128,84.5205636 Z M100.202728,95.2497204 C98.2700758,95.2497204 96.7588097,94.6855269 95.668884,93.5571228 C94.5789582,92.4287188 94.0340035,90.8748435 94.0340035,88.8954504 C94.0340035,86.8635734 94.5396316,85.266587 95.5509029,84.1044433 C96.5621742,82.9422996 97.9517151,82.3612365 99.7195671,82.3612365 C101.360074,82.3612365 102.65598,82.8598261 103.607324,83.8570204 C104.558668,84.8542146 105.034333,86.2262734 105.034333,87.9732378 L105.034333,89.4015427 L96.7531861,89.4015427 C96.7906406,90.6086726 97.1164898,91.5364992 97.7307435,92.1850504 C98.3449972,92.8336015 99.210183,93.1578723 100.326327,93.1578723 C101.060435,93.1578723 101.743969,93.0885196 102.37695,92.9498121 C103.009931,92.8111046 103.68972,92.5805538 104.416337,92.2581526 L104.416337,94.4062333 C103.77212,94.713639 103.120421,94.9310691 102.461222,95.05853 C101.802023,95.1859909 101.049199,95.2497204 100.202728,95.2497204 Z M99.7195671,84.3631127 C98.8805865,84.3631127 98.2082884,84.6292771 97.7026528,85.1616139 C97.1970171,85.6939507 96.895513,86.4699511 96.7981313,87.4896385 L102.43875,87.4896385 C102.423768,86.4624534 102.176572,85.6845786 101.697154,85.1559906 C101.217737,84.6274027 100.558548,84.3631127 99.7195671,84.3631127 Z M114.363551,82.3612365 C114.895405,82.3612365 115.333616,82.3987244 115.678198,82.4737014 L115.419763,84.936684 C115.045218,84.8467115 114.655697,84.801726 114.251189,84.801726 C113.194972,84.801726 112.33915,85.1466151 111.683696,85.8364036 C111.028242,86.5261921 110.70052,87.422154 110.70052,88.5243161 L110.70052,95.0247905 L108.059992,95.0247905 L108.059992,82.5861664 L110.127469,82.5861664 L110.475795,84.779233 L110.61063,84.779233 C111.022629,84.0369606 111.560093,83.4483999 112.223038,83.0135332 C112.885982,82.5786665 113.59948,82.3612365 114.363551,82.3612365 Z" id="Team-Member" fill="#FFFFFF"></path>
                                </g>
                                <g id="Group-6-Copy-4" transform="translate(660.953637, 200.897401)">
                                    <rect id="Rectangle-13" stroke="#3F5E8C" stroke-width="1.95121951" fill="#4689DC" x="0" y="0" width="136.793112" height="136.917337" rx="6.39220151"></rect>
                                    <path d="M46.8154352,63.7769273 L44.1299614,63.7769273 L44.1299614,49.6400823 L39.298356,49.6400823 L39.298356,47.3345507 L51.6470406,47.3345507 L51.6470406,49.6400823 L46.8154352,49.6400823 L46.8154352,63.7769273 Z M57.7289707,64.0018572 C55.7963188,64.0018572 54.2850527,63.4376636 53.1951269,62.3092596 C52.1052012,61.1808556 51.5602465,59.6269803 51.5602465,57.6475872 C51.5602465,55.6157101 52.0658746,54.0187237 53.0771459,52.85658 C54.0884172,51.6944363 55.477958,51.1133732 57.2458101,51.1133732 C58.8863169,51.1133732 60.1822229,51.6119629 61.133567,52.6091571 C62.0849112,53.6063514 62.5605761,54.9784101 62.5605761,56.7253745 L62.5605761,58.1536795 L54.2794291,58.1536795 C54.3168836,59.3608094 54.6427328,60.288636 55.2569865,60.9371871 C55.8712402,61.5857383 56.736426,61.910009 57.8525699,61.910009 C58.5866779,61.910009 59.2702122,61.8406563 59.9031931,61.7019488 C60.536174,61.5632414 61.2159629,61.3326905 61.9425801,61.0102894 L61.9425801,63.15837 C61.2983628,63.4657758 60.6466644,63.6832058 59.9874653,63.8106668 C59.3282662,63.9381277 58.5754422,64.0018572 57.7289707,64.0018572 Z M57.2458101,53.1152494 C56.4068295,53.1152494 55.7345314,53.3814138 55.2288957,53.9137506 C54.7232601,54.4460874 54.4217559,55.2220878 54.3243743,56.2417752 L59.9649927,56.2417752 C59.9500109,55.2145901 59.702815,54.4367153 59.2233975,53.9081274 C58.7439799,53.3795394 58.0847908,53.1152494 57.2458101,53.1152494 Z M73.3617487,63.7769273 L72.833643,62.044967 L72.7437526,62.044967 C72.1444807,62.8022348 71.5414724,63.317694 70.9347097,63.5913601 C70.3279469,63.8650262 69.5489051,64.0018572 68.597561,64.0018572 C67.3765445,64.0018572 66.423342,63.6719633 65.7379247,63.0121656 C65.0525075,62.3523679 64.709804,61.4189181 64.709804,60.2117882 C64.709804,58.9296813 65.185469,57.9624923 66.1368131,57.3101923 C67.0881572,56.6578923 68.5376243,56.3017568 70.485258,56.2417752 L72.6313897,56.1742962 L72.6313897,55.510753 C72.6313897,54.7159967 72.4459927,54.1218128 72.0751933,53.7281834 C71.7043938,53.3345541 71.1294759,53.1377424 70.3504225,53.1377424 C69.7136961,53.1377424 69.103197,53.2314623 68.5189069,53.4189048 C67.9346168,53.6063473 67.3728079,53.8275262 66.8334632,54.0824481 L65.979505,52.1930368 C66.6536859,51.8406448 67.3915283,51.572606 68.1930545,51.3889123 C68.9945806,51.2052187 69.75115,51.1133732 70.4627854,51.1133732 C72.043365,51.1133732 73.2362727,51.4582623 74.0415443,52.1480508 C74.8468159,52.8378393 75.2494457,53.9212409 75.2494457,55.398288 L75.2494457,63.7769273 L73.3617487,63.7769273 Z M69.4290466,61.977488 C70.3878816,61.977488 71.1575599,61.7094492 71.7381045,61.1733635 C72.3186492,60.6372779 72.6089171,59.8856446 72.6089171,58.9184412 L72.6089171,57.8387776 L71.0133637,57.9062566 C69.7698745,57.9512428 68.8653621,58.1593009 68.2997992,58.5304371 C67.7342364,58.9015733 67.4514592,59.4695156 67.4514592,60.2342812 C67.4514592,60.789111 67.6162565,61.218348 67.9458561,61.5220049 C68.2754556,61.8256618 68.7698475,61.977488 69.4290466,61.977488 Z M89.4327421,63.7769273 L86.7809772,63.7769273 L86.7809772,56.1068173 C86.7809772,55.1546092 86.6011983,54.4442127 86.2416352,53.9756063 C85.8820721,53.507 85.3202631,53.2727004 84.5561914,53.2727004 C83.5374292,53.2727004 82.7902233,53.6044687 82.3145512,54.2680152 C81.8388792,54.9315618 81.6010467,56.0355817 81.6010467,57.5801082 L81.6010467,63.7769273 L78.9605182,63.7769273 L78.9605182,51.3383031 L81.0279958,51.3383031 L81.3987935,52.969045 L81.533629,52.969045 C81.8782103,52.3767266 82.3782203,51.9193737 83.0336739,51.5969725 C83.6891275,51.2745714 84.4101157,51.1133732 85.1966601,51.1133732 C87.1068392,51.1133732 88.3727821,51.7656634 88.9945267,53.0702634 L89.1743073,53.0702634 C89.5413614,52.4554519 90.0582256,51.9756063 90.7249156,51.630712 C91.3916056,51.2858177 92.1556658,51.1133732 93.0171191,51.1133732 C94.500317,51.1133732 95.580863,51.4882526 96.2587893,52.2380228 C96.9367156,52.9877929 97.2756737,54.1311752 97.2756737,55.6682039 L97.2756737,63.7769273 L94.6351451,63.7769273 L94.6351451,56.1068173 C94.6351451,55.1546092 94.4534936,54.4442127 94.090185,53.9756063 C93.7268764,53.507 93.1631947,53.2727004 92.3991231,53.2727004 C91.37287,53.2727004 90.6219186,53.5932223 90.1462466,54.2342757 C89.6705745,54.8753292 89.4327421,55.8593877 89.4327421,57.1864808 L89.4327421,63.7769273 Z M31.2219842,95.0247905 L26.4577965,81.2928194 L26.3679062,81.2928194 C26.4952514,83.3321941 26.5589231,85.2440792 26.5589231,87.0285321 L26.5589231,95.0247905 L24.1206478,95.0247905 L24.1206478,78.5824139 L27.9072781,78.5824139 L32.4692126,91.6620883 L32.5366303,91.6620883 L37.2334003,78.5824139 L41.0312669,78.5824139 L41.0312669,95.0247905 L38.4469198,95.0247905 L38.4469198,86.8935742 C38.4469198,86.0763248 38.4675194,85.0116672 38.5087194,83.6995694 C38.5499193,82.3874717 38.5855005,81.5927273 38.6154641,81.3153124 L38.5255738,81.3153124 L33.5928417,95.0247905 L31.2219842,95.0247905 Z M50.5290296,95.2497204 C48.5963777,95.2497204 47.0851116,94.6855269 45.9951859,93.5571228 C44.9052601,92.4287188 44.3603054,90.8748435 44.3603054,88.8954504 C44.3603054,86.8635734 44.8659335,85.266587 45.8772048,84.1044433 C46.8884761,82.9422996 48.278017,82.3612365 50.045869,82.3612365 C51.6863758,82.3612365 52.9822819,82.8598261 53.933626,83.8570204 C54.8849701,84.8542146 55.360635,86.2262734 55.360635,87.9732378 L55.360635,89.4015427 L47.079488,89.4015427 C47.1169425,90.6086726 47.4427917,91.5364992 48.0570454,92.1850504 C48.6712991,92.8336015 49.5364849,93.1578723 50.6526288,93.1578723 C51.3867369,93.1578723 52.0702711,93.0885196 52.703252,92.9498121 C53.336233,92.8111046 54.0160218,92.5805538 54.742639,92.2581526 L54.742639,94.4062333 C54.0984217,94.713639 53.4467233,94.9310691 52.7875242,95.05853 C52.1283251,95.1859909 51.3755011,95.2497204 50.5290296,95.2497204 Z M50.045869,84.3631127 C49.2068884,84.3631127 48.5345903,84.6292771 48.0289547,85.1616139 C47.523319,85.6939507 47.2218149,86.4699511 47.1244332,87.4896385 L52.7650516,87.4896385 C52.7500698,86.4624534 52.5028739,85.6845786 52.0234564,85.1559906 C51.5440389,84.6274027 50.8848497,84.3631127 50.045869,84.3631127 Z M68.8585176,95.0247905 L66.2067528,95.0247905 L66.2067528,87.3546805 C66.2067528,86.4024725 66.0269739,85.6920759 65.6674108,85.2234696 C65.3078476,84.7548633 64.7460387,84.5205636 63.981967,84.5205636 C62.9632048,84.5205636 62.2159989,84.8523319 61.7403268,85.5158785 C61.2646547,86.179425 61.0268223,87.283445 61.0268223,88.8279714 L61.0268223,95.0247905 L58.3862937,95.0247905 L58.3862937,82.5861664 L60.4537714,82.5861664 L60.824569,84.2169082 L60.9594045,84.2169082 C61.3039859,83.6245898 61.8039958,83.1672369 62.4594495,82.8448358 C63.1149031,82.5224346 63.8358913,82.3612365 64.6224356,82.3612365 C66.5326148,82.3612365 67.7985576,83.0135267 68.4203022,84.3181267 L68.6000829,84.3181267 C68.9671369,83.7033152 69.4840012,83.2234695 70.1506912,82.8785753 C70.8173811,82.533681 71.5814413,82.3612365 72.4428947,82.3612365 C73.9260926,82.3612365 75.0066385,82.7361159 75.6845648,83.485886 C76.3624912,84.2356561 76.7014492,85.3790384 76.7014492,86.9160672 L76.7014492,95.0247905 L74.0609207,95.0247905 L74.0609207,87.3546805 C74.0609207,86.4024725 73.8792691,85.6920759 73.5159605,85.2234696 C73.1526519,84.7548633 72.5889703,84.5205636 71.8248986,84.5205636 C70.7986455,84.5205636 70.0476942,84.8410855 69.5720221,85.482139 C69.0963501,86.1231924 68.8585176,87.107251 68.8585176,88.4343441 L68.8585176,95.0247905 Z M86.7610265,82.3612365 C88.3116426,82.3612365 89.5195318,82.9235556 90.3847306,84.0482108 C91.2499294,85.172866 91.6825223,86.7511084 91.6825223,88.7829855 C91.6825223,90.8223602 91.2443113,92.4099746 90.3678762,93.5458764 C89.4914411,94.6817781 88.2741883,95.2497204 86.7160814,95.2497204 C85.1429927,95.2497204 83.9219945,94.6836525 83.0530503,93.5514996 L82.8732696,93.5514996 L82.3901091,95.0247905 L80.4125217,95.0247905 L80.4125217,77.5252433 L83.0530503,77.5252433 L83.0530503,81.6864467 C83.0530503,81.9938525 83.0380687,82.4512054 83.0081051,83.0585192 C82.9781415,83.665833 82.9556692,84.0519588 82.9406874,84.2169082 L83.0530503,84.2169082 C83.8920309,82.9797875 85.1280107,82.3612365 86.7610265,82.3612365 Z M86.0756128,84.5205636 C85.0119052,84.5205636 84.2459723,84.8335879 83.7777911,85.459646 C83.3096099,86.0857041 83.0680321,87.1334921 83.0530503,88.6030415 L83.0530503,88.7829855 C83.0530503,90.2975211 83.2927554,91.3940435 83.7721729,92.0725854 C84.2515905,92.7511274 85.0343776,93.0903933 86.1205579,93.0903933 C87.0569202,93.0903933 87.7666722,92.7192626 88.2498352,91.9769902 C88.7329982,91.2347178 88.974576,90.1625626 88.974576,88.7604925 C88.974576,85.9338591 88.0082646,84.5205636 86.0756128,84.5205636 Z M100.202728,95.2497204 C98.2700758,95.2497204 96.7588097,94.6855269 95.668884,93.5571228 C94.5789582,92.4287188 94.0340035,90.8748435 94.0340035,88.8954504 C94.0340035,86.8635734 94.5396316,85.266587 95.5509029,84.1044433 C96.5621742,82.9422996 97.9517151,82.3612365 99.7195671,82.3612365 C101.360074,82.3612365 102.65598,82.8598261 103.607324,83.8570204 C104.558668,84.8542146 105.034333,86.2262734 105.034333,87.9732378 L105.034333,89.4015427 L96.7531861,89.4015427 C96.7906406,90.6086726 97.1164898,91.5364992 97.7307435,92.1850504 C98.3449972,92.8336015 99.210183,93.1578723 100.326327,93.1578723 C101.060435,93.1578723 101.743969,93.0885196 102.37695,92.9498121 C103.009931,92.8111046 103.68972,92.5805538 104.416337,92.2581526 L104.416337,94.4062333 C103.77212,94.713639 103.120421,94.9310691 102.461222,95.05853 C101.802023,95.1859909 101.049199,95.2497204 100.202728,95.2497204 Z M99.7195671,84.3631127 C98.8805865,84.3631127 98.2082884,84.6292771 97.7026528,85.1616139 C97.1970171,85.6939507 96.895513,86.4699511 96.7981313,87.4896385 L102.43875,87.4896385 C102.423768,86.4624534 102.176572,85.6845786 101.697154,85.1559906 C101.217737,84.6274027 100.558548,84.3631127 99.7195671,84.3631127 Z M114.363551,82.3612365 C114.895405,82.3612365 115.333616,82.3987244 115.678198,82.4737014 L115.419763,84.936684 C115.045218,84.8467115 114.655697,84.801726 114.251189,84.801726 C113.194972,84.801726 112.33915,85.1466151 111.683696,85.8364036 C111.028242,86.5261921 110.70052,87.422154 110.70052,88.5243161 L110.70052,95.0247905 L108.059992,95.0247905 L108.059992,82.5861664 L110.127469,82.5861664 L110.475795,84.779233 L110.61063,84.779233 C111.022629,84.0369606 111.560093,83.4483999 112.223038,83.0135332 C112.885982,82.5786665 113.59948,82.3612365 114.363551,82.3612365 Z" id="Team-Member" fill="#FFFFFF"></path>
                                </g>
                                <path d="M138.710773,74.8566749 L311.342823,74.8566749" id="Line-5" stroke="#3F5E8C" stroke-width="1.2784403" stroke-linecap="square"></path>
                            </g>
                        </g>
                        <path d="M67.1181159,204.096404 L67.7573361,455.538056" id="Line-10" stroke="#3F5E8C" stroke-width="1.2784403" stroke-linecap="square"></path>
                        <path d="M67.7573361,455.538056 L728.710973,454.258454" id="Line-11" stroke="#3F5E8C" stroke-width="1.2784403" stroke-linecap="square"></path>
                        <path d="M172.404666,25.3888889 L169.764138,25.3888889 L169.764138,14.772197 C169.764138,13.5050855 169.794101,12.5004086 169.854028,11.7581362 C169.681737,11.938081 169.470123,12.1367671 169.219178,12.3542005 C168.968233,12.5716338 168.127392,13.261412 166.69663,14.4235557 L165.370748,12.7478278 L170.202353,8.94651229 L172.404666,8.94651229 L172.404666,25.3888889 Z M195.714928,19.1470838 C195.714928,21.1789609 195.194318,22.7647009 194.153083,23.9043515 C193.111848,25.0440021 191.662381,25.6138188 189.804638,25.6138188 C188.643549,25.6138188 187.617311,25.3514032 186.725894,24.8265641 C185.834477,24.301725 185.149071,23.5482173 184.669653,22.5660185 C184.190236,21.5838196 183.95053,20.4441861 183.95053,19.1470838 C183.95053,17.1302022 184.467395,15.5557085 185.501139,14.4235557 C186.534883,13.2914028 187.991841,12.7253348 189.872056,12.7253348 C191.669872,12.7253348 193.093121,13.3045236 194.141847,14.4629184 C195.190573,15.6213132 195.714928,17.1826861 195.714928,19.1470838 Z M186.669713,19.1470838 C186.669713,22.0187034 187.729659,23.4544916 189.849584,23.4544916 C191.947035,23.4544916 192.995745,22.0187034 192.995745,19.1470838 C192.995745,16.3054551 191.939544,14.884662 189.827111,14.884662 C188.718458,14.884662 187.915071,15.2520438 187.416926,15.9868185 C186.918782,16.7215933 186.669713,17.7750045 186.669713,19.1470838 Z M209.707207,25.3888889 L207.055442,25.3888889 L207.055442,17.7412719 C207.055442,16.7815661 206.862555,16.0655464 206.476773,15.5931912 C206.090992,15.120836 205.47862,14.884662 204.63964,14.884662 C203.523496,14.884662 202.707,15.2145559 202.190128,15.8743536 C201.673256,16.5341513 201.414824,17.6400456 201.414824,19.1920698 L201.414824,25.3888889 L198.774295,25.3888889 L198.774295,12.9502647 L200.841773,12.9502647 L201.212571,14.5810066 L201.347406,14.5810066 C201.721951,13.9886882 202.253797,13.5313353 202.94296,13.2089341 C203.632122,12.886533 204.396182,12.7253348 205.235163,12.7253348 C208.216541,12.7253348 209.707207,14.2435965 209.707207,17.2801655 L209.707207,25.3888889 Z M226.28693,25.3888889 L223.646401,25.3888889 L223.646401,14.772197 C223.646401,13.5050855 223.676365,12.5004086 223.736292,11.7581362 C223.564001,11.938081 223.352386,12.1367671 223.101441,12.3542005 C222.850496,12.5716338 222.009655,13.261412 220.578894,14.4235557 L219.253011,12.7478278 L224.084617,8.94651229 L226.28693,8.94651229 L226.28693,25.3888889 Z M245.956633,25.3888889 L241.192445,11.6569177 L241.102555,11.6569177 C241.2299,13.6962925 241.293572,15.6081776 241.293572,17.3926305 L241.293572,25.3888889 L238.855297,25.3888889 L238.855297,8.94651229 L242.641927,8.94651229 L247.203861,22.0261867 L247.271279,22.0261867 L251.968049,8.94651229 L255.765916,8.94651229 L255.765916,25.3888889 L253.181568,25.3888889 L253.181568,17.2576726 C253.181568,16.4404231 253.202168,15.3757655 253.243368,14.0636678 C253.284568,12.7515701 253.320149,11.9568257 253.350113,11.6794107 L253.260223,11.6794107 L248.32749,25.3888889 L245.956633,25.3888889 Z M267.612063,25.3888889 L267.083958,23.6569286 L266.994067,23.6569286 C266.394795,24.4141964 265.791787,24.9296556 265.185024,25.2033217 C264.578261,25.4769878 263.79922,25.6138188 262.847876,25.6138188 C261.626859,25.6138188 260.673657,25.2839249 259.988239,24.6241272 C259.302822,23.9643295 258.960119,23.0308797 258.960119,21.8237498 C258.960119,20.5416429 259.435784,19.5744539 260.387128,18.9221539 C261.338472,18.2698539 262.787939,17.9137184 264.735573,17.8537368 L266.881704,17.7862578 L266.881704,17.1227146 C266.881704,16.3279583 266.696307,15.7337744 266.325508,15.3401451 C265.954708,14.9465157 265.379791,14.749704 264.600737,14.749704 C263.964011,14.749704 263.353512,14.8434239 262.769222,15.0308664 C262.184931,15.218309 261.623122,15.4394878 261.083778,15.6944097 L260.22982,13.8049984 C260.904,13.4526064 261.641843,13.1845676 262.443369,13.000874 C263.244895,12.8171803 264.001465,12.7253348 264.7131,12.7253348 C266.29368,12.7253348 267.486587,13.0702239 268.291859,13.7600124 C269.097131,14.4498009 269.49976,15.5332025 269.49976,17.0102497 L269.49976,25.3888889 L267.612063,25.3888889 Z M263.679361,23.5894496 C264.638196,23.5894496 265.407874,23.3214108 265.988419,22.7853252 C266.568964,22.2492395 266.859232,21.4976062 266.859232,20.5304028 L266.859232,19.4507392 L265.263678,19.5182182 C264.020189,19.5632044 263.115677,19.7712625 262.550114,20.1423987 C261.984551,20.5135349 261.701774,21.0814772 261.701774,21.8462428 C261.701774,22.4010727 261.866571,22.8303096 262.196171,23.1339665 C262.52577,23.4376234 263.020162,23.5894496 263.679361,23.5894496 Z M279.514392,25.6138188 C277.941304,25.6138188 276.720306,25.0477508 275.851361,23.915598 L275.694053,23.915598 C275.798926,24.9652761 275.851361,25.6025712 275.851361,25.8275022 L275.851361,30.9221647 L273.210833,30.9221647 L273.210833,12.9502647 L275.345728,12.9502647 C275.405655,13.1826935 275.529253,13.737515 275.716526,14.6147461 L275.851361,14.6147461 C276.67536,13.3551323 277.91134,12.7253348 279.559338,12.7253348 C281.109954,12.7253348 282.317843,13.287654 283.183042,14.4123092 C284.04824,15.5369643 284.480833,17.1152068 284.480833,19.1470838 C284.480833,21.1789609 284.04075,22.7647009 283.160569,23.9043515 C282.280389,25.0440021 281.065008,25.6138188 279.514392,25.6138188 Z M278.873924,14.884662 C277.825198,14.884662 277.059265,15.1920631 276.576102,15.8068746 C276.092939,16.4216861 275.851361,17.4038702 275.851361,18.7534565 L275.851361,19.1470838 C275.851361,20.6616195 276.091066,21.7581418 276.570484,22.4366838 C277.049902,23.1152258 277.832689,23.4544916 278.918869,23.4544916 C279.832759,23.4544916 280.536893,23.0796122 281.031292,22.3298421 C281.525691,21.580072 281.772887,20.5116656 281.772887,19.1245908 C281.772887,17.7300184 281.527564,16.6747328 281.03691,15.9587023 C280.546256,15.2426718 279.825268,14.884662 278.873924,14.884662 Z" id="1-on-1-Map" fill="#3F5E8C"></path>
                    </g>
                    <path d="M554.203871,270.635671 L554.203871,237.341439" id="Line-8" stroke="#3F5E8C" stroke-width="1.2784403" stroke-linecap="square"></path>
                    <path d="M729.350193,270.635671 L729.350193,237.341439" id="Line-8-Copy" stroke="#3F5E8C" stroke-width="1.2784403" stroke-linecap="square"></path>
                </g>
            </g>
        </g>
    </g>
</svg>